<svg version="1.1" xmlns="http://www.w3.org/2000/svg" xmlns:xlink="http://www.w3.org/1999/xlink" width="371.47493" height="371.47493" viewBox="0,0,371.47493,371.47493"><g transform="translate(-54.26262,5.73742)"><g data-paper-data="{&quot;isPaintingLayer&quot;:true}" fill-rule="nonzero" stroke-linejoin="miter" stroke-miterlimit="10" stroke-dasharray="" stroke-dashoffset="0" style="mix-blend-mode: normal"><path d="M327.08024,168.15755c0,-6.29954 5.10679,-11.40633 11.40633,-11.40633c6.29954,0 11.40633,5.10679 11.40633,11.40633c0,6.29954 -5.10679,11.40633 -11.40633,11.40633c-6.29954,0 -11.40633,-5.10679 -11.40633,-11.40633z" fill="#ffffae" stroke="#000000" stroke-width="2.5" stroke-linecap="butt"/><path d="M281.45481,180.64862c0,-6.29954 5.10679,-11.40633 11.40633,-11.40633c6.29954,0 11.40633,5.10679 11.40633,11.40633c0,6.29954 -5.10679,11.40633 -11.40633,11.40633c-6.29954,0 -11.40633,-5.10679 -11.40633,-11.40633z" fill="#ffffae" stroke="#000000" stroke-width="2.5" stroke-linecap="butt"/><path d="M54.26262,365.73751v-371.47493h371.47493v371.47493z" fill="none" stroke="none" stroke-width="0" stroke-linecap="butt"/><path d="M389.1282,177.10989v-4.16878h5.10639v4.16878z" fill="none" stroke="#000000" stroke-width="1.5" stroke-linecap="butt"/><path d="M258.02641,177.78696v-5.32569h16.78415v5.32569z" fill="#7689a0" stroke="#000000" stroke-width="1.5" stroke-linecap="butt"/><path d="M277.36509,183.03268l4.19658,-4.19658" data-paper-data="{&quot;index&quot;:null}" fill="none" stroke="#000000" stroke-width="3.5" stroke-linecap="round"/><path d="M281.56167,171.43353l-4.19658,-4.19658" fill="none" stroke="#000000" stroke-width="3.5" stroke-linecap="round"/><path d="M345.9994,177.10989v-4.16878h43.16755v4.16878z" fill="#93aac7" stroke="#000000" stroke-width="1.5" stroke-linecap="butt"/><path d="M323.08752,177.91018v-6.03612h48.23518v6.03612z" fill="#93aac7" stroke="#000000" stroke-width="2" stroke-linecap="butt"/><path d="M303.34226,177.91018v-6.03612h48.23518v6.03612z" fill="#93aac7" stroke="#000000" stroke-width="2" stroke-linecap="butt"/><path d="M274.79863,178.4437v-7.23655h50.2359v7.23655z" fill="#657588" stroke="#000000" stroke-width="2.5" stroke-linecap="butt"/><path d="M278.72263,177.93331v-1.06539h0.17758v1.06539z" fill="#93aac7" stroke="#000000" stroke-width="2.5" stroke-linecap="butt"/><path d="M278.63037,172.3164v-1.06539h0.17758v1.06539z" fill="#93aac7" stroke="#000000" stroke-width="2.5" stroke-linecap="butt"/><path d="M305.74924,176.64206v-3.61394h0.17758v3.61394z" fill="#93aac7" stroke="#000000" stroke-width="2" stroke-linecap="butt"/><path d="M329.21832,179.24399v-9.50404h36.41016v9.50404z" fill="#7689a0" stroke="#000000" stroke-width="2.5" stroke-linecap="butt"/><path d="M365.77597,174.74655h-36.39749" fill="none" stroke="#000000" stroke-width="1" stroke-linecap="round"/><path d="M332.45976,178.69443v-8.28091" fill="none" stroke="#000000" stroke-width="1" stroke-linecap="round"/><path d="M335.34844,178.69443v-8.28091" fill="none" stroke="#000000" stroke-width="1" stroke-linecap="round"/><path d="M338.23713,170.41352v8.28091" fill="none" stroke="#000000" stroke-width="1" stroke-linecap="round"/><path d="M341.12583,170.41352v8.28091" fill="none" stroke="#000000" stroke-width="1" stroke-linecap="round"/><path d="M344.0145,178.69443v-8.28091" fill="none" stroke="#000000" stroke-width="1" stroke-linecap="round"/><path d="M346.90319,178.69443v-8.28091" fill="none" stroke="#000000" stroke-width="1" stroke-linecap="round"/><path d="M349.79188,170.41352v8.28091" fill="none" stroke="#000000" stroke-width="1" stroke-linecap="round"/><path d="M352.68058,178.69443v-8.28091" fill="none" stroke="#000000" stroke-width="1" stroke-linecap="round"/><path d="M355.56927,178.69443v-8.28091" fill="none" stroke="#000000" stroke-width="1" stroke-linecap="round"/><path d="M358.45795,170.41352v8.28091" fill="none" stroke="#000000" stroke-width="1" stroke-linecap="round"/><path d="M361.34665,170.41352v8.28091" fill="none" stroke="#000000" stroke-width="1" stroke-linecap="round"/><path d="M364.23534,170.41352v8.28091" fill="none" stroke="#000000" stroke-width="1" stroke-linecap="round"/><path d="M389.24974,175.08861h4.83549" fill="none" stroke="#000000" stroke-width="1.5" stroke-linecap="round"/></g></g></svg>