<svg version="1.1" xmlns="http://www.w3.org/2000/svg" xmlns:xlink="http://www.w3.org/1999/xlink" width="199.17669" height="199.17669" viewBox="0,0,199.17669,199.17669"><g transform="translate(-140.50857,-80.50858)"><g data-paper-data="{&quot;isPaintingLayer&quot;:true}" fill-rule="nonzero" stroke="#000000" stroke-linejoin="miter" stroke-miterlimit="10" stroke-dasharray="" stroke-dashoffset="0" style="mix-blend-mode: normal"><path d="M145.25857,274.93527v-189.67669h189.67669v189.67669z" fill="#ffffff" stroke-width="9.5" stroke-linecap="butt"/><path d="" fill="#92b7b7" stroke-width="2" stroke-linecap="butt"/><path d="" fill="#536565" stroke-width="2" stroke-linecap="butt"/><path d="" fill="#536565" stroke-width="2" stroke-linecap="butt"/><path d="" fill="#536565" stroke-width="2" stroke-linecap="butt"/><path d="M194.28377,178.06833v6.29292h-4.66894v6.29292h-10.96186l-8.52589,7.3079l-3.65395,-2.84196l-7.9169,12.17984l-3.65395,-30.85559l-0.81198,-2.23297h40.80246z" fill="#657588" stroke-width="3" stroke-linecap="round"/><path d="M196.31374,174.21139v4.66894" fill="none" stroke-width="3" stroke-linecap="round"/><path d="M221.07942,200.80404h-9.13488l-10.55586,15.2248l-2.23297,-1.01498l-6.49592,-2.84196l9.84537,-16.23979v-5.37943c0,0 -0.65287,-2.27686 -1.42098,-3.04496c-0.8188,-0.8188 -3.34946,-1.72548 -3.34946,-1.72548v-11.97684h26.79565h9.94687v2.84196v7.5109v1.82698l-1.42098,1.42098l-1.01499,1.21798v9.54088z" fill="#657588" stroke-width="3" stroke-linecap="round"/><path d="M224.32547,227.7167c0,0 -2.74891,-8.14024 -3.42598,-13.37769c-0.68311,-5.28421 -0.17231,-12.41943 -0.17231,-12.41943l11.38219,-3.00694c0,0 -0.62726,7.1778 0.05196,12.43197c0.02767,0.21404 3.54633,13.36516 3.54633,13.36516z" fill="#5b697b" stroke-width="3" stroke-linecap="butt"/><path d="M211.40474,199.54366l-0.96916,-8.23789h10.17622l0.5815,8.9163z" fill="#ffffff" stroke-width="3" stroke-linecap="round"/><path d="M236.54345,175.60751v5.84665" fill="none" stroke-width="3" stroke-linecap="round"/><path d="M238.42947,173.9101h35.64573v9.61869h-35.45713z" fill="#657588" stroke-width="3" stroke-linecap="round"/><path d="M240.61151,185.25h22.07852" fill="none" stroke-width="3" stroke-linecap="round"/><path d="M276.28912,178.53046v-4.66894h8.79941v4.66894z" fill="#657588" stroke-width="3" stroke-linecap="butt"/><path d="M276.28912,173.57079c0,0 5.02431,-5.02431 6.55956,-6.55956c0.83058,-0.83058 1.91987,-0.38958 1.91987,0.63996c0,1.56561 0,5.9196 0,5.9196z" fill="none" stroke-width="3" stroke-linecap="round"/><path d="M286.4721,175.81064h26.23825" fill="none" stroke-width="3" stroke-linecap="round"/><path d="M286.4721,175.81064h6.71955" fill="none" stroke-width="4" stroke-linecap="round"/><path d="M302.15105,175.81064h9.91933" fill="none" stroke-width="4" stroke-linecap="round"/><path d="M313.52006,177.55408v-3.72732h12.21732v3.72732z" fill="none" stroke-width="1.5" stroke-linecap="butt"/><path d="M313.84564,175.63715h11.32968" fill="none" stroke-width="1" stroke-linecap="round"/><path d="M186.79043,181.56376h-27.76493" fill="none" stroke-width="2" stroke-linecap="round"/><path d="M166.34115,194.21513l6.75159,-7.21752h16.67883" fill="none" stroke-width="2" stroke-linecap="round"/><path d="M220.17818,191.31093h11.1649" fill="none" stroke-width="3" stroke-linecap="round"/><path d="M213.56738,191.75165c0,0 -0.40249,2.94213 -0.21394,4.10038c0.13863,0.8516 1.24229,2.2166 1.24229,2.2166" fill="none" stroke-width="1" stroke-linecap="round"/><path d="M197.84838,172.26437h34.66995" fill="none" stroke-width="1" stroke-linecap="round"/><path d="M237.92727,172.11746h34.08233" fill="none" stroke-width="1" stroke-linecap="round"/><path d="M216.77272,174.46797v6.31699h16.74736v-6.31699z" fill="#92a9c5" stroke-width="3" stroke-linecap="round"/><path d="M210.45574,191.21532h-7.49224" fill="none" stroke-width="3" stroke-linecap="round"/><path d="M202.01047,199.63871c0,0 1.89067,1.76175 2.6012,2.42384c0.49321,0.45959 1.17282,0.60539 1.25337,1.30793c0.08055,0.70254 -0.49737,0.69583 -0.93861,1.43737c-1.05531,1.77351 -5.36885,9.02265 -5.36885,9.02265l-5.43143,-2.4529z" fill="#525f6e" stroke-width="1" stroke-linecap="round"/><path d="M209.13643,207.77185c0,0 0.07271,0.62636 -0.06234,0.78392c-0.14552,0.16977 -0.78171,0.20081 -0.78171,0.20081" fill="none" stroke-width="1.5" stroke-linecap="round"/><path d="M201.82132,217.19709c0,0 0.38267,0.3987 0.65648,0.28135c0.27382,-0.11735 0.32824,-0.70338 0.32824,-0.70338" fill="none" stroke-width="1" stroke-linecap="round"/><path d="M227.8608,227.11622c0,0 -2.74891,-8.14024 -3.42598,-13.37769c-0.68311,-5.28421 -0.17231,-12.41943 -0.17231,-12.41943c0,0 -0.50887,8.18861 0.08054,12.41428c0.60935,4.36862 3.51775,13.38285 3.51775,13.38285z" fill="none" stroke-width="1.5" stroke-linecap="butt"/><path d="M232.1736,226.72917c0,0 -2.74891,-8.14024 -3.42598,-13.37769c-0.68311,-5.28421 -0.17231,-12.41944 -0.17231,-12.41944c0,0 -0.50887,8.18861 0.08054,12.41428c0.60935,4.36862 3.51775,13.38285 3.51775,13.38285z" fill="none" stroke-width="1.5" stroke-linecap="butt"/></g></g></svg>