<svg version="1.1" xmlns="http://www.w3.org/2000/svg" xmlns:xlink="http://www.w3.org/1999/xlink" width="119.28674" height="220.51655" viewBox="0,0,119.28674,220.51655"><g transform="translate(-180.35663,-121.25879)"><g data-paper-data="{&quot;isPaintingLayer&quot;:true}" fill-rule="nonzero" stroke-linejoin="miter" stroke-miterlimit="10" stroke-dasharray="" stroke-dashoffset="0" style="mix-blend-mode: normal"><path d="M182.85663,238.04552v-114.28673h114.28674v114.28674z" fill="#f3fdfd" stroke="#000000" stroke-width="5" stroke-linecap="butt"/><path d="M182.85663,238.18023v-114.28673h114.28674v114.28674z" fill="#f3fdfd" stroke="#000000" stroke-width="5" stroke-linecap="butt"/><path d="M215.35785,171.48705c0,-13.48846 10.93456,-24.42303 24.42303,-24.42303c13.48846,0 24.42303,10.93456 24.42303,24.42303c0,13.48846 -10.93456,24.42303 -24.42303,24.42303c-13.48846,0 -24.42303,-10.93456 -24.42303,-24.42303z" fill="#ffffae" stroke="#000000" stroke-width="2.5" stroke-linecap="butt"/><path d="M250.89363,167.67331c0,-1.75309 1.42117,-3.17426 3.17426,-3.17426c1.75309,0 3.17426,1.42117 3.17426,3.17426c0,1.75309 -1.42117,3.17426 -3.17426,3.17426c-1.75309,0 -3.17426,-1.42117 -3.17426,-3.17426z" fill="#000000" stroke="none" stroke-width="0.5" stroke-linecap="butt"/><path d="M223.50095,167.67331c0,-1.75309 1.42117,-3.17426 3.17426,-3.17426c1.75309,0 3.17426,1.42117 3.17426,3.17426c0,1.75309 -1.42117,3.17426 -3.17426,3.17426c-1.75309,0 -3.17426,-1.42117 -3.17426,-3.17426z" fill="#000000" stroke="none" stroke-width="0.5" stroke-linecap="butt"/><path d="M227.28634,193.31226l-4.50856,21.69746" fill="none" stroke="#000000" stroke-width="4.5" stroke-linecap="round"/><path d="M257.56325,215.00971l-4.50857,-21.69745" data-paper-data="{&quot;index&quot;:null}" fill="none" stroke="#000000" stroke-width="4.5" stroke-linecap="round"/><path d="M214.47633,171.71834c0,0 -5.16127,0 -9.5807,0c-2.42988,0 -4.6355,0 -5.6357,0c-1.08517,0 -2.25427,0 -2.25427,0c0,0 0,-1.61097 0,-2.81786c0,-3.01049 0,-15.49818 0,-15.49818" fill="none" stroke="#000000" stroke-width="4.5" stroke-linecap="round"/><path d="M214.47633,171.71833c0,0 -4.87948,-3.09964 -9.29891,-3.09964c-2.42988,0 -4.91729,3.09964 -5.91749,3.09964c-1.08517,0 -2.25427,0 -2.25427,0c0,0 0,-1.61097 0,-2.81786c0,-3.01049 0,-15.49818 0,-15.49818" fill="none" stroke="#000000" stroke-width="4.5" stroke-linecap="round"/><path d="M282.99434,153.4023c0,0 0,12.48768 0,15.49818c0,1.20689 0,2.81786 0,2.81786c0,0 -1.16911,0 -2.25427,0c-1.0002,0 -3.20582,0 -5.6357,0c-4.41943,0 -9.5807,0 -9.5807,0" data-paper-data="{&quot;index&quot;:null}" fill="none" stroke="#000000" stroke-width="4.5" stroke-linecap="round"/><path d="M282.99434,153.40229c0,0 0,12.48769 0,15.49818c0,1.20688 0,2.81785 0,2.81785c0,0 -1.16911,0 -2.25428,0c-1.0002,0 -3.48761,-3.09964 -5.91749,-3.09964c-4.41943,0 -9.29891,3.09964 -9.29891,3.09964" data-paper-data="{&quot;index&quot;:null}" fill="none" stroke="#000000" stroke-width="4.5" stroke-linecap="round"/><path d="M253.77603,181.03687c0,0 -9.99278,3.18471 -14.99628,3.18471c-3.90594,0 -12.55579,-3.18471 -12.55579,-3.18471" fill="none" stroke="#000000" stroke-width="5" stroke-linecap="round"/><path d="M182.85663,339.27533v-86.99628h114.28674v86.99629z" fill="#f3fdfd" stroke="#000000" stroke-width="5" stroke-linecap="butt"/><text transform="translate(211.42905,141.50346) scale(0.38945,0.38945)" font-size="40" xml:space="preserve" fill="#000000" fill-rule="nonzero" stroke="none" stroke-width="1" stroke-linecap="butt" stroke-linejoin="miter" stroke-miterlimit="10" stroke-dasharray="" stroke-dashoffset="0" font-family="Sans Serif" font-weight="normal" text-anchor="start" style="mix-blend-mode: normal"><tspan x="0" dy="0">Athletic</tspan></text><text transform="translate(188.73394,267.24705) scale(0.28175,0.28175)" font-size="40" xml:space="preserve" fill="#1fd529" fill-rule="nonzero" stroke="none" stroke-width="1" stroke-linecap="butt" stroke-linejoin="miter" stroke-miterlimit="10" stroke-dasharray="" stroke-dashoffset="0" font-family="Sans Serif" font-weight="normal" text-anchor="start" style="mix-blend-mode: normal"><tspan x="0" dy="0">+15% Walkspeed</tspan></text><path d="M217.39359,159.514h44.20114" fill="none" stroke="#f70000" stroke-width="5" stroke-linecap="round"/><path d="M261.16238,156.27145h-43.33645" fill="none" stroke="#f7f7f7" stroke-width="5" stroke-linecap="round"/><path d="M220.41996,153.02891h39.22923" fill="#003aff" stroke="#002af7" stroke-width="5" stroke-linecap="round"/></g></g></svg>