<svg version="1.1" xmlns="http://www.w3.org/2000/svg" xmlns:xlink="http://www.w3.org/1999/xlink" width="153.39063" height="153.39062" viewBox="0,0,153.39063,153.39062"><g transform="translate(-163.30469,-103.30469)"><g data-paper-data="{&quot;isPaintingLayer&quot;:true}" fill-rule="nonzero" stroke="#000000" stroke-linejoin="miter" stroke-miterlimit="10" stroke-dasharray="" stroke-dashoffset="0" style="mix-blend-mode: normal"><path d="M219.51732,202.05543c0,-7.37206 5.97621,-13.3483 13.34831,-13.3483c7.37206,0 13.3483,5.97621 13.3483,13.3483c0,7.37206 -5.9762,13.3483 -13.3483,13.3483c-7.37206,0 -13.34831,-5.97621 -13.34831,-13.3483z" fill="#ff9797" stroke-width="2" stroke-linecap="butt"/><path d="M219.53872,161.22325c0,-7.37203 5.9762,-13.3483 13.3483,-13.3483c7.37203,0 13.3483,5.9762 13.3483,13.3483c0,7.37203 -5.9762,13.34831 -13.3483,13.34831c-7.37203,0 -13.3483,-5.97621 -13.3483,-13.34831z" fill="#ff9797" stroke-width="2" stroke-linecap="butt"/><path d="M164.30469,180c0,-41.80539 33.8899,-75.69531 75.69531,-75.69531c41.80539,0 75.69532,33.8899 75.69532,75.69531c0,41.80539 -33.8899,75.69531 -75.69531,75.69531c-41.80539,0 -75.69531,-33.8899 -75.69531,-75.69531z" fill="#63e677" stroke-width="2" stroke-linecap="butt"/><path d="M287.13298,147.93877c0,-2.86969 2.32635,-5.19604 5.19604,-5.19604c2.86969,0 5.19604,2.32636 5.19604,5.19604c0,2.86969 -2.32636,5.19604 -5.19604,5.19604c-2.86969,0 -5.19604,-2.32635 -5.19604,-5.19604z" fill="#000000" stroke-width="4" stroke-linecap="butt"/><path d="M287.13298,202.05543c0,-2.86969 2.32635,-5.19604 5.19604,-5.19604c2.86969,0 5.19604,2.32635 5.19604,5.19604c0,2.86969 -2.32636,5.19604 -5.19604,5.19604c-2.86969,0 -5.19604,-2.32636 -5.19604,-5.19604z" fill="#000000" stroke-width="4.5" stroke-linecap="butt"/><path d="M263.52667,128.96621l16.03666,31.50057" fill="none" stroke-width="2.5" stroke-linecap="round"/><path d="M264.67214,214.30412l18.32761,-26.34593" fill="none" stroke-width="2.5" stroke-linecap="round"/></g></g></svg>