<svg version="1.1" xmlns="http://www.w3.org/2000/svg" xmlns:xlink="http://www.w3.org/1999/xlink" width="187.46663" height="151.58147" viewBox="0,0,187.46663,151.58147"><g transform="translate(-75.51983,-104.21094)"><g data-paper-data="{&quot;isPaintingLayer&quot;:true}" fill-rule="nonzero" stroke-linejoin="miter" stroke-miterlimit="10" stroke-dasharray="" stroke-dashoffset="0" style="mix-blend-mode: normal"><path d="M131.60466,172.66116h-44.08483" fill="none" stroke="#000000" stroke-width="24" stroke-linecap="round"/><path d="M87.51984,172.66116h44.08484" fill="none" stroke="#ff0000" stroke-width="15.5" stroke-linecap="round"/><path d="M219.51732,202.05543c0,-7.37206 5.97621,-13.3483 13.34831,-13.3483c7.37206,0 13.3483,5.97621 13.3483,13.3483c0,7.37206 -5.9762,13.3483 -13.3483,13.3483c-7.37206,0 -13.34831,-5.97621 -13.34831,-13.3483z" fill="#ff9797" stroke="#000000" stroke-width="2" stroke-linecap="butt"/><path d="M219.53872,161.22325c0,-7.37203 5.9762,-13.3483 13.3483,-13.3483c7.37203,0 13.3483,5.9762 13.3483,13.3483c0,7.37203 -5.9762,13.34831 -13.3483,13.34831c-7.37203,0 -13.3483,-5.97621 -13.3483,-13.34831z" fill="#ff9797" stroke="#000000" stroke-width="2" stroke-linecap="butt"/><path d="M114.37998,180.00709c0,-40.5588 32.87934,-73.43816 73.43816,-73.43816c40.5588,0 73.43817,32.87934 73.43817,73.43816c0,40.5588 -32.87934,73.43816 -73.43816,73.43816c-40.5588,0 -73.43816,-32.87934 -73.43816,-73.43816z" fill="#63e677" stroke="#000000" stroke-width="2" stroke-linecap="butt"/><path d="M209.3084,147.93877c0,-2.86969 2.32635,-5.19604 5.19604,-5.19604c2.86969,0 5.19604,2.32636 5.19604,5.19604c0,2.86969 -2.32636,5.19604 -5.19604,5.19604c-2.86969,0 -5.19604,-2.32635 -5.19604,-5.19604z" fill="#000000" stroke="#000000" stroke-width="4" stroke-linecap="butt"/><path d="M209.3084,202.05543c0,-2.86969 2.32635,-5.19604 5.19604,-5.19604c2.86969,0 5.19604,2.32635 5.19604,5.19604c0,2.86969 -2.32636,5.19604 -5.19604,5.19604c-2.86969,0 -5.19604,-2.32636 -5.19604,-5.19604z" fill="#000000" stroke="#000000" stroke-width="4.5" stroke-linecap="butt"/><path d="M154.2271,246.91978c-9.81345,-5.07399 -19.64939,-15.39629 -24.42387,-21.33899c-4.3778,-5.44895 -10.45586,-14.01428 -12.77625,-23.86917c-3.32035,-14.10179 -1.89923,-29.36764 -1.89923,-29.36764c0,0 -0.30577,-9.10898 2.53343,-17.1255c2.56185,-7.23338 6.59224,-13.92691 10.26195,-18.43543c4.0776,-5.00962 10.37078,-12.42726 17.74198,-17.40502c8.19592,-5.53471 16.93266,-8.74836 16.93266,-8.74836c0,0 21.61883,-6.29002 30.16579,-5.31632c3.51713,0.40068 10.50777,1.27457 15.65194,3.18523c9.23208,3.42903 16.639,8.54858 16.639,8.54858l-39.46088,15.83593c0,0 -8.01971,9.42846 -7.79201,13.98256c0.24128,4.82561 9.20132,14.2038 9.20132,14.2038l31.1461,12.88189l-0.28152,8.25788l-29.45524,7.75126c0,0 -5.66791,10.9799 -4.06528,15.04814c1.43151,3.63386 13.22583,8.20559 13.22583,8.20559l38.49598,21.89314c0,0 -11.30531,9.44858 -19.57123,13.2731c-7.36796,3.40905 -35.13192,6.40863 -35.13192,6.40863c0,0 -13.54769,-0.84216 -27.13857,-7.86928z" fill="#a1b7b7" stroke="#000000" stroke-width="2" stroke-linecap="round"/><path d="M261.98646,178.35851c-0.9632,-10.50764 -4.52648,-26.72853 -12.16735,-37.86334c-10.04887,-14.64389 -24.64368,-22.99756 -24.64368,-22.99756c0,0 -33.20935,-8.3899 -35.42576,-7.61316c-1.79483,0.62901 23.12322,11.92462 23.12322,11.92462c0,0 15.21523,38.26568 15.21523,56.44358c0,17.27865 -11.77953,45.64568 -11.77953,45.64568c0,0 -29.85751,19.1705 -26.9035,20.88218c3.50591,2.03147 45.21532,-8.13469 45.21532,-8.13469c0,0 10.1745,-7.68843 17.56802,-20.92048c5.83569,-10.44404 10.78171,-26.63578 9.79803,-37.36683z" fill="#a1b7b7" stroke="#000000" stroke-width="2" stroke-linecap="round"/><path d="M229.6687,172.03853h28.94979" fill="none" stroke="#000000" stroke-width="5" stroke-linecap="round"/><path d="M228.84846,184.70362h30.59028" fill="none" stroke="#000000" stroke-width="5" stroke-linecap="round"/><path d="M226.1297,197.46841h31.42609" fill="none" stroke="#000000" stroke-width="5" stroke-linecap="round"/><path d="M222.47382,210.07898c0,0 20.92849,0 24.29482,0c0.88324,0 5.9182,0 5.9182,0" fill="none" stroke="#000000" stroke-width="5" stroke-linecap="round"/><path d="M218.42373,220.79982l28.69669,0.30326" fill="none" stroke="#000000" stroke-width="5" stroke-linecap="round"/><path d="M226.25976,159.57192h29.90975" data-paper-data="{&quot;index&quot;:null}" fill="none" stroke="#000000" stroke-width="5" stroke-linecap="round"/><path d="M222.30061,146.96135h29.30322" data-paper-data="{&quot;index&quot;:null}" fill="none" stroke="#000000" stroke-width="5" stroke-linecap="round"/><path d="M219.46358,136.24051h24.45096" data-paper-data="{&quot;index&quot;:null}" fill="none" stroke="#000000" stroke-width="5" stroke-linecap="round"/></g></g></svg>