<svg version="1.1" xmlns="http://www.w3.org/2000/svg" xmlns:xlink="http://www.w3.org/1999/xlink" width="87.52814" height="87.52814" viewBox="0,0,87.52814,87.52814"><g transform="translate(-196.23593,-136.23593)"><g data-paper-data="{&quot;isPaintingLayer&quot;:true}" fill-rule="nonzero" stroke="#000000" stroke-width="2" stroke-linejoin="miter" stroke-miterlimit="10" stroke-dasharray="" stroke-dashoffset="0" style="mix-blend-mode: normal"><path d="M219.51732,202.05543c0,-7.37206 5.97621,-13.3483 13.34831,-13.3483c7.37206,0 13.3483,5.97621 13.3483,13.3483c0,7.37206 -5.9762,13.3483 -13.3483,13.3483c-7.37206,0 -13.34831,-5.97621 -13.34831,-13.3483z" fill="#ff9797" stroke-linecap="butt"/><path d="M219.53872,161.22325c0,-7.37203 5.9762,-13.3483 13.3483,-13.3483c7.37203,0 13.3483,5.9762 13.3483,13.3483c0,7.37203 -5.9762,13.34831 -13.3483,13.34831c-7.37203,0 -13.3483,-5.97621 -13.3483,-13.34831z" fill="#ff9797" stroke-linecap="butt"/><path d="M197.23593,180c0,-23.61795 19.1461,-42.76407 42.76407,-42.76407c23.61795,0 42.76407,19.1461 42.76407,42.76407c0,23.61795 -19.1461,42.76407 -42.76407,42.76407c-23.61795,0 -42.76407,-19.1461 -42.76407,-42.76407z" fill="#63e677" stroke-linecap="butt"/><path d="M256.91062,161.39285c0,-2.25337 1.82672,-4.08009 4.08009,-4.08009c2.25337,0 4.08009,1.82673 4.08009,4.08009c0,2.25337 -1.82673,4.08009 -4.08009,4.08009c-2.25337,0 -4.08009,-1.82672 -4.08009,-4.08009z" fill="#000000" stroke-linecap="butt"/><path d="M256.91062,203.88694c0,-2.25337 1.82672,-4.08009 4.08009,-4.08009c2.25337,0 4.08009,1.82672 4.08009,4.08009c0,2.25337 -1.82673,4.08009 -4.08009,4.08009c-2.25337,0 -4.08009,-1.82673 -4.08009,-4.08009z" fill="#000000" stroke-linecap="butt"/><path d="M238.3742,146.495l12.59249,24.73523" fill="none" stroke-linecap="round"/><path d="M253.66508,192.81735l-14.39141,20.68765" fill="none" stroke-linecap="round"/></g></g></svg>