<svg version="1.1" xmlns="http://www.w3.org/2000/svg" xmlns:xlink="http://www.w3.org/1999/xlink" width="150.70307" height="151.07758" viewBox="0,0,150.70307,151.07758"><g transform="translate(-111.55324,-104.45624)"><g data-paper-data="{&quot;isPaintingLayer&quot;:true}" fill-rule="nonzero" stroke="#000000" stroke-linejoin="miter" stroke-miterlimit="10" stroke-dasharray="" stroke-dashoffset="0" style="mix-blend-mode: normal"><path d="M219.51732,202.05543c0,-7.37206 5.97621,-13.3483 13.34831,-13.3483c7.37206,0 13.3483,5.97621 13.3483,13.3483c0,7.37206 -5.9762,13.3483 -13.3483,13.3483c-7.37206,0 -13.34831,-5.97621 -13.34831,-13.3483z" fill="#ff9797" stroke-width="2" stroke-linecap="butt"/><path d="M219.53872,161.22325c0,-7.37203 5.9762,-13.3483 13.3483,-13.3483c7.37203,0 13.3483,5.9762 13.3483,13.3483c0,7.37203 -5.9762,13.34831 -13.3483,13.34831c-7.37203,0 -13.3483,-5.97621 -13.3483,-13.34831z" fill="#ff9797" stroke-width="2" stroke-linecap="butt"/><path d="M114.37998,180.00709c0,-40.5588 32.87934,-73.43816 73.43816,-73.43816c40.5588,0 73.43817,32.87934 73.43817,73.43816c0,40.5588 -32.87934,73.43816 -73.43816,73.43816c-40.5588,0 -73.43816,-32.87934 -73.43816,-73.43816z" fill="#63e677" stroke-width="2" stroke-linecap="butt"/><path d="M209.3084,147.93877c0,-2.86969 2.32635,-5.19604 5.19604,-5.19604c2.86969,0 5.19604,2.32636 5.19604,5.19604c0,2.86969 -2.32636,5.19604 -5.19604,5.19604c-2.86969,0 -5.19604,-2.32635 -5.19604,-5.19604z" fill="#000000" stroke-width="4" stroke-linecap="butt"/><path d="M209.3084,202.05543c0,-2.86969 2.32635,-5.19604 5.19604,-5.19604c2.86969,0 5.19604,2.32635 5.19604,5.19604c0,2.86969 -2.32636,5.19604 -5.19604,5.19604c-2.86969,0 -5.19604,-2.32636 -5.19604,-5.19604z" fill="#000000" stroke-width="4.5" stroke-linecap="butt"/><path d="M189.55813,106.45074v147.09852c0,0 -47.75323,-6.02253 -61.60437,-18.52533c-10.79545,-9.74456 -14.64394,-50.30058 -14.64394,-50.30058c0,0 3.65684,-46.09088 15.72873,-58.48325c13.23676,-13.58818 60.51959,-19.78935 60.51959,-19.78935z" fill="#9ebebd" stroke-width="3.5" stroke-linecap="round"/><path d="M173.3051,174.84175c0,-9.42542 7.64081,-17.06623 17.06623,-17.06623c9.42542,0 17.06623,7.64081 17.06623,17.06623c0,9.42542 -7.64081,17.06623 -17.06623,17.06623c-9.42542,0 -17.06623,-7.64081 -17.06623,-17.06623z" fill="#ffe900" stroke-width="3.5" stroke-linecap="butt"/><path d="M125.34595,131.11024l55.3897,30.16761" fill="none" stroke-width="3.5" stroke-linecap="round"/><path d="M180.73566,190.45635l-59.84066,30.16761" data-paper-data="{&quot;index&quot;:null}" fill="none" stroke-width="3.5" stroke-linecap="round"/></g></g></svg>