<svg version="1.1" xmlns="http://www.w3.org/2000/svg" xmlns:xlink="http://www.w3.org/1999/xlink" width="65.75478" height="65.75478" viewBox="0,0,65.75478,65.75478"><g transform="translate(-207.12261,-147.12261)"><g data-paper-data="{&quot;isPaintingLayer&quot;:true}" fill-rule="nonzero" stroke="#000000" stroke-linejoin="miter" stroke-miterlimit="10" stroke-dasharray="" stroke-dashoffset="0" style="mix-blend-mode: normal"><path d="M208.12261,180c0,-17.6054 14.27197,-31.87739 31.87739,-31.87739c17.6054,0 31.87739,14.27197 31.87739,31.87739c0,17.6054 -14.27197,31.87739 -31.87739,31.87739c-17.6054,0 -31.87739,-14.27197 -31.87739,-31.87739z" fill="#63e677" stroke-width="2" stroke-linecap="butt"/><path d="M249.56767,167.13557c0,-1.55791 1.26294,-2.82085 2.82085,-2.82085c1.55791,0 2.82085,1.26295 2.82085,2.82085c0,1.55791 -1.26295,2.82085 -2.82085,2.82085c-1.55791,0 -2.82085,-1.26294 -2.82085,-2.82085z" fill="#000000" stroke-width="1.5" stroke-linecap="butt"/><path d="M249.56767,196.51472c0,-1.55791 1.26294,-2.82085 2.82085,-2.82085c1.55791,0 2.82085,1.26294 2.82085,2.82085c0,1.55791 -1.26295,2.82085 -2.82085,2.82085c-1.55791,0 -2.82085,-1.26295 -2.82085,-2.82085z" fill="#000000" stroke-width="1.5" stroke-linecap="butt"/><path d="M245.45822,173.93684l-8.70608,-17.10121" fill="none" stroke-width="1.5" stroke-linecap="round"/><path d="M247.3238,188.86154l-9.9498,14.30283" fill="none" stroke-width="1.5" stroke-linecap="round"/></g></g></svg>