<svg version="1.1" xmlns="http://www.w3.org/2000/svg" xmlns:xlink="http://www.w3.org/1999/xlink" width="199.17669" height="199.17669" viewBox="0,0,199.17669,199.17669"><g transform="translate(-140.41166,-80.41166)"><g data-paper-data="{&quot;isPaintingLayer&quot;:true}" fill-rule="nonzero" stroke="#000000" stroke-linejoin="miter" stroke-miterlimit="10" stroke-dasharray="" stroke-dashoffset="0" style="mix-blend-mode: normal"><path d="M145.16167,274.83835v-189.67669h189.67669v189.67669z" fill="#ffffff" stroke-width="9.5" stroke-linecap="butt"/><path d="" fill="#92b7b7" stroke-width="2" stroke-linecap="butt"/><path d="" fill="#536565" stroke-width="2" stroke-linecap="butt"/><path d="" fill="#536565" stroke-width="2" stroke-linecap="butt"/><path d="" fill="#536565" stroke-width="2" stroke-linecap="butt"/><g><path d="M225.69197,247.64387c0,0 24.50793,-46.55713 24.50793,-69.38827c0,-22.24977 -24.50793,-65.89947 -24.50793,-65.89947h11.76776c0,0 24.5079,43.0814 24.5079,65.12419c0,23.01146 -24.5079,70.16355 -24.5079,70.16355z" fill="#a07045" stroke-width="2.5" stroke-linecap="butt"/><path d="M225.69197,247.06488c0,0 -36.94623,-44.1056 -36.94623,-66.13545c0,-22.53267 36.94623,-67.58614 36.94623,-67.58614" fill="none" stroke-width="2.5" stroke-linecap="round"/><path d="M191.42572,180.40279h92.82674" fill="none" stroke-width="2.5" stroke-linecap="round"/><path d="M296.47038,179.9444l-11.28844,5.98978v-10.82769z" fill="#c1eaea" stroke-width="1" stroke-linecap="round"/><path d="M183.52962,188.45058l8.08249,-8.08249l10.60827,0.84193l-7.91411,7.91412z" fill="#ff0000" stroke-width="1" stroke-linecap="round"/><path d="M194.30627,170.87585l7.91411,7.91412l-10.60827,0.84193l-8.08249,-8.08249z" data-paper-data="{&quot;index&quot;:null}" fill="#ff0000" stroke-width="1" stroke-linecap="round"/></g></g></g></svg>