<svg version="1.1" xmlns="http://www.w3.org/2000/svg" xmlns:xlink="http://www.w3.org/1999/xlink" width="371.47493" height="371.47493" viewBox="0,0,371.47493,371.47493"><g transform="translate(-54.26256,5.73745)"><g data-paper-data="{&quot;isPaintingLayer&quot;:true}" fill-rule="nonzero" stroke-linejoin="miter" stroke-miterlimit="10" stroke-dasharray="" stroke-dashoffset="0" style="mix-blend-mode: normal"><path d="M54.26256,365.73747v-371.47493h371.47493v371.47493z" fill="none" stroke="none" stroke-width="0" stroke-linecap="butt"/><path d="M295.47523,177.579c0,-6.29954 5.10679,-11.40633 11.40633,-11.40633c6.29954,0 11.40633,5.10679 11.40633,11.40633c0,6.29954 -5.10679,11.40633 -11.40633,11.40633c-6.29954,0 -11.40633,-5.10679 -11.40633,-11.40633z" fill="#ffffae" stroke="#000000" stroke-width="2.5" stroke-linecap="butt"/><path d="M264.22342,190.41908c0,-6.29954 5.10679,-11.40633 11.40633,-11.40633c6.29954,0 11.40633,5.10679 11.40633,11.40633c0,6.29954 -5.10679,11.40633 -11.40633,11.40633c-6.29954,0 -11.40633,-5.10679 -11.40633,-11.40633z" fill="#ffffae" stroke="#000000" stroke-width="2.5" stroke-linecap="butt"/><g stroke="#000000"><path d="M290.44608,219.22659c0,0 11.04312,-20.97835 11.04312,-31.26592c0,-10.02561 -11.04312,-29.69389 -11.04312,-29.69389h5.30248c0,0 11.04311,19.41221 11.04311,29.34455c0,10.36882 -11.04311,31.61526 -11.04311,31.61526z" fill="#a07045" stroke-width="2.5" stroke-linecap="butt"/><path d="M290.44608,218.9657c0,0 -16.64774,-19.87371 -16.64774,-29.80022c0,-10.15308 16.64774,-30.45389 16.64774,-30.45389" fill="none" stroke-width="2.5" stroke-linecap="round"/><path d="M275.00592,188.92818h41.82715" fill="none" stroke-width="2.5" stroke-linecap="round"/><path d="M322.33839,188.72163l-5.0865,2.69896v-4.87889z" fill="#c1eaea" stroke-width="1" stroke-linecap="round"/><path d="M271.44799,192.55446l3.64192,-3.64192l4.78002,0.37937l-3.56605,3.56605z" fill="#ff0000" stroke-width="1" stroke-linecap="round"/><path d="M276.30388,184.6354l3.56605,3.56605l-4.78002,0.37937l-3.64192,-3.64192z" data-paper-data="{&quot;index&quot;:null}" fill="#ff0000" stroke-width="1" stroke-linecap="round"/></g></g></g></svg>