<svg version="1.1" xmlns="http://www.w3.org/2000/svg" xmlns:xlink="http://www.w3.org/1999/xlink" width="99.41469" height="99.41469" viewBox="0,0,99.41469,99.41469"><g transform="translate(-190.29266,-130.29266)"><g data-paper-data="{&quot;isPaintingLayer&quot;:true}" fill-rule="nonzero" stroke="#000000" stroke-linejoin="miter" stroke-miterlimit="10" stroke-dasharray="" stroke-dashoffset="0" style="mix-blend-mode: normal"><path d="" fill="#92b7b7" stroke-width="2" stroke-linecap="butt"/><path d="" fill="#536565" stroke-width="2" stroke-linecap="butt"/><path d="" fill="#536565" stroke-width="2" stroke-linecap="butt"/><path d="" fill="#536565" stroke-width="2" stroke-linecap="butt"/><path d="M240,228.29313l-48.29313,-48.29313l48.29313,-48.29313l48.29313,48.29313z" fill="#ffffff" stroke-width="2" stroke-linecap="butt"/><g><path d="M229.96407,163.21779c-2.03269,1.18319 -1.76219,5.438 0.60419,9.50338c2.36638,4.06538 5.93253,6.40186 7.96522,5.21868c2.03269,-1.18319 1.76219,-5.438 -0.60419,-9.50338c-2.36638,-4.06538 -5.93253,-6.40186 -7.96522,-5.21868z" fill="#8aca89" stroke-width="2" stroke-linecap="butt"/><path d="M248.99579,168.44679c-2.02338,-1.19904 -5.60769,1.10949 -8.00577,5.15625c-2.39808,4.04676 -2.70183,8.29933 -0.67845,9.49837c2.02338,1.19904 5.60769,-1.10949 8.00577,-5.15626c2.39808,-4.04676 2.70183,-8.29932 0.67845,-9.49836z" fill="#8aca89" stroke-width="2" stroke-linecap="butt"/><path d="M240.59509,177.02558l2.00237,2.00237h2.19932l1.72335,-1.72335v-2.64247l-2.14187,-2.14188h-1.15711l-1.53049,1.5305z" fill="#c93535" stroke-width="1.5" stroke-linecap="round"/><path d="M256.43229,178.29863c-0.5829,-2.27859 -4.74976,-3.18071 -9.30695,-2.01491c-4.55719,1.1658 -7.779,3.95803 -7.1961,6.23662c0.5829,2.27859 4.74976,3.1807 9.30695,2.01491c4.55719,-1.1658 7.779,-3.95802 7.1961,-6.23662z" fill="#8aca89" stroke-width="2" stroke-linecap="butt"/><path d="M239.02749,179.18751c-0.5829,2.27859 -4.74977,3.1807 -9.30696,2.0149c-4.55719,-1.1658 -7.779,-3.95802 -7.1961,-6.23662c0.5829,-2.27859 4.74977,-3.18071 9.30696,-2.01491c4.55719,1.1658 7.779,3.95803 7.1961,6.23663z" data-paper-data="{&quot;index&quot;:null}" fill="#8aca89" stroke-width="2" stroke-linecap="butt"/><path d="M236.14552,177.07665c0,5.8288 1.32637,10.55398 2.96252,10.55398c1.63615,0 2.96252,-4.72518 2.96252,-10.55398c0,-5.8288 -1.32637,-10.55398 -2.96252,-10.55398c-1.63615,0 -2.96252,4.72518 -2.96252,10.55398z" fill="#8aca89" stroke-width="2" stroke-linecap="butt"/><path d="M233.92363,200.03618l-1.48126,-13.88681h13.33134l-1.48126,13.88681z" fill="#c96464" stroke-width="2" stroke-linecap="butt"/><path d="M225.96343,179.8531l-2.82716,2.82716" fill="none" stroke-width="2" stroke-linecap="round"/><path d="M230.32816,182.13467v3.47195" fill="none" stroke-width="2" stroke-linecap="round"/><path d="M222.19389,175.28998h-3.67034" fill="none" stroke-width="2" stroke-linecap="round"/><path d="M224.17785,172.71082l-3.17435,-3.17435" fill="none" stroke-width="2" stroke-linecap="round"/><path d="M228.34419,168.64368h-2.87676" fill="none" stroke-width="2" stroke-linecap="round"/><path d="M228.44339,163.48537l-2.97595,-2.97595" fill="none" stroke-width="2" stroke-linecap="round"/><path d="M233.20491,162.98938l3.02555,-3.02555" fill="none" stroke-width="2" stroke-linecap="round"/><path d="M241.23998,167.4533l2.67836,-2.67836" fill="none" stroke-width="2" stroke-linecap="round"/><path d="M247.19188,167.4533v-3.37275" fill="none" stroke-width="2" stroke-linecap="round"/><path d="M250.36623,169.33808l2.77756,-2.77756" fill="none" stroke-width="2" stroke-linecap="round"/><path d="M250.36623,172.41323h3.57114" fill="none" stroke-width="2" stroke-linecap="round"/><path d="M255.32615,176.77796l2.97595,-2.97595" fill="none" stroke-width="2" stroke-linecap="round"/><path d="M256.71493,179.15872h4.76152" fill="none" stroke-width="2" stroke-linecap="round"/><path d="M254.53256,182.72986l3.12475,3.12475" fill="none" stroke-width="2" stroke-linecap="round"/><path d="M250.06864,184.41623v4.06713" fill="none" stroke-width="2" stroke-linecap="round"/><path d="M235.62807,177.90972h-4.308" fill="none" stroke-width="2" stroke-linecap="round"/><path d="M236.08154,173.37499l-4.13794,-4.13794" fill="none" stroke-width="2" stroke-linecap="round"/><path d="M242.89647,181.08403h3.51442" fill="none" stroke-width="2" stroke-linecap="round"/></g></g></g></svg>