<svg version="1.1" xmlns="http://www.w3.org/2000/svg" xmlns:xlink="http://www.w3.org/1999/xlink" width="199.17669" height="199.17669" viewBox="0,0,199.17669,199.17669"><g transform="translate(-140.41167,-80.41166)"><g data-paper-data="{&quot;isPaintingLayer&quot;:true}" fill-rule="nonzero" stroke-linejoin="miter" stroke-miterlimit="10" stroke-dasharray="" stroke-dashoffset="0" style="mix-blend-mode: normal"><path d="M145.16167,274.83835v-189.67669h189.67669v189.67669z" fill="#ffffff" stroke="#000000" stroke-width="9.5" stroke-linecap="butt"/><path d="" fill="#92b7b7" stroke="#000000" stroke-width="2" stroke-linecap="butt"/><path d="" fill="#536565" stroke="#000000" stroke-width="2" stroke-linecap="butt"/><path d="" fill="#536565" stroke="#000000" stroke-width="2" stroke-linecap="butt"/><path d="" fill="#536565" stroke="#000000" stroke-width="2" stroke-linecap="butt"/><path d="M180.25844,180.00002c0,-32.99437 26.74721,-59.74161 59.74161,-59.74161c32.99437,0 59.7416,26.74721 59.7416,59.74161c0,32.99437 -26.74721,59.74161 -59.7416,59.74161c-32.99437,0 -59.74161,-26.74721 -59.74161,-59.74161z" fill="#ffffae" stroke="#000000" stroke-width="6.5" stroke-linecap="butt"/><path d="M270.21896,168.2425c0,-4.28828 3.47636,-7.76461 7.76461,-7.76461c4.28827,0 7.76461,3.47636 7.76461,7.76461c0,4.28827 -3.47635,7.76461 -7.76461,7.76461c-4.28828,0 -7.76461,-3.47635 -7.76461,-7.76461z" fill="#000000" stroke="none" stroke-width="0.5" stroke-linecap="butt"/><path d="M271.56147,197.77768c0,-4.28828 3.47635,-7.76461 7.76461,-7.76461c4.28828,0 7.76461,3.47635 7.76461,7.76461c0,4.28827 -3.47635,7.76461 -7.76461,7.76461c-4.28827,0 -7.76461,-3.47636 -7.76461,-7.76461z" fill="#000000" stroke="none" stroke-width="0.5" stroke-linecap="butt"/><path d="M148.77256,218.38189l34.07961,2.82048v-86.0245l-33.37449,2.11536z" fill="#ffd56b" stroke="#000000" stroke-width="3" stroke-linecap="round"/><path d="M184.74443,221.90749l26.99988,26.0894v-132.56234l-28.42092,20.44845z" fill="#ffd56b" stroke="#000000" stroke-width="3" stroke-linecap="round"/><path d="M174.054,205.96512v-57.2476" fill="none" stroke="#000000" stroke-width="3" stroke-linecap="round"/><path d="M161.36365,205.96512v-57.2476" fill="none" stroke="#000000" stroke-width="3" stroke-linecap="round"/><path d="M156.61096,199.21849v-10.26185h27.24699v10.26185z" fill="#af8c33" stroke="#000000" stroke-width="3" stroke-linecap="butt"/><path d="M156.61095,183.29493v-10.26185h27.247v10.26185z" fill="#af8c33" stroke="#000000" stroke-width="3" stroke-linecap="butt"/><path d="M156.61095,215.14206v-10.26185h27.247v10.26185z" fill="#af8c33" stroke="#000000" stroke-width="3" stroke-linecap="butt"/><path d="M156.61095,167.37136v-10.26185h27.247v10.26185z" fill="#af8c33" stroke="#000000" stroke-width="3" stroke-linecap="butt"/><path d="M156.61095,151.44779v-10.26185h27.247v10.26185z" fill="#af8c33" stroke="#000000" stroke-width="3" stroke-linecap="butt"/></g></g></svg>