<svg version="1.1" xmlns="http://www.w3.org/2000/svg" xmlns:xlink="http://www.w3.org/1999/xlink" width="199.17669" height="199.17669" viewBox="0,0,199.17669,199.17669"><g transform="translate(-140.41168,-80.41166)"><g data-paper-data="{&quot;isPaintingLayer&quot;:true}" fill-rule="nonzero" stroke-linejoin="miter" stroke-miterlimit="10" stroke-dasharray="" stroke-dashoffset="0" style="mix-blend-mode: normal"><path d="M145.16169,274.83835v-189.67669h189.67669v189.67669z" fill="#ffffff" stroke="#000000" stroke-width="9.5" stroke-linecap="butt"/><path d="" fill="#92b7b7" stroke="#000000" stroke-width="2" stroke-linecap="butt"/><path d="" fill="#536565" stroke="#000000" stroke-width="2" stroke-linecap="butt"/><path d="" fill="#536565" stroke="#000000" stroke-width="2" stroke-linecap="butt"/><path d="" fill="#536565" stroke="#000000" stroke-width="2" stroke-linecap="butt"/><path d="M233.28012,179.19264c0,-24.19798 19.61633,-43.81433 43.81433,-43.81433c24.19798,0 43.81432,19.61633 43.81432,43.81433c0,24.19798 -19.61633,43.81433 -43.81432,43.81433c-24.19798,0 -43.81433,-19.61633 -43.81433,-43.81433z" fill="#ffffae" stroke="#000000" stroke-width="5" stroke-linecap="butt"/><path d="M299.25691,170.56971c0,-3.14501 2.54955,-5.69454 5.69454,-5.69454c3.14501,0 5.69454,2.54955 5.69454,5.69454c0,3.14501 -2.54955,5.69454 -5.69454,5.69454c-3.14501,0 -5.69454,-2.54955 -5.69454,-5.69454z" fill="#000000" stroke="none" stroke-width="0.5" stroke-linecap="butt"/><path d="M300.24148,192.23073c0,-3.14501 2.54955,-5.69454 5.69454,-5.69454c3.14501,0 5.69454,2.54955 5.69454,5.69454c0,3.14501 -2.54955,5.69454 -5.69454,5.69454c-3.14501,0 -5.69454,-2.54955 -5.69454,-5.69454z" fill="#000000" stroke="none" stroke-width="0.5" stroke-linecap="butt"/><path d="M247.6471,213.38838c0,0 8.34222,12.69299 8.34222,11.09399c0,-0.61116 -4.49196,-13.25252 -4.49196,-14.45848c0,-10.43864 0,-41.95648 0,-55.99794c0,-1.50611 2.24598,-15.6737 2.24598,-16.75348c0,-2.08522 -6.09624,8.18399 -6.09624,8.18399l-88.55587,34.19546z" fill="#0008ff" stroke="#000000" stroke-width="2.5" stroke-linecap="round"/></g></g></svg>