<svg version="1.1" xmlns="http://www.w3.org/2000/svg" xmlns:xlink="http://www.w3.org/1999/xlink" width="199.17669" height="199.17669" viewBox="0,0,199.17669,199.17669"><g transform="translate(-140.41171,-80.41166)"><g data-paper-data="{&quot;isPaintingLayer&quot;:true}" fill-rule="nonzero" stroke-linejoin="miter" stroke-miterlimit="10" stroke-dasharray="" stroke-dashoffset="0" style="mix-blend-mode: normal"><path d="M145.16171,274.83835v-189.67669h189.67669v189.67669z" fill="#ffffff" stroke="#000000" stroke-width="9.5" stroke-linecap="butt"/><path d="" fill="#92b7b7" stroke="#000000" stroke-width="2" stroke-linecap="butt"/><path d="" fill="#536565" stroke="#000000" stroke-width="2" stroke-linecap="butt"/><path d="" fill="#536565" stroke="#000000" stroke-width="2" stroke-linecap="butt"/><path d="" fill="#536565" stroke="#000000" stroke-width="2" stroke-linecap="butt"/><path d="M180.25843,180.00003c0,-32.99437 26.74721,-59.74161 59.74161,-59.74161c32.99437,0 59.7416,26.74721 59.7416,59.74161c0,32.99437 -26.74721,59.74161 -59.7416,59.74161c-32.99437,0 -59.74161,-26.74721 -59.74161,-59.74161z" fill="#ffffae" stroke="#000000" stroke-width="6.5" stroke-linecap="butt"/><path d="M290.67101,157.77308c0,0 0,10.4603 0,17.05705c0,2.13601 -7.09989,3.87585 -7.09989,7.09989c0,3.30961 7.09989,8.1196 7.09989,11.53732c0,7.45921 0,13.9231 0,13.9231c0,0 -13.19088,6.92171 -22.40784,7.77415c-9.21696,0.85244 -17.14886,-4.11572 -17.14886,-4.11572v-64.25106c0,0 12.88686,-3.50604 20.57863,-1.37191c7.69177,2.13413 18.97807,12.34718 18.97807,12.34718z" fill="#ffffce" stroke="#000000" stroke-width="6.5" stroke-linecap="round"/><path d="M262.44891,164.92761c0,-4.66336 3.78042,-8.44375 8.44375,-8.44375c4.66335,0 8.44375,3.78042 8.44375,8.44375c0,4.66335 -3.78041,8.44375 -8.44375,8.44375c-4.66336,0 -8.44375,-3.78041 -8.44375,-8.44375z" fill="#000000" stroke="none" stroke-width="0.5" stroke-linecap="butt"/><path d="M262.44891,199.10398c0,-4.66336 3.78041,-8.44375 8.44375,-8.44375c4.66336,0 8.44375,3.78041 8.44375,8.44375c0,4.66335 -3.78041,8.44375 -8.44375,8.44375c-4.66335,0 -8.44375,-3.78042 -8.44375,-8.44375z" fill="#000000" stroke="none" stroke-width="0.5" stroke-linecap="butt"/><path d="M290.82401,144.36837c0,0 -0.59418,18.97277 -0.59418,29.69181c0,2.54089 -6.7728,4.20626 -6.7728,7.81477c0,4.0123 6.7728,10.05758 6.7728,14.58757c0,15.35567 -7.13012,27.39693 -7.13012,27.39693c0,0 12.25923,-1.81613 17.43297,-9.42902c4.24389,-6.24466 8.51782,-13.79101 10.01556,-20.57283c3.32364,-15.04957 -1.75963,-24.33555 -5.93996,-31.24218c-3.76444,-6.21951 -13.78426,-18.24704 -13.78426,-18.24704z" fill="#7bffff" stroke="#000000" stroke-width="2.5" stroke-linecap="round"/></g></g></svg>