<svg version="1.1" xmlns="http://www.w3.org/2000/svg" xmlns:xlink="http://www.w3.org/1999/xlink" width="199.17669" height="199.17669" viewBox="0,0,199.17669,199.17669"><g transform="translate(-140.41169,-80.41166)"><g data-paper-data="{&quot;isPaintingLayer&quot;:true}" fill-rule="nonzero" stroke-linejoin="miter" stroke-miterlimit="10" stroke-dasharray="" stroke-dashoffset="0" style="mix-blend-mode: normal"><path d="M145.1617,274.83835v-189.67669h189.67669v189.67669z" fill="#ffffff" stroke="#000000" stroke-width="9.5" stroke-linecap="butt"/><path d="M152.12139,209.23247c0,-5.58103 4.52432,-10.10534 10.10534,-10.10534c5.58103,0 10.10535,4.52432 10.10535,10.10534c0,5.58103 -4.52432,10.10534 -10.10534,10.10534c-5.58103,0 -10.10534,-4.52431 -10.10534,-10.10534z" fill="#9c8a42" stroke="#000000" stroke-width="2" stroke-linecap="butt"/><path d="" fill="#92b7b7" stroke="#000000" stroke-width="2" stroke-linecap="butt"/><path d="" fill="#536565" stroke="#000000" stroke-width="2" stroke-linecap="butt"/><path d="M170.2759,138.35309l1.31848,-11.57339l1.90448,-2.49048l8.20392,-0.43949l1.31849,1.17199l-0.293,12.89189z" fill="#9cffff" stroke="#000000" stroke-width="2" stroke-linecap="round"/><path d="" fill="#536565" stroke="#000000" stroke-width="2" stroke-linecap="butt"/><path d="M182.72827,221.27136l0.293,12.89189l-1.31849,1.17199l-8.20392,-0.43949l-1.90448,-2.49048l-1.31848,-11.5734z" data-paper-data="{&quot;index&quot;:null}" fill="#9cffff" stroke="#000000" stroke-width="2" stroke-linecap="round"/><path d="M153.73607,180.00001c0,-27.00595 15.75191,-48.8986 35.18289,-48.8986c19.43097,0 35.18289,21.89265 35.18289,48.8986c0,27.00595 -15.75192,48.8986 -35.18289,48.8986c-19.43097,0 -35.18289,-21.89265 -35.18289,-48.8986z" fill="#bea850" stroke="#000000" stroke-width="2" stroke-linecap="butt"/><path d="" fill="#536565" stroke="#000000" stroke-width="2" stroke-linecap="butt"/><path d="M180.25842,180.00002c0,-32.99437 26.74721,-59.74161 59.74161,-59.74161c32.99437,0 59.7416,26.74721 59.7416,59.74161c0,32.99437 -26.74721,59.74161 -59.7416,59.74161c-32.99437,0 -59.74161,-26.74721 -59.74161,-59.74161z" fill="#ffffae" stroke="#000000" stroke-width="6.5" stroke-linecap="butt"/><path d="M270.21891,168.2425c0,-4.28828 3.47636,-7.76461 7.76461,-7.76461c4.28827,0 7.76461,3.47636 7.76461,7.76461c0,4.28827 -3.47635,7.76461 -7.76461,7.76461c-4.28828,0 -7.76461,-3.47635 -7.76461,-7.76461z" fill="#000000" stroke="none" stroke-width="0.5" stroke-linecap="butt"/><path d="M271.5614,197.77768c0,-4.28828 3.47635,-7.76461 7.76461,-7.76461c4.28828,0 7.76461,3.47635 7.76461,7.76461c0,4.28827 -3.47635,7.76461 -7.76461,7.76461c-4.28827,0 -7.76461,-3.47636 -7.76461,-7.76461z" fill="#000000" stroke="none" stroke-width="0.5" stroke-linecap="butt"/><g stroke-width="2"><path d="M162.87534,161.23495c4.82699,0 8.74003,8.03618 8.74003,17.94932c0,9.91314 -3.91304,17.94932 -8.74003,17.94932c-4.82699,0 -8.74003,-8.03618 -8.74003,-17.94932c0,-9.91314 3.91304,-17.94932 8.74003,-17.94932z" fill="#5a4f26" stroke="#000000" stroke-linecap="butt"/><path d="M163.28594,195.7258c0,0 -2.69826,-11.16469 -2.69826,-16.89348c0,-5.7679 2.69826,-17.59737 2.69826,-17.59737" fill="none" stroke="#000000" stroke-linecap="round"/><path d="M162.87534,178.81681c0,-0.22677 0.18384,-0.41061 0.41061,-0.41061c0.22677,0 0.41061,0.18384 0.41061,0.41061c0,0.22677 -0.18384,0.4106 -0.41061,0.4106c-0.22677,0 -0.41061,-0.18383 -0.41061,-0.4106z" fill="none" stroke="#e7e400" stroke-linecap="butt"/></g></g></g></svg>