<svg version="1.1" xmlns="http://www.w3.org/2000/svg" xmlns:xlink="http://www.w3.org/1999/xlink" width="199.17669" height="199.17669" viewBox="0,0,199.17669,199.17669"><g transform="translate(-140.41166,-80.41166)"><g data-paper-data="{&quot;isPaintingLayer&quot;:true}" fill-rule="nonzero" stroke-linecap="butt" stroke-linejoin="miter" stroke-miterlimit="10" stroke-dasharray="" stroke-dashoffset="0" style="mix-blend-mode: normal"><path d="M145.16166,274.83834v-189.67669h189.67669v189.67669z" fill="#ffffff" stroke="#000000" stroke-width="9.5"/><path d="" fill="#92b7b7" stroke="#000000" stroke-width="2"/><path d="" fill="#536565" stroke="#000000" stroke-width="2"/><path d="" fill="#536565" stroke="#000000" stroke-width="2"/><path d="" fill="#536565" stroke="#000000" stroke-width="2"/><path d="M180.25839,180.00001c0,-32.99437 26.74721,-59.74161 59.74161,-59.74161c32.99437,0 59.74161,26.74721 59.74161,59.74161c0,32.99437 -26.74721,59.7416 -59.74161,59.7416c-32.99437,0 -59.74161,-26.74721 -59.74161,-59.7416z" fill="#ffffae" stroke="#000000" stroke-width="5.5"/><path d="M270.21893,168.24249c0,-4.28828 3.47636,-7.76461 7.76461,-7.76461c4.28827,0 7.76461,3.47635 7.76461,7.76461c0,4.28828 -3.47636,7.76461 -7.76461,7.76461c-4.28827,0 -7.76461,-3.47636 -7.76461,-7.76461z" fill="#000000" stroke="none" stroke-width="0.5"/><path d="M271.56143,197.77767c0,-4.28828 3.47636,-7.76461 7.76461,-7.76461c4.28827,0 7.76461,3.47635 7.76461,7.76461c0,4.28827 -3.47635,7.76461 -7.76461,7.76461c-4.28827,0 -7.76461,-3.47636 -7.76461,-7.76461z" fill="#000000" stroke="none" stroke-width="0.5"/></g></g></svg>