<svg version="1.1" xmlns="http://www.w3.org/2000/svg" xmlns:xlink="http://www.w3.org/1999/xlink" width="199.17669" height="199.17669" viewBox="0,0,199.17669,199.17669"><g transform="translate(-140.41165,-80.41166)"><g data-paper-data="{&quot;isPaintingLayer&quot;:true}" fill-rule="nonzero" stroke-linejoin="miter" stroke-miterlimit="10" stroke-dasharray="" stroke-dashoffset="0" style="mix-blend-mode: normal"><path d="M145.16166,274.83835v-189.67669h189.67669v189.67669z" fill="#ffffff" stroke="#000000" stroke-width="9.5" stroke-linecap="butt"/><path d="" fill="#92b7b7" stroke="#000000" stroke-width="2" stroke-linecap="butt"/><path d="" fill="#536565" stroke="#000000" stroke-width="2" stroke-linecap="butt"/><path d="" fill="#536565" stroke="#000000" stroke-width="2" stroke-linecap="butt"/><path d="" fill="#536565" stroke="#000000" stroke-width="2" stroke-linecap="butt"/><path d="M180.25845,180.00003c0,-32.99437 26.74721,-59.74161 59.74161,-59.74161c32.99437,0 59.7416,26.74721 59.7416,59.74161c0,32.99437 -26.74721,59.74161 -59.7416,59.74161c-32.99437,0 -59.74161,-26.74721 -59.74161,-59.74161z" fill="#ffffae" stroke="#000000" stroke-width="6.5" stroke-linecap="butt"/><path d="M270.21897,168.24251c0,-4.28828 3.47636,-7.76461 7.76461,-7.76461c4.28827,0 7.76461,3.47636 7.76461,7.76461c0,4.28827 -3.47635,7.76461 -7.76461,7.76461c-4.28828,0 -7.76461,-3.47635 -7.76461,-7.76461z" fill="#000000" stroke="none" stroke-width="0.5" stroke-linecap="butt"/><path d="M271.56147,197.77769c0,-4.28828 3.47635,-7.76461 7.76461,-7.76461c4.28828,0 7.76461,3.47635 7.76461,7.76461c0,4.28827 -3.47635,7.76461 -7.76461,7.76461c-4.28827,0 -7.76461,-3.47636 -7.76461,-7.76461z" fill="#000000" stroke="none" stroke-width="0.5" stroke-linecap="butt"/><path d="M177.87254,180c0,-33.79868 27.39924,-61.19791 61.19791,-61.19791c33.79868,0 5.46875,28.96174 5.46875,62.76041c0,33.79868 28.32993,59.63541 -5.46875,59.63541c-33.79868,0 -61.19791,-27.39924 -61.19791,-61.19791z" fill="#73ac60" stroke="#000000" stroke-width="3" stroke-linecap="butt"/><path d="M178.9142,179.52931c0,-28.59331 27.34613,-58.54361 55.93945,-58.54361c28.59331,0 4.10567,32.83466 4.10567,61.42797c0,28.59331 24.48764,58.26341 -4.10567,58.26341c-28.59332,0 -55.93945,-32.55446 -55.93945,-61.14777z" fill="#8ace73" stroke="#000000" stroke-width="3" stroke-linecap="butt"/><path d="M246.84928,138.36768h-20.81007v-5.26761h20.81007z" fill="#efff00" stroke="#000000" stroke-width="2" stroke-linecap="round"/><path d="M241.85949,138.75618l-2.5641,17.14744" fill="none" stroke="#000000" stroke-width="1.5" stroke-linecap="round"/><path d="M232.24411,138.75618l-2.5641,17.14744" fill="none" stroke="#000000" stroke-width="1.5" stroke-linecap="round"/><path d="M224.57684,132.84592l-6.93111,2.94047l7.14114,2.83545h1.05016l0.10502,-5.67091z" fill="#ffad00" stroke="#000000" stroke-width="1.5" stroke-linecap="round"/><path d="M245.53573,149.9637h-20.81007v-5.2676h20.81007z" fill="#efff00" stroke="#000000" stroke-width="2" stroke-linecap="round"/><path d="M223.26329,144.44194l-6.93111,2.94046l7.14114,2.83545h1.05016l0.10502,-5.6709z" fill="#ffad00" stroke="#000000" stroke-width="1.5" stroke-linecap="round"/><path d="M178.9142,179.52931c0,-28.59331 27.34613,-58.54361 55.93945,-58.54361c28.59331,0 4.10567,32.83466 4.10567,61.42797c0,28.59331 24.48764,58.26341 -4.10567,58.26341c-28.59332,0 -55.93945,-32.55446 -55.93945,-61.14777z" fill="none" stroke="#000000" stroke-width="3" stroke-linecap="butt"/><path d="M242.80584,160.02117h-20.81007v-5.2676h20.81007z" fill="#efff00" stroke="#000000" stroke-width="2" stroke-linecap="round"/><path d="M220.5334,154.49941l-6.93111,2.94047l7.14114,2.83545h1.05016l0.10501,-5.67091z" fill="#ffad00" stroke="#000000" stroke-width="1.5" stroke-linecap="round"/><path d="M255.55133,223.46302h17.40259" fill="none" stroke="#000000" stroke-width="2.5" stroke-linecap="round"/><path d="M255.16405,136.17579h18.17716" fill="none" stroke="#000000" stroke-width="2.5" stroke-linecap="round"/></g></g></svg>