<svg version="1.1" xmlns="http://www.w3.org/2000/svg" xmlns:xlink="http://www.w3.org/1999/xlink" width="199.17669" height="199.17669" viewBox="0,0,199.17669,199.17669"><g transform="translate(-140.41167,-80.41165)"><g data-paper-data="{&quot;isPaintingLayer&quot;:true}" fill-rule="nonzero" stroke-linejoin="miter" stroke-miterlimit="10" stroke-dasharray="" stroke-dashoffset="0" style="mix-blend-mode: normal"><path d="M145.16168,274.83835v-189.67669h189.67669v189.67669z" fill="#ffffff" stroke="#000000" stroke-width="9.5" stroke-linecap="butt"/><path d="" fill="#92b7b7" stroke="#000000" stroke-width="2" stroke-linecap="butt"/><path d="" fill="#536565" stroke="#000000" stroke-width="2" stroke-linecap="butt"/><path d="" fill="#536565" stroke="#000000" stroke-width="2" stroke-linecap="butt"/><path d="" fill="#536565" stroke="#000000" stroke-width="2" stroke-linecap="butt"/><path d="M180.2584,180c0,-32.99437 26.74721,-59.74161 59.74161,-59.74161c32.99437,0 59.7416,26.74721 59.7416,59.74161c0,32.99437 -26.74721,59.74161 -59.7416,59.74161c-32.99437,0 -59.74161,-26.74721 -59.74161,-59.74161z" fill="#ffffae" stroke="#000000" stroke-width="6.5" stroke-linecap="butt"/><path d="M270.21891,168.24248c0,-4.28828 3.47636,-7.76461 7.76461,-7.76461c4.28827,0 7.76461,3.47636 7.76461,7.76461c0,4.28827 -3.47635,7.76461 -7.76461,7.76461c-4.28828,0 -7.76461,-3.47635 -7.76461,-7.76461z" fill="#000000" stroke="none" stroke-width="0.5" stroke-linecap="butt"/><path d="M271.5614,197.77766c0,-4.28828 3.47635,-7.76461 7.76461,-7.76461c4.28828,0 7.76461,3.47635 7.76461,7.76461c0,4.28827 -3.47635,7.76461 -7.76461,7.76461c-4.28827,0 -7.76461,-3.47636 -7.76461,-7.76461z" fill="#000000" stroke="none" stroke-width="0.5" stroke-linecap="butt"/><path d="M203.17645,219.17686c0,0 -40.79506,-5.05081 -49.51251,-6.13012c-3.12849,-0.38734 -4.95919,1.27895 -6.37686,-0.78952c-1.41766,-2.06846 1.67345,-2.71935 2.76088,-4.48643c1.57009,-2.5514 8.41046,-24.83956 8.41046,-24.83956l-0.61555,-6.56206c0,0 -6.25083,-28.02871 -8.09682,-30.74911c-1.04629,-1.5419 -3.30163,-2.68863 -2.45897,-4.5087c0.84266,-1.82008 2.13925,0.59698 4.41164,0.29108c7.72212,-1.03951 50.94545,-6.85804 50.94545,-6.85804z" fill="#efd364" stroke="#000000" stroke-width="2" stroke-linecap="round"/><path d="M213.59498,228.3901v-104.32682l-9.58103,-33.00133l-10.64559,34.49532l3.19367,25.12l-3.19367,84.63247z" fill="#efd364" stroke="#000000" stroke-width="2" stroke-linecap="round"/></g></g></svg>