<svg version="1.1" xmlns="http://www.w3.org/2000/svg" xmlns:xlink="http://www.w3.org/1999/xlink" width="199.17669" height="199.17669" viewBox="0,0,199.17669,199.17669"><g transform="translate(-140.41165,-80.41165)"><g data-paper-data="{&quot;isPaintingLayer&quot;:true}" fill-rule="nonzero" stroke-linejoin="miter" stroke-miterlimit="10" stroke-dasharray="" stroke-dashoffset="0" style="mix-blend-mode: normal"><path d="M145.16166,274.83835v-189.67669h189.67669v189.67669z" fill="#ffffff" stroke="#000000" stroke-width="9.5" stroke-linecap="butt"/><path d="" fill="#92b7b7" stroke="#000000" stroke-width="2" stroke-linecap="butt"/><path d="" fill="#536565" stroke="#000000" stroke-width="2" stroke-linecap="butt"/><path d="" fill="#536565" stroke="#000000" stroke-width="2" stroke-linecap="butt"/><path d="" fill="#536565" stroke="#000000" stroke-width="2" stroke-linecap="butt"/><path d="M180.25842,180c0,-32.99437 26.74721,-59.74161 59.74161,-59.74161c32.99437,0 59.7416,26.74721 59.7416,59.74161c0,32.99437 -26.74721,59.74161 -59.7416,59.74161c-32.99437,0 -59.74161,-26.74721 -59.74161,-59.74161z" fill="#ffffae" stroke="#000000" stroke-width="6.5" stroke-linecap="butt"/><path d="M270.21894,168.24248c0,-4.28828 3.47636,-7.76461 7.76461,-7.76461c4.28827,0 7.76461,3.47636 7.76461,7.76461c0,4.28827 -3.47635,7.76461 -7.76461,7.76461c-4.28828,0 -7.76461,-3.47635 -7.76461,-7.76461z" fill="#000000" stroke="none" stroke-width="0.5" stroke-linecap="butt"/><path d="M271.56146,197.77766c0,-4.28828 3.47635,-7.76461 7.76461,-7.76461c4.28828,0 7.76461,3.47635 7.76461,7.76461c0,4.28827 -3.47635,7.76461 -7.76461,7.76461c-4.28827,0 -7.76461,-3.47636 -7.76461,-7.76461z" fill="#000000" stroke="none" stroke-width="0.5" stroke-linecap="butt"/><path d="M214.86393,205.96609c0,0 -18.14035,0 -22.66922,0c-1.93791,0 -4.1507,-1.174 -4.1507,-3.16453c0,-10.06656 0,-41.01641 0,-46.61558c0,-1.69843 2.2128,-3.19285 4.1507,-3.19285c4.52887,0 22.66922,0 22.66922,0z" fill="#ffffff" stroke="#000000" stroke-width="9.5" stroke-linecap="round"/><path d="M216.40135,217.10614c-9.60038,4.29732 -18.40365,5.49741 -18.40365,5.49741c0,0 -3.97579,-3.57115 -6.57231,-6.69528c-3.38537,-4.07328 -6.79407,-9.46401 -5.18438,-8.43138c4.05032,2.59832 10.76975,5.16402 10.76975,5.16402l9.44035,-6.31421v-52.6534l-8.73983,-7.81057c0,0 -8.7103,3.45899 -9.2479,3.56043c-2.47467,0.46692 10.91581,-13.06749 10.91581,-13.06749c0,0 11.06189,2.07051 18.44404,4.02461c6.63393,1.75604 16.82025,7.48871 16.82025,7.48871l-0.4146,56.79933c0,0 -4.16338,3.60104 -11.21034,8.56835c-2.13584,1.50552 -4.38423,2.86995 -6.61719,3.86947z" fill="#ffffff" stroke="#000000" stroke-width="9.5" stroke-linecap="round"/><path d="M229.75523,178.31063h-18.80561" fill="none" stroke="#ff0000" stroke-width="9.5" stroke-linecap="round"/><path d="M220.35243,187.71343v-18.80562" fill="none" stroke="#ff0000" stroke-width="9.5" stroke-linecap="round"/></g></g></svg>