<svg version="1.1" xmlns="http://www.w3.org/2000/svg" xmlns:xlink="http://www.w3.org/1999/xlink" width="172.12171" height="152.03273" viewBox="0,0,172.12171,152.03273"><g transform="translate(-153.93915,-103.98363)"><g data-paper-data="{&quot;isPaintingLayer&quot;:true}" fill="none" fill-rule="nonzero" stroke="#000000" stroke-width="2" stroke-linecap="round" stroke-linejoin="miter" stroke-miterlimit="10" stroke-dasharray="" stroke-dashoffset="0" style="mix-blend-mode: normal"><path d="M237.88624,179.376l59.50764,26.00703"/><path d="M258.31586,188.23608l33.09015,-25.92061"/><path d="M207.02613,145.21888l25.92061,21.5086"/><path d="M224.67421,157.90343l42.46569,-24.26611"/><path d="M207.57763,179.41204l-4.96352,41.91419"/><path d="M205.37162,199.81763l27.02363,11.58156"/><path d="M206.47462,188.78758l-19.85409,11.03006"/><path d="M227.68856,209.68789l-13.43065,45.32848"/><path d="M251.75183,221.99933l38.61315,-19.58638"/><path d="M286.44771,167.71707l33.01704,11.75183"/><path d="M253.43065,140.85574l1.11923,29.09977"/><path d="M208.10218,192.89956l44.20926,-6.71533"/><path d="M212.01945,149.24991l-47.56692,35.81509"/><path d="M154.93915,144.21342l34.69588,21.82482"/><path d="M218.17518,122.33157l30.77859,-17.34794"/><path d="M234.9635,112.81819l-2.79806,24.62288"/><path d="M294.84186,113.10055l30.21899,25.18249"/><path d="M313.30903,128.76964l-19.58638,3.35767"/></g></g></svg>