<svg version="1.1" xmlns="http://www.w3.org/2000/svg" xmlns:xlink="http://www.w3.org/1999/xlink" width="207.84512" height="196.80113" viewBox="0,0,207.84512,196.80113"><g transform="translate(-136.07744,-81.59943)"><g data-paper-data="{&quot;isPaintingLayer&quot;:true}" fill="none" fill-rule="nonzero" stroke="#000000" stroke-width="2" stroke-linecap="round" stroke-linejoin="miter" stroke-miterlimit="10" stroke-dasharray="" stroke-dashoffset="0" style="mix-blend-mode: normal"><path d="M306.03633,198.89746l-68.93089,-30.12535"/><path d="M260.77017,179.03521l38.3301,-30.02524"/><path d="M231.38375,154.12065l-30.02524,-24.91456"/><path d="M270.99152,115.79054l-49.19029,28.10873"/><path d="M201.99735,168.81386l-5.74951,48.55145"/><path d="M199.44201,192.45075l31.30292,13.41554"/><path d="M200.71968,179.67404l-22.99806,12.77671"/><path d="M225.29292,203.884l-15.55745,52.50641"/><path d="M253.16669,218.145l44.72769,-22.68796"/><path d="M293.35679,155.26694l38.24541,13.61277"/><path d="M255.11137,124.15203l1.29646,33.70782"/><path d="M253.81492,176.65845l-51.20996,7.77872"/><path d="M207.14254,133.87544l-55.09932,41.48655"/><path d="M181.21346,153.32226l-40.1901,-25.28087"/><path d="M214.27305,102.69448l35.6525,-20.09505"/><path d="M233.71987,91.67462l-3.24114,28.52201"/><path d="M303.08019,92.00169l35.00428,29.17024"/><path d="M324.47171,110.15205l-22.68796,3.88937"/><path d="M245.58495,231.92316l52.65806,19.14839"/><path d="M270.31828,239.90166l-32.71183,35.10538"/><path d="M342.92256,203.20059l-33.50967,17.55268"/><path d="M323.77418,216.36509l-6.38279,-31.11612"/><path d="M137.07744,190.435l28.72257,27.12688"/><path d="M143.85915,198.41349l16.75484,-7.9785"/><path d="M168.99142,93.89522l14.36128,26.32902"/><path d="M176.17205,107.45866l-8.77634,11.16989"/><path d="M177.76774,257.45434l13.56344,19.94623"/><path d="M184.94839,269.42207l-10.37205,-1.59571"/><path d="M236.01074,213.57262l19.14839,-19.94623"/><path d="M246.38279,222.34896l-0.79784,-16.75484"/><path d="M264.73333,198.41347l15.95699,-9.57418"/><path d="M224.04301,182.4565l7.9785,9.57418"/><path d="M214.46882,139.37263v22.33978"/></g></g></svg>