<svg version="1.1" xmlns="http://www.w3.org/2000/svg" xmlns:xlink="http://www.w3.org/1999/xlink" width="371.47493" height="371.47493" viewBox="0,0,371.47493,371.47493"><g transform="translate(-54.26254,5.73747)"><g data-paper-data="{&quot;isPaintingLayer&quot;:true}" fill-rule="nonzero" stroke-linejoin="miter" stroke-miterlimit="10" stroke-dasharray="" stroke-dashoffset="0" style="mix-blend-mode: normal"><path d="M309.06381,171.22237c0,-6.29954 5.10679,-11.40633 11.40633,-11.40633c6.29954,0 11.40633,5.10679 11.40633,11.40633c0,6.29954 -5.10679,11.40633 -11.40633,11.40633c-6.29954,0 -11.40633,-5.10679 -11.40633,-11.40633z" fill="#ffffae" stroke="#000000" stroke-width="2.5" stroke-linecap="butt"/><path d="M257.43003,186.43035c0,-6.29954 5.10679,-11.40633 11.40633,-11.40633c6.29954,0 11.40633,5.10679 11.40633,11.40633c0,6.29954 -5.10679,11.40633 -11.40633,11.40633c-6.29954,0 -11.40633,-5.10679 -11.40633,-11.40633z" fill="#ffffae" stroke="#000000" stroke-width="2.5" stroke-linecap="butt"/><path d="M54.26255,365.73747v-371.47493h371.47493v371.47493z" fill="none" stroke="none" stroke-width="0" stroke-linecap="butt"/><path d="M340.76521,210.07455c0,0 11.04312,-20.97835 11.04312,-31.26592c0,-10.02561 -11.04312,-29.69389 -11.04312,-29.69389h5.30248c0,0 11.04311,19.41221 11.04311,29.34455c0,10.36882 -11.04311,31.61526 -11.04311,31.61526z" fill="#6c7d91" stroke="#000000" stroke-width="2.5" stroke-linecap="butt"/><path d="M267.15578,185.53342v-11.87755c0,0 11.68347,0 24.03873,0c7.02477,0 14.26672,-0.59703 19.7019,-0.59703c4.87725,0 11.38476,0.59703 18.06008,0.59703c15.04813,0 30.94903,0 30.94903,0v11.87756c0,0 -15.40543,0 -30.20274,0c-6.82145,0 -13.51367,0.59703 -18.50785,0.59703c-5.5795,0 -13.07499,-0.59703 -20.29893,-0.59703c-12.26128,0 -23.74022,-0.00001 -23.74022,-0.00001z" fill="#a07045" stroke="#000000" stroke-width="2.5" stroke-linecap="butt"/><path d="M340.76521,149.55955c0,0 -60.85996,20.30081 -60.85996,30.45389c0,9.92651 60.85996,29.80022 60.85996,29.80022" fill="none" stroke="#000000" stroke-width="2.5" stroke-linecap="round"/><path d="M280.63052,179.77615h64.65673" fill="none" stroke="#000000" stroke-width="2.5" stroke-linecap="round"/><path d="M344.90222,177.38967v4.87889l5.0865,-2.69896z" fill="#c1eaea" stroke="#000000" stroke-width="1" stroke-linecap="round"/><path d="M277.07259,183.40243l3.64192,-3.64192l4.78002,0.37937l-3.56605,3.56605z" fill="#ff0000" stroke="#000000" stroke-width="1" stroke-linecap="round"/><path d="M281.92848,175.48337l3.56605,3.56605l-4.78002,0.37937l-3.64192,-3.64192z" data-paper-data="{&quot;index&quot;:null}" fill="#ff0000" stroke="#000000" stroke-width="1" stroke-linecap="round"/></g></g></svg>