<svg version="1.1" xmlns="http://www.w3.org/2000/svg" xmlns:xlink="http://www.w3.org/1999/xlink" width="49.67286" height="49.62687" viewBox="0,0,49.67286,49.62687"><defs><radialGradient cx="234.88372" cy="175.18657" r="17.60413" gradientUnits="userSpaceOnUse" id="color-1"><stop offset="0" stop-color="#ff7d7d"/><stop offset="1" stop-color="#ff7d7d" stop-opacity="0"/></radialGradient><radialGradient cx="230.30284" cy="183.95349" r="15.16227" gradientUnits="userSpaceOnUse" id="color-2"><stop offset="0" stop-color="#ff7df7"/><stop offset="1" stop-color="#ff7df7" stop-opacity="0"/></radialGradient><radialGradient cx="240" cy="180" r="24.81343" gradientUnits="userSpaceOnUse" id="color-3"><stop offset="0" stop-color="#d466ff"/><stop offset="1" stop-color="#d466ff" stop-opacity="0"/></radialGradient><radialGradient cx="245.46512" cy="173.02326" r="15.16227" gradientUnits="userSpaceOnUse" id="color-4"><stop offset="0" stop-color="#a87dff"/><stop offset="1" stop-color="#a87dff" stop-opacity="0"/></radialGradient><radialGradient cx="245.46511" cy="184.88372" r="15.16227" gradientUnits="userSpaceOnUse" id="color-5"><stop offset="0" stop-color="#7da2ff"/><stop offset="1" stop-color="#7da2ff" stop-opacity="0"/></radialGradient></defs><g transform="translate(-215.14057,-155.18657)"><g data-paper-data="{&quot;isPaintingLayer&quot;:true}" fill-rule="nonzero" stroke="none" stroke-width="none" stroke-linecap="butt" stroke-linejoin="miter" stroke-miterlimit="10" stroke-dasharray="" stroke-dashoffset="0" style="mix-blend-mode: normal"><path d="M217.27959,175.18657c0,-9.72249 7.88164,-17.60413 17.60413,-17.60413c9.72249,0 17.60413,7.88164 17.60413,17.60413c0,9.72249 -7.88164,17.60414 -17.60413,17.60414c-9.72249,0 -17.60413,-7.88164 -17.60413,-17.60414z" fill="url(#color-1)"/><path d="M215.14057,183.95349c0,-8.37389 6.78838,-15.16227 15.16227,-15.16227c8.37389,0 15.16227,6.78838 15.16227,15.16227c0,8.37389 -6.78838,15.16227 -15.16227,15.16227c-8.37389,0 -15.16227,-6.78839 -15.16227,-15.16227z" fill="url(#color-2)"/><path d="M215.18657,180c0,-13.70408 11.10935,-24.81343 24.81343,-24.81343c13.70408,0 24.81343,11.10935 24.81343,24.81343c0,13.70408 -11.10935,24.81343 -24.81343,24.81343c-13.70408,0 -24.81343,-11.10935 -24.81343,-24.81343z" fill="url(#color-3)"/><path d="M230.30284,173.02326c0,-8.37389 6.78838,-15.16227 15.16227,-15.16227c8.37389,0 15.16227,6.78838 15.16227,15.16227c0,8.37389 -6.78838,15.16227 -15.16227,15.16227c-8.37389,0 -15.16227,-6.78838 -15.16227,-15.16227z" fill="url(#color-4)"/><path d="M230.30284,184.88372c0,-8.37389 6.78838,-15.16227 15.16227,-15.16227c8.37389,0 15.16227,6.78838 15.16227,15.16227c0,8.37389 -6.78838,15.16228 -15.16227,15.16228c-8.37389,0 -15.16227,-6.78839 -15.16227,-15.16228z" fill="url(#color-5)"/></g></g></svg>