<svg version="1.1" xmlns="http://www.w3.org/2000/svg" xmlns:xlink="http://www.w3.org/1999/xlink" width="371.47493" height="371.47493" viewBox="0,0,371.47493,371.47493"><g transform="translate(-54.26255,5.73746)"><g data-paper-data="{&quot;isPaintingLayer&quot;:true}" fill-rule="nonzero" stroke-linejoin="miter" stroke-miterlimit="10" stroke-dasharray="" stroke-dashoffset="0" style="mix-blend-mode: normal"><path d="M275.0542,178.88024c0,-6.29954 5.10679,-11.40633 11.40633,-11.40633c6.29954,0 11.40633,5.10679 11.40633,11.40633c0,6.29954 -5.10679,11.40633 -11.40633,11.40633c-6.29954,0 -11.40633,-5.10679 -11.40633,-11.40633z" fill="#ffffae" stroke="#000000" stroke-width="2.5" stroke-linecap="butt"/><path d="M263.64787,186.43035c0,-6.29954 5.10679,-11.40633 11.40633,-11.40633c6.29954,0 11.40633,5.10679 11.40633,11.40633c0,6.29954 -5.10679,11.40633 -11.40633,11.40633c-6.29954,0 -11.40633,-5.10679 -11.40633,-11.40633z" fill="#ffffae" stroke="#000000" stroke-width="2.5" stroke-linecap="butt"/><path d="M272.17767,181.43621v-4.38386h8.76773v4.38386z" fill="#93aac7" stroke="#000000" stroke-width="2.5" stroke-linecap="butt"/><path d="M276.36123,185.59031v-13.15083h50.56865v13.15083z" fill="#93aac7" stroke="#000000" stroke-width="2.5" stroke-linecap="butt"/><path d="M284.04985,174.10053v2.65422" fill="none" stroke="#000000" stroke-width="2.5" stroke-linecap="round"/><path d="M284.18776,181.57144v2.65422" fill="none" stroke="#000000" stroke-width="2.5" stroke-linecap="round"/><path d="M322.78048,178.9653h2.75979" fill="none" stroke="#000000" stroke-width="2.5" stroke-linecap="round"/><path d="M54.26255,365.73747v-371.47493h371.47493v371.47493z" fill="none" stroke="none" stroke-width="0" stroke-linecap="butt"/><path d="M319.1383,173.92367v11.20318" fill="none" stroke="#5b676b" stroke-width="2" stroke-linecap="round"/><path d="M315.40974,185.12686v-11.20318" fill="none" stroke="#5b676b" stroke-width="2" stroke-linecap="round"/><path d="M311.68118,173.92368v11.20318" fill="none" stroke="#5b676b" stroke-width="2" stroke-linecap="round"/><path d="M307.95262,173.92368v11.20318" fill="none" stroke="#5b676b" stroke-width="2" stroke-linecap="round"/><path d="M304.22406,185.12686v-11.20318" fill="none" stroke="#5b676b" stroke-width="2" stroke-linecap="round"/><path d="M276.36123,186.80596v-15.09588c0,0 7.19849,0 13.42078,0c1.23488,0 2.43132,0.72939 3.52541,0.72939c9.30634,0 33.62246,0 33.62246,0v13.15083c0,0 -25.14431,0 -34.47342,0c-0.80624,0 -1.66602,1.21566 -2.55288,1.21566c-6.12506,0 -13.54235,0 -13.54235,0z" fill="none" stroke="#000000" stroke-width="2.5" stroke-linecap="butt"/></g></g></svg>