<svg version="1.1" xmlns="http://www.w3.org/2000/svg" xmlns:xlink="http://www.w3.org/1999/xlink" width="371.47493" height="371.47493" viewBox="0,0,371.47493,371.47493"><defs><linearGradient x1="252.61698" y1="189.16511" x2="275.42964" y2="189.16511" gradientUnits="userSpaceOnUse" id="color-1"><stop offset="0" stop-color="#714f31"/><stop offset="1" stop-color="#a06d49"/></linearGradient></defs><g transform="translate(-54.26254,5.73747)"><g data-paper-data="{&quot;isPaintingLayer&quot;:true}" fill-rule="nonzero" stroke-linecap="butt" stroke-linejoin="miter" stroke-miterlimit="10" stroke-dasharray="" stroke-dashoffset="0" style="mix-blend-mode: normal"><path d="M262.22137,199.07369c0,-6.29954 5.10679,-11.40633 11.40633,-11.40633c6.29954,0 11.40633,5.10679 11.40633,11.40633c0,6.29954 -5.10679,11.40633 -11.40633,11.40633c-6.29954,0 -11.40633,-5.10679 -11.40633,-11.40633z" fill="#ffffae" stroke="#000000" stroke-width="2.5"/><path d="M318.85341,176.54572c0,-6.29954 5.10679,-11.40633 11.40633,-11.40633c6.29954,0 11.40633,5.10679 11.40633,11.40633c0,6.29954 -5.10679,11.40633 -11.40633,11.40633c-6.29954,0 -11.40633,-5.10679 -11.40633,-11.40633z" fill="#ffffae" stroke="#000000" stroke-width="2.5"/><path d="M252.61698,198.88012v-19.43004h22.81266v19.43004z" fill="url(#color-1)" stroke="#000000" stroke-width="2"/><path d="M54.26255,365.73747v-371.47493h371.47493v371.47493z" fill="none" stroke="none" stroke-width="0"/><path d="M273.62771,189.07463v-9.43097h83.57849v9.43097z" fill="#93aac7" stroke="#000000" stroke-width="2.5"/><path d="M273.62771,199.07369v-9.43097h83.57849v9.43097z" fill="#93aac7" stroke="#000000" stroke-width="2.5"/><path d="M349.72624,189.64271c0,-1.55163 1.25784,-2.80949 2.8095,-2.80949c1.55163,0 2.80949,1.25784 2.80949,2.80949c0,1.55163 -1.25784,2.8095 -2.80949,2.8095c-1.55163,0 -2.8095,-1.25785 -2.8095,-2.8095z" fill="#9cb5d3" stroke="#000000" stroke-width="0.5"/><path d="M210.60688,180c0,-16.23337 13.15974,-29.39312 29.39312,-29.39312c16.23337,0 29.39312,13.15974 29.39312,29.39312c0,16.23337 -13.15974,29.39312 -29.39312,29.39312c-16.23337,0 -29.39312,-13.15974 -29.39312,-29.39312z" fill="#ffffae" stroke="#000000" stroke-width="2.5"/><path d="M254.86784,174.21525c0,-2.10985 1.71038,-3.82022 3.82022,-3.82022c2.10985,0 3.82022,1.71038 3.82022,3.82022c0,2.10985 -1.71038,3.82022 -3.82022,3.82022c-2.10985,0 -3.82022,-1.71038 -3.82022,-3.82022z" fill="#000000" stroke="none" stroke-width="0.5"/><path d="M255.52836,188.74668c0,-2.10985 1.71038,-3.82022 3.82022,-3.82022c2.10985,0 3.82022,1.71038 3.82022,3.82022c0,2.10985 -1.71038,3.82022 -3.82022,3.82022c-2.10985,0 -3.82022,-1.71038 -3.82022,-3.82022z" fill="#000000" stroke="none" stroke-width="0.5"/></g></g></svg>