<svg version="1.1" xmlns="http://www.w3.org/2000/svg" xmlns:xlink="http://www.w3.org/1999/xlink" width="119.28681" height="221.41875" viewBox="0,0,119.28681,221.41875"><g transform="translate(-180.35663,-120.35663)"><g data-paper-data="{&quot;isPaintingLayer&quot;:true}" fill-rule="nonzero" stroke="#000000" stroke-linejoin="miter" stroke-miterlimit="10" stroke-dasharray="" stroke-dashoffset="0" style="mix-blend-mode: normal"><path d="M182.85663,237.14336v-114.28673h114.28674v114.28674z" fill="#888d8d" stroke-width="5" stroke-linecap="butt"/><path d="M182.8567,339.27537v-86.99628h114.28674v86.99629z" fill="#f3fdfd" stroke-width="5" stroke-linecap="butt"/><path d="M182.85663,237.14336v-114.28673h114.28674v114.28674z" fill="none" stroke-width="5" stroke-linecap="butt"/><g data-paper-data="{&quot;index&quot;:null}" fill="none" stroke-width="4.5" stroke-linecap="round"><path d="M253.90878,207.12459c0,0 -7.79735,5.8063 -10.86569,4.83674c-3.22995,-1.02063 -8.05405,-10.81521 -8.05405,-10.81521"/><path d="M249.83712,201.43611l8.00451,2.52937l-2.52936,8.0045"/></g><path d="M282.1055,197.39133l-4.81216,8.65615l-21.23462,-11.80482l4.73697,-8.5209z" fill="#425454" stroke-width="2" stroke-linecap="round"/><path d="M213.19189,143.06611l-5.34117,9.60775l-13.63776,-7.58155l5.34117,-9.60775z" fill="#859bb4" stroke-width="2" stroke-linecap="round"/><path d="M237.74699,156.71687l-5.34117,9.60774l-3.17207,-1.76343l5.34117,-9.60774z" fill="#859bb4" stroke-width="2" stroke-linecap="round"/><path d="M292.05904,185.2195l-8.49647,15.28352l-25.2922,-14.06052l1.60644,-2.88969l-1.58411,-0.88064l5.45986,-9.82125l1.92155,1.06824l1.42431,-2.56206l2.77558,1.54301z" fill="#859bb4" stroke-width="2" stroke-linecap="round"/><path d="M266.17642,186.23431l-2.97555,-1.65418l4.81216,-8.65615l3.24605,1.80456" fill="none" stroke-width="2" stroke-linecap="round"/><path d="M212.64752,145.67616l20.10957,11.17938" fill="none" stroke-width="3" stroke-linecap="round"/><path d="M209.26398,151.76252l20.10957,11.17938" fill="none" stroke-width="3" stroke-linecap="round"/><path d="M210.91816,148.78696l20.10957,11.17938" fill="none" stroke-width="3" stroke-linecap="round"/><path d="M262.5126,173.39732l-25.42744,-14.13571" fill="none" stroke-width="3" stroke-linecap="round"/><path d="M259.12906,179.48368l-25.42744,-14.13571" fill="none" stroke-width="3" stroke-linecap="round"/><path d="M260.78323,176.50813l-25.42744,-14.13571" fill="none" stroke-width="3" stroke-linecap="round"/></g></g></svg>