<svg version="1.1" xmlns="http://www.w3.org/2000/svg" xmlns:xlink="http://www.w3.org/1999/xlink" width="119.28681" height="222.6426" viewBox="0,0,119.28681,222.6426"><g transform="translate(-180.35663,-119.13275)"><g data-paper-data="{&quot;isPaintingLayer&quot;:true}" fill-rule="nonzero" stroke-linejoin="miter" stroke-miterlimit="10" stroke-dasharray="" stroke-dashoffset="0" style="mix-blend-mode: normal"><path d="M182.85663,238.36728v-114.28673h114.28674v114.28674z" fill="#888d8d" stroke="#000000" stroke-width="5" stroke-linecap="butt"/><path d="M182.8567,339.27535v-86.99628h114.28674v86.99629z" fill="#f3fdfd" stroke="#000000" stroke-width="5" stroke-linecap="butt"/><text transform="translate(188.73403,266.86914) scale(0.28175,0.28175)" font-size="40" xml:space="preserve" fill="#1fd529" fill-rule="nonzero" stroke="none" stroke-width="1" stroke-linecap="butt" stroke-linejoin="miter" stroke-miterlimit="10" stroke-dasharray="" stroke-dashoffset="0" font-family="Sans Serif" font-weight="normal" text-anchor="start" style="mix-blend-mode: normal"><tspan x="0" dy="0">+30% knockback</tspan></text><path d="M182.85663,235.91949v-114.28673h114.28674v114.28674z" fill="none" stroke="#000000" stroke-width="5" stroke-linecap="butt"/><text transform="translate(188.73403,279.9925) scale(0.28175,0.28175)" font-size="40" xml:space="preserve" fill="#1fd529" fill-rule="nonzero" stroke="none" stroke-width="1" stroke-linecap="butt" stroke-linejoin="miter" stroke-miterlimit="10" stroke-dasharray="" stroke-dashoffset="0" font-family="Sans Serif" font-weight="normal" text-anchor="start" style="mix-blend-mode: normal"><tspan x="0" dy="0">-10% damage</tspan></text><g data-paper-data="{&quot;index&quot;:null}" fill="none" stroke="#000000" stroke-width="4.5" stroke-linecap="round"><path d="M261.66643,197.63378c0,0 -1.40788,9.61923 -4.26311,11.10329c-3.00561,1.56222 -13.34258,-1.95244 -13.34258,-1.95244"/><path d="M254.76497,196.49051l7.44857,-3.87151l3.87151,7.44856"/></g><g stroke="#000000" stroke-width="2" stroke-linecap="round"><g><path d="M260.24117,145.44434l6.96717,37.74565l-12.44362,2.29689l-6.96717,-37.74566z" fill="#d2d84e"/><path d="M258.86986,137.4833l1.34749,7.53654l-12.49635,2.30662l-1.27093,-7.12174c0,0 4.15094,-3.34282 5.4946,-3.66726c1.34366,-0.32446 6.92519,0.94585 6.92519,0.94585z" fill="#d9ab39"/></g><g><path d="M274.67731,145.60869l-0.10465,38.38312l-12.65378,-0.03449l0.10465,-38.38312z" fill="#d2d84e"/><path d="M274.79586,137.53127l-0.06377,7.65579l-12.70741,-0.03464l0.06262,-7.23399c0,0 4.69565,-2.52103 6.07608,-2.59241c1.38044,-0.0714 6.63248,2.20526 6.63248,2.20526z" fill="#d9ab39"/></g><g><path d="M288.56759,147.10726l-6.6455,37.80361l-12.46274,-2.19082l6.6455,-37.80361z" fill="#d2d84e"/><path d="M290.06119,139.16826l-1.36776,7.53289l-12.51554,-2.20011l1.29473,-7.11746c0,0 5.05664,-1.68377 6.42904,-1.51882c1.37241,0.16494 6.15954,3.30349 6.15954,3.30349z" fill="#d9ab39"/></g></g><g stroke="#000000" stroke-width="2" stroke-linecap="round"><g><path d="M230.22646,192.10293l-5.80711,36.00661l-11.87031,-1.91443l5.80711,-36.00661z" fill="#d2d84e"/><path d="M231.7445,183.01048l-1.40392,8.70489l-11.92061,-1.92254l1.3401,-8.30921c0,0 2.29532,-2.49439 3.5269,-3.49094c0.97396,-0.7881 1.96668,-2.14945 3.27282,-2.01113c1.30615,0.1383 1.8487,1.72213 2.57203,2.70277c0.94496,1.2811 2.61267,4.32618 2.61267,4.32618z" fill="#d9ab39"/></g><g><path d="M216.72377,190.27306l-0.22559,36.47119l-12.02348,-0.07436l0.2256,-36.47118z" fill="#d2d84e"/><path d="M216.83173,181.0554l-0.05454,8.81722l-12.07442,-0.07469l0.05206,-8.41642c0,0 1.88633,-2.81642 2.95081,-3.9898c0.84181,-0.92794 1.61441,-2.42521 2.92632,-2.48852c1.31191,-0.06332 2.09056,1.41876 2.95551,2.27709c1.12996,1.12131 3.24426,3.87512 3.24426,3.87512z" fill="#d9ab39"/></g><g><path d="M204.85441,192.79075l9.31247,35.26295l-11.62515,3.07006l-9.31247,-35.26296z" fill="#d2d84e"/><path d="M202.54997,183.86514l2.25137,8.52511l-11.67442,3.08307l-2.14903,-8.13761c0,0 1.08484,-3.21147 1.80572,-4.62225c0.5701,-1.11567 0.92457,-2.76281 2.17436,-3.16673c1.24979,-0.40393 2.38868,0.82318 3.44786,1.42567c1.38371,0.78708 4.14413,2.89275 4.14413,2.89275z" fill="#d9ab39"/></g></g></g></g></svg>