<svg version="1.1" xmlns="http://www.w3.org/2000/svg" xmlns:xlink="http://www.w3.org/1999/xlink" width="45.70958" height="25.83797" viewBox="0,0,45.70958,25.83797"><g transform="translate(-217.14521,-167.08079)"><g data-paper-data="{&quot;isPaintingLayer&quot;:true}" fill-rule="nonzero" stroke="#000000" stroke-width="2" stroke-linejoin="miter" stroke-miterlimit="10" stroke-dasharray="" stroke-dashoffset="0" style="mix-blend-mode: normal"><path d="M218.14521,173.97132c0,0 12.36539,-5.99997 19.91045,-5.88901c7.54505,0.11095 18.22787,6.44986 18.22787,6.44986v12.05844c0,0 -11.75724,5.27232 -19.34959,5.32815c-7.59235,0.05583 -18.78873,-5.04772 -18.78873,-5.04772v-12.89973z" fill="#c41616" stroke-linecap="round"/><path d="M256.67084,186.14503v-11.56968h5.18395v11.56968z" fill="#92b7b7" stroke-linecap="butt"/><path d="M237.96652,191.59516v-23.13937" fill="none" stroke-linecap="round"/><path d="M232.18168,190.63102c0,0 -0.38566,-8.2025 -0.38566,-11.92987c0,-3.28766 0.38566,-9.28122 0.38566,-9.28122" fill="none" stroke-linecap="round"/><path d="M226.97532,188.70273c0,0 -0.77131,-6.01057 -0.77131,-8.67726c0,-2.73096 0.77131,-8.67726 0.77131,-8.67726" fill="none" stroke-linecap="round"/><path d="M222.54028,188.48443c0,0 -0.77131,-5.81773 -0.77131,-8.48443c0,-2.73096 0.77131,-7.90595 0.77131,-7.90595" fill="none" stroke-linecap="round"/><path d="M242.20874,169.6837c0,0 0.38566,5.99356 0.38566,9.28122c0,3.72736 -0.38566,11.92987 -0.38566,11.92987" data-paper-data="{&quot;index&quot;:null}" fill="none" stroke-linecap="round"/><path d="M247.4151,171.61198c0,0 0.77131,5.9463 0.77131,8.67727c0,2.6667 -0.77131,8.67726 -0.77131,8.67726" data-paper-data="{&quot;index&quot;:null}" fill="none" stroke-linecap="round"/><path d="M251.65732,172.16499c0,0 0.77131,5.17499 0.77131,7.90595c0,2.6667 -0.77131,8.48443 -0.77131,8.48443" data-paper-data="{&quot;index&quot;:null}" fill="none" stroke-linecap="round"/><path d="M218.51005,180h37.40864" fill="none" stroke-linecap="round"/><path d="M218.87654,174.24063c0,0 11.66643,-1.73545 17.93301,-1.73545c6.20231,0 19.47563,1.73545 19.47563,1.73545" fill="none" stroke-linecap="round"/><path d="M256.28519,185.42466c0,0 -13.27333,1.73545 -19.47564,1.73545c-6.26658,0 -17.93301,-1.73545 -17.93301,-1.73545" data-paper-data="{&quot;index&quot;:null}" fill="none" stroke-linecap="round"/></g></g></svg>