<svg version="1.1" xmlns="http://www.w3.org/2000/svg" xmlns:xlink="http://www.w3.org/1999/xlink" width="76.65232" height="41.29104" viewBox="0,0,76.65232,41.29104"><defs><radialGradient cx="290.51144" cy="164.84984" r="9.38704" gradientUnits="userSpaceOnUse" id="color-1"><stop offset="0" stop-color="#ff8f00"/><stop offset="1" stop-color="#ff8f00" stop-opacity="0"/></radialGradient><radialGradient cx="290.51144" cy="164.84984" r="7.72293" gradientUnits="userSpaceOnUse" id="color-2"><stop offset="0" stop-color="#ffe400"/><stop offset="1" stop-color="#ffe400" stop-opacity="0"/></radialGradient><radialGradient cx="290.51144" cy="164.84984" r="3.62062" gradientUnits="userSpaceOnUse" id="color-3"><stop offset="0" stop-color="#fff200"/><stop offset="1" stop-color="#fff200" stop-opacity="0"/></radialGradient></defs><g transform="translate(-223.24616,-155.4628)"><g data-paper-data="{&quot;isPaintingLayer&quot;:true}" fill-rule="nonzero" stroke-linejoin="miter" stroke-miterlimit="10" stroke-dasharray="" stroke-dashoffset="0" style="mix-blend-mode: normal"><path d="M286.8017,168.55957l3.70974,-3.70974" fill="none" stroke="#de7b1f" stroke-width="2" stroke-linecap="round"/><path d="M281.71918,169.9634l3.62062,-3.62062l3.62062,3.62062l-3.62062,3.62062z" fill="#98b6b3" stroke="#000000" stroke-width="2" stroke-linecap="butt"/><path d="M252.49121,188.68826c0,-2.905 2.35496,-5.25996 5.25996,-5.25996c2.905,0 5.25996,2.35496 5.25996,5.25996c0,2.905 -2.35496,5.25996 -5.25996,5.25996c-2.905,0 -5.25996,-2.35496 -5.25996,-5.25996z" fill="#63e677" stroke="#000000" stroke-width="2" stroke-linecap="butt"/><path d="M252.49965,172.59814c0,-2.90499 2.35496,-5.25996 5.25996,-5.25996c2.90499,0 5.25996,2.35496 5.25996,5.25996c0,2.90499 -2.35496,5.25996 -5.25996,5.25996c-2.90499,0 -5.25996,-2.35496 -5.25996,-5.25996z" fill="#63e677" stroke="#000000" stroke-width="2" stroke-linecap="butt"/><path d="M224.24616,180c0,-8.70061 7.05323,-15.75384 15.75384,-15.75384c8.70061,0 15.75384,7.05323 15.75384,15.75384c0,8.70061 -7.05323,15.75384 -15.75384,15.75384c-8.70061,0 -15.75384,-7.05323 -15.75384,-15.75384z" fill="#63e677" stroke="#000000" stroke-width="2" stroke-linecap="butt"/><path d="M247.96872,176.89955c0,-1.13082 0.91671,-2.04752 2.04752,-2.04752c1.13082,0 2.04752,0.91671 2.04752,2.04752c0,1.13082 -0.91671,2.04752 -2.04752,2.04752c-1.13082,0 -2.04752,-0.91671 -2.04752,-2.04752z" fill="#000000" stroke="none" stroke-width="0.5" stroke-linecap="butt"/><path d="M248.32274,184.68796c0,-1.13082 0.91671,-2.04752 2.04752,-2.04752c1.13082,0 2.04752,0.91671 2.04752,2.04752c0,1.13082 -0.91671,2.04752 -2.04752,2.04752c-1.13082,0 -2.04752,-0.91671 -2.04752,-2.04752z" fill="#000000" stroke="none" stroke-width="0.5" stroke-linecap="butt"/><path d="M257.31754,180c0,-8.65403 7.01548,-15.66952 15.66952,-15.66952c8.65403,0 15.66952,7.01548 15.66952,15.66952c0,8.65403 -7.01548,15.66952 -15.66952,15.66952c-8.65403,0 -15.66952,-7.01548 -15.66952,-15.66952z" fill="#98b6b3" stroke="#000000" stroke-width="2" stroke-linecap="butt"/><g stroke="#000000" stroke-width="0" stroke-linecap="butt"><path d="M281.1244,164.84984c0,-5.18432 4.20273,-9.38704 9.38704,-9.38704c5.18432,0 9.38704,4.20272 9.38704,9.38704c0,5.18432 -4.20272,9.38704 -9.38704,9.38704c-5.18432,0 -9.38704,-4.20272 -9.38704,-9.38704z" fill="url(#color-1)"/><path d="M282.78851,164.84984c0,-4.26526 3.45767,-7.72293 7.72293,-7.72293c4.26526,0 7.72293,3.45767 7.72293,7.72293c0,4.26526 -3.45767,7.72293 -7.72293,7.72293c-4.26526,0 -7.72293,-3.45767 -7.72293,-7.72293z" fill="url(#color-2)"/><path d="M286.89082,164.84984c0,-1.99961 1.62101,-3.62062 3.62062,-3.62062c1.99961,0 3.62062,1.62101 3.62062,3.62062c0,1.99961 -1.62101,3.62062 -3.62062,3.62062c-1.99961,0 -3.62062,-1.62101 -3.62062,-3.62062z" fill="url(#color-3)"/></g></g></g></svg>