<svg version="1.1" xmlns="http://www.w3.org/2000/svg" xmlns:xlink="http://www.w3.org/1999/xlink" width="67.38162" height="23.38181" viewBox="0,0,67.38162,23.38181"><defs><radialGradient cx="261.48404" cy="180" r="11.6909" gradientUnits="userSpaceOnUse" id="color-1"><stop offset="0" stop-color="#ffcc00"/><stop offset="1" stop-color="#ffcc00" stop-opacity="0"/></radialGradient></defs><g transform="translate(-205.79332,-168.3091)"><g data-paper-data="{&quot;isPaintingLayer&quot;:true}" fill-rule="nonzero" stroke="#000000" stroke-linejoin="miter" stroke-miterlimit="10" stroke-dasharray="" stroke-dashoffset="0" style="mix-blend-mode: normal"><path d="M207.10706,190.5302h47.37684v-9.02416h-47.65884z" fill="#c41616" stroke-width="2" stroke-linecap="round"/><path d="M207.10706,178.40398h47.37684v-9.02416h-47.65884z" fill="#c41616" stroke-width="2" stroke-linecap="round"/><path d="M207.10706,184.32609h47.37684v-9.02416h-47.65884z" fill="#c41616" stroke-width="2" stroke-linecap="round"/><path d="M255.12418,173.54662l6.35985,4.67636" fill="none" stroke-width="2" stroke-linecap="round"/><path d="M254.75007,180.28058l6.73397,-0.56117" fill="none" stroke-width="2" stroke-linecap="round"/><path d="M255.12418,186.64043l5.61163,-4.67636" fill="none" stroke-width="2" stroke-linecap="round"/><path d="M249.79313,180c0,-6.45671 5.2342,-11.6909 11.6909,-11.6909c6.45671,0 11.6909,5.2342 11.6909,11.6909c0,6.45671 -5.2342,11.6909 -11.6909,11.6909c-6.45671,0 -11.6909,-5.2342 -11.6909,-11.6909z" fill="url(#color-1)" stroke-width="0" stroke-linecap="butt"/></g></g></svg>