<svg version="1.1" xmlns="http://www.w3.org/2000/svg" xmlns:xlink="http://www.w3.org/1999/xlink" width="81.49682" height="59.44756" viewBox="0,0,81.49682,59.44756"><g transform="translate(-208.44489,-149.22851)"><g data-paper-data="{&quot;isPaintingLayer&quot;:true}" fill-rule="nonzero" stroke="#000000" stroke-linejoin="miter" stroke-miterlimit="10" stroke-dasharray="" stroke-dashoffset="0" style="mix-blend-mode: normal"><g stroke-width="1"><path d="M260.38669,199.22911c0,0 4.44367,-8.17385 8.64093,-11.08486c4.19725,-2.91101 12.5751,-3.62954 12.5751,-3.62954l4.74997,6.63816c0,0 -4.39552,7.53372 -8.5531,10.55518c-4.15759,3.02145 -12.33153,4.62234 -12.33153,4.62234l-5.08136,-7.10129z" fill="#c41616" stroke-linecap="round"/><path d="M286.39038,190.75501l-4.55744,-6.36909l2.85376,-2.04202l4.55744,6.36909z" fill="#92b7b7" stroke-linecap="butt"/><path d="M278.24054,201.12316l-9.11488,-12.73819" fill="none" stroke-linecap="round"/><path d="M274.67621,202.87112c0,0 -3.44337,-4.36355 -4.91163,-6.41546c-1.29505,-1.80985 -3.44368,-5.26122 -3.44368,-5.26122" fill="none" stroke-linecap="round"/><path d="M271.05054,203.86045c0,0 -2.79224,-3.00498 -3.84268,-4.47299c-1.07576,-1.50339 -2.99347,-5.08065 -2.99347,-5.08065" fill="none" stroke-linecap="round"/><path d="M268.52306,205.48729c0,0 -2.71628,-2.89882 -3.76672,-4.36684c-1.07576,-1.50339 -2.68964,-4.65604 -2.68964,-4.65604" fill="none" stroke-linecap="round"/><path d="M271.94469,187.38987c0,0 2.57324,3.14753 3.86829,4.95738c1.46825,2.05191 4.48701,6.71929 4.48701,6.71929" data-paper-data="{&quot;index&quot;:null}" fill="none" stroke-linecap="round"/><path d="M275.57036,186.40053c0,0 2.76692,2.9696 3.84269,4.473c1.05045,1.46802 2.99347,5.08065 2.99347,5.08065" data-paper-data="{&quot;index&quot;:null}" fill="none" stroke-linecap="round"/><path d="M278.12353,185.0339c0,0 2.4631,2.545 3.53885,4.04839c1.05045,1.46802 2.91751,4.9745 2.91751,4.9745" data-paper-data="{&quot;index&quot;:null}" fill="none" stroke-linecap="round"/><path d="M262.96231,202.40418l20.59341,-14.73571" fill="none" stroke-linecap="round"/><path d="M260.89537,199.08928c0,0 5.73874,-5.55091 9.18849,-8.01939c3.41436,-2.44316 11.40493,-6.71632 11.40493,-6.71632" fill="none" stroke-linecap="round"/><path d="M285.89431,190.51036c0,0 -6.62334,6.18389 -10.0377,8.62705c-3.44974,2.46848 -10.55571,6.10867 -10.55571,6.10867" data-paper-data="{&quot;index&quot;:null}" fill="none" stroke-linecap="round"/></g><path d="M244.54305,157.87307c0,-4.22197 3.42258,-7.64456 7.64456,-7.64456c4.22197,0 7.64456,3.42258 7.64456,7.64456c0,4.22197 -3.42258,7.64455 -7.64456,7.64455c-4.22197,0 -7.64456,-3.42258 -7.64456,-7.64455z" fill="#63e677" stroke-width="2" stroke-linecap="butt"/><path d="M252.72552,200.03151c0,-4.22197 3.42257,-7.64456 7.64456,-7.64456c4.22197,0 7.64456,3.42257 7.64456,7.64456c0,4.22197 -3.42257,7.64456 -7.64456,7.64456c-4.22197,0 -7.64456,-3.42257 -7.64456,-7.64456z" fill="#63e677" stroke-width="2" stroke-linecap="butt"/><path d="M247.36547,187.95232c0,-2.65893 2.15548,-4.81442 4.81442,-4.81442c2.65893,0 4.81442,2.15548 4.81442,4.81442c0,2.65893 -2.15548,4.81442 -4.81442,4.81442c-2.65893,0 -4.81442,-2.15548 -4.81442,-4.81442z" fill="#ff9797" stroke-width="2" stroke-linecap="butt"/><path d="M247.37319,173.22511c0,-2.65892 2.15548,-4.81442 4.81442,-4.81442c2.65892,0 4.81442,2.15548 4.81442,4.81442c0,2.65892 -2.15548,4.81442 -4.81442,4.81442c-2.65892,0 -4.81442,-2.15548 -4.81442,-4.81442z" fill="#ff9797" stroke-width="2" stroke-linecap="butt"/><path d="M209.4449,180c0,-14.62861 11.85881,-26.48742 26.48742,-26.48742c14.62861,0 26.48742,11.85881 26.48742,26.48742c0,14.62861 -11.85881,26.48742 -26.48742,26.48742c-14.62861,0 -26.48742,-11.85881 -26.48742,-26.48742z" fill="#63e677" stroke-width="2" stroke-linecap="butt"/><path d="M248.10067,169.14181c0,-1.03503 0.83906,-1.87409 1.87409,-1.87409c1.03503,0 1.87409,0.83906 1.87409,1.87409c0,1.03503 -0.83906,1.87409 -1.87409,1.87409c-1.03503,0 -1.87409,-0.83906 -1.87409,-1.87409z" fill="#000000" stroke-width="4" stroke-linecap="butt"/><path d="M248.46303,187.57196c0,-1.03503 0.83906,-1.87409 1.87409,-1.87409c1.03503,0 1.87409,0.83906 1.87409,1.87409c0,1.03503 -0.83906,1.87409 -1.87409,1.87409c-1.03503,0 -1.87409,-0.83906 -1.87409,-1.87409z" fill="#000000" stroke-width="4.5" stroke-linecap="butt"/><path d="M240,163.6545v28.22937" fill="none" stroke-width="6" stroke-linecap="round"/></g></g></svg>