<svg version="1.1" xmlns="http://www.w3.org/2000/svg" xmlns:xlink="http://www.w3.org/1999/xlink" width="40.77341" height="33.50768" viewBox="0,0,40.77341,33.50768"><g transform="translate(-223.24616,-163.24616)"><g data-paper-data="{&quot;isPaintingLayer&quot;:true}" fill-rule="nonzero" stroke-linecap="butt" stroke-linejoin="miter" stroke-miterlimit="10" stroke-dasharray="" stroke-dashoffset="0" style="mix-blend-mode: normal"><path d="M252.49121,188.68826c0,-2.905 2.35496,-5.25996 5.25996,-5.25996c2.905,0 5.25996,2.35496 5.25996,5.25996c0,2.905 -2.35496,5.25996 -5.25996,5.25996c-2.905,0 -5.25996,-2.35496 -5.25996,-5.25996z" fill="#63e677" stroke="#000000" stroke-width="2"/><path d="M252.49965,172.59814c0,-2.90499 2.35496,-5.25996 5.25996,-5.25996c2.90499,0 5.25996,2.35496 5.25996,5.25996c0,2.90499 -2.35496,5.25996 -5.25996,5.25996c-2.90499,0 -5.25996,-2.35496 -5.25996,-5.25996z" fill="#63e677" stroke="#000000" stroke-width="2"/><path d="M224.24616,180c0,-8.70061 7.05323,-15.75384 15.75384,-15.75384c8.70061,0 15.75384,7.05323 15.75384,15.75384c0,8.70061 -7.05323,15.75384 -15.75384,15.75384c-8.70061,0 -15.75384,-7.05323 -15.75384,-15.75384z" fill="#63e677" stroke="#000000" stroke-width="2"/><path d="M247.96872,176.89955c0,-1.13082 0.91671,-2.04752 2.04752,-2.04752c1.13082,0 2.04752,0.91671 2.04752,2.04752c0,1.13082 -0.91671,2.04752 -2.04752,2.04752c-1.13082,0 -2.04752,-0.91671 -2.04752,-2.04752z" fill="#000000" stroke="none" stroke-width="0.5"/><path d="M248.32274,184.68796c0,-1.13082 0.91671,-2.04752 2.04752,-2.04752c1.13082,0 2.04752,0.91671 2.04752,2.04752c0,1.13082 -0.91671,2.04752 -2.04752,2.04752c-1.13082,0 -2.04752,-0.91671 -2.04752,-2.04752z" fill="#000000" stroke="none" stroke-width="0.5"/></g></g></svg>