<svg version="1.1" xmlns="http://www.w3.org/2000/svg" xmlns:xlink="http://www.w3.org/1999/xlink" width="63.11021" height="54.97484" viewBox="0,0,63.11021,54.97484"><g transform="translate(-208.44489,-152.51258)"><g data-paper-data="{&quot;isPaintingLayer&quot;:true}" fill-rule="nonzero" stroke="#000000" stroke-linecap="butt" stroke-linejoin="miter" stroke-miterlimit="10" stroke-dasharray="" stroke-dashoffset="0" style="mix-blend-mode: normal"><path d="M255.13001,167.91717c0,-4.22197 3.42258,-7.64456 7.64456,-7.64456c4.22197,0 7.64456,3.42258 7.64456,7.64456c0,4.22197 -3.42258,7.64455 -7.64456,7.64455c-4.22197,0 -7.64456,-3.42258 -7.64456,-7.64455z" fill="#63e677" stroke-width="2"/><path d="M255.266,193.30168c0,-4.22197 3.42257,-7.64456 7.64456,-7.64456c4.22197,0 7.64456,3.42257 7.64456,7.64456c0,4.22197 -3.42257,7.64456 -7.64456,7.64456c-4.22197,0 -7.64456,-3.42257 -7.64456,-7.64456z" fill="#63e677" stroke-width="2"/><path d="M247.36546,187.95232c0,-2.65893 2.15548,-4.81442 4.81442,-4.81442c2.65893,0 4.81442,2.15548 4.81442,4.81442c0,2.65893 -2.15548,4.81442 -4.81442,4.81442c-2.65893,0 -4.81442,-2.15548 -4.81442,-4.81442z" fill="#ff9797" stroke-width="2"/><path d="M247.37318,173.22511c0,-2.65892 2.15548,-4.81442 4.81442,-4.81442c2.65892,0 4.81442,2.15548 4.81442,4.81442c0,2.65892 -2.15548,4.81442 -4.81442,4.81442c-2.65892,0 -4.81442,-2.15548 -4.81442,-4.81442z" fill="#ff9797" stroke-width="2"/><path d="M209.44489,180c0,-14.62861 11.85881,-26.48742 26.48742,-26.48742c14.62861,0 26.48742,11.85881 26.48742,26.48742c0,14.62861 -11.85881,26.48742 -26.48742,26.48742c-14.62861,0 -26.48742,-11.85881 -26.48742,-26.48742z" fill="#63e677" stroke-width="2"/><path d="M248.10066,169.14181c0,-1.03503 0.83906,-1.87409 1.87409,-1.87409c1.03503,0 1.87409,0.83906 1.87409,1.87409c0,1.03503 -0.83906,1.87409 -1.87409,1.87409c-1.03503,0 -1.87409,-0.83906 -1.87409,-1.87409z" fill="#000000" stroke-width="4"/><path d="M248.46302,187.57196c0,-1.03503 0.83906,-1.87409 1.87409,-1.87409c1.03503,0 1.87409,0.83906 1.87409,1.87409c0,1.03503 -0.83906,1.87409 -1.87409,1.87409c-1.03503,0 -1.87409,-0.83906 -1.87409,-1.87409z" fill="#000000" stroke-width="4.5"/></g></g></svg>