<svg version="1.1" xmlns="http://www.w3.org/2000/svg" xmlns:xlink="http://www.w3.org/1999/xlink" width="119.28681" height="221.41871" viewBox="0,0,119.28681,221.41871"><g transform="translate(-180.35663,-120.35663)"><g data-paper-data="{&quot;isPaintingLayer&quot;:true}" fill-rule="nonzero" stroke-linecap="butt" stroke-linejoin="miter" stroke-miterlimit="10" stroke-dasharray="" stroke-dashoffset="0" style="mix-blend-mode: normal"><path d="M182.85663,238.36726v-114.28673h114.28674v114.28674z" fill="#888d8d" stroke="#000000" stroke-width="5"/><path d="M182.8567,339.27533v-86.99628h114.28674v86.99629z" fill="#f3fdfd" stroke="#000000" stroke-width="5"/><path d="M182.85663,237.14336v-114.28673h114.28674v114.28674z" fill="none" stroke="#000000" stroke-width="5"/><path d="M227.69644,206.96672c0,0 0,-47.3531 0,-52.42365c0,-0.8605 1.39687,-1.50979 2.7503,-1.50979c3.05025,0 15.19285,0 19.94036,0c1.1909,0 1.91646,1.19931 1.91646,2.62795c0,6.3124 0,51.30549 0,51.30549z" fill="#ffffff" stroke="#000000" stroke-width="5"/><path d="M227.69644,188.77535c0,0 0,-15.68762 0,-17.36745c0,-0.28508 1.39687,-0.50018 2.7503,-0.50018c3.05025,0 15.19285,0 19.94036,0c1.1909,0 1.91646,0.39732 1.91646,0.87061c0,2.09124 0,16.99702 0,16.99702z" fill="#ffffff" stroke="#000000" stroke-width="0"/><path d="M227.69644,170.90091c0,0 0,-15.68763 0,-17.36745c0,-0.28508 1.39687,-0.50018 2.7503,-0.50018c3.05025,0 15.19285,0 19.94036,0c1.1909,0 1.91646,0.39732 1.91646,0.87062c0,2.09124 0,16.99702 0,16.99702z" fill="#ff0000" stroke="#000000" stroke-width="0"/><path d="M227.69644,206.96672c0,0 0,-16.22962 0,-17.96748c0,-0.29493 1.39687,-0.51746 2.7503,-0.51746c3.05025,0 15.19285,0 19.94036,0c1.1909,0 1.91646,0.41105 1.91646,0.9007c0,2.16349 0,17.58425 0,17.58425z" fill="#00e0ff" stroke="#000000" stroke-width="0"/><path d="M227.69644,206.96672c0,0 0,-47.3531 0,-52.42365c0,-0.8605 1.39687,-1.50979 2.7503,-1.50979c3.05025,0 15.19285,0 19.94036,0c1.1909,0 1.91646,1.19931 1.91646,2.62795c0,6.3124 0,51.30549 0,51.30549z" fill="none" stroke="#000000" stroke-width="2.5"/><path d="M242.62419,154.71543c1,0 1,1 1,1l-0.00772,0.83147c0.26842,2.17829 0.47625,3.85131 -0.00946,6.04163c-0.26746,1.50119 -0.18683,3.73444 -2.69602,3.79574c-0.50676,0.01238 -2.37926,-3.9965 -2.87182,-4.56246c-0.25587,-0.29399 -2.47599,-2.08696 -3.0297,-2.91515c0.22557,0.85702 0.69706,3.03982 0.69772,3.36077c0.0043,2.09838 -0.06134,3.86876 -1.27827,5.63174c0,0 -0.58124,0.81373 -1.39497,0.2325c-0.81373,-0.58124 -0.2325,-1.39497 -0.2325,-1.39497c1.34309,-1.7914 1.03576,-4.5191 0.64974,-6.60615c-0.12279,-0.66385 -0.4152,-2.79054 0.24957,-3.16991c2.22815,-1.27158 5.65561,3.17929 6.6152,4.61441c0.15658,0.23418 0.60235,1.4547 0.85333,2.22371c0.06348,-0.4959 0.41164,-1.0793 0.4721,-1.57942c0.44752,-2.00951 0.24385,-3.42331 -0.00946,-5.42438l-0.00772,-1.07954c0,0 0,-1 1,-1z" fill="#000000" stroke="none" stroke-width="0.5"/><path d="M245.24816,187.3981c-0.97014,-0.24254 -0.72761,-1.21268 -0.72761,-1.21268l0.10664,-0.30346c0.02375,-3.07396 -2.64786,-3.96498 -5.25938,-4.89188c-0.19504,0.00887 -0.39019,0.01485 -0.58532,0.01794l-0.02269,0.1248l-1.48435,-0.26988c-0.04621,-0.00751 -0.09135,-0.01819 -0.1352,-0.03181c0.05352,1.50723 -0.01303,3.00534 -0.37093,4.47436l-0.26793,1.07171c-0.10106,0.44532 -0.49931,0.77776 -0.97522,0.77776c-0.55228,0 -1,-0.44772 -1,-1v-1.638h0.20449c-0.55351,-2.92472 -0.61487,-6.28883 0.01043,-9.0644c-0.04688,-0.62512 -0.07786,-1.2447 -0.07842,-1.85562c0,0 0,-1 1,-1c0.27208,0 0.47013,0.07403 0.6143,0.1818c1.83141,-1.34314 4.95489,-1.38613 6.68506,0.02646c3.14764,2.56988 2.37993,6.00605 -0.48908,7.49122c2.57894,0.98304 4.13337,2.20593 4.15422,5.58553l-0.16636,0.78854c0,0 -0.24254,0.97014 -1.21268,0.72761zM236.69883,174.94711c0.06765,1.33054 0.21641,2.67438 0.32607,4.01752c0.12571,-0.05696 0.26529,-0.08867 0.41228,-0.08867c0.0474,0 0.09404,0.0033 0.13968,0.00968l1.02997,0.12875c0.65008,-0.00068 1.30123,-0.04407 1.94617,-0.12551c5.98253,-1.06484 -0.60947,-7.57166 -3.46462,-4.48635c-0.1547,0.16718 -0.28338,0.34941 -0.38955,0.54459z" fill="#000000" stroke="none" stroke-width="0.5"/><path d="M236.29119,198.01147c-0.8,-0.6 -0.2,-1.4 -0.2,-1.4l0.29036,-0.33992c2.03254,-4.21881 6.92655,-1.02836 8.94092,1.5518c0.62662,0.80263 1.56578,1.5248 1.43849,2.73821c-0.27941,2.66354 -2.98518,3.20194 -5.06238,2.6704c-1.69317,-0.43327 -3.39088,-0.94943 -5.10469,-1.38022c-1.45571,-0.54442 -2.54947,-0.81442 -3.7607,-1.82903c-3.13161,-2.62325 -2.5916,-6.44989 1.18176,-8.22364c3.11512,-1.46433 7.6042,-2.36646 10.55549,-0.31536c0,0 0.81373,0.58124 0.2325,1.39497c-0.58124,0.81373 -1.39497,0.2325 -1.39497,0.2325c-2.24334,-1.66336 -6.20105,-0.58376 -8.55453,0.50364c-2.86761,1.32496 -2.63292,4.17495 0.06022,5.58557c0.70653,0.37007 1.52831,0.46105 2.27485,0.74178c1.20434,0.29923 2.48946,0.46122 3.67314,0.81524c0.45574,0.13631 0.86414,0.40977 1.32318,0.53455c6.39019,1.73706 -2.56679,-8.4888 -3.96498,-4.23259l-0.52865,0.75208c0,0 -0.6,0.8 -1.4,0.2z" fill="#000000" stroke="none" stroke-width="0.5"/></g></g></svg>