<svg version="1.1" xmlns="http://www.w3.org/2000/svg" xmlns:xlink="http://www.w3.org/1999/xlink" width="99.16302" height="99.16302" viewBox="0,0,99.16302,99.16302"><defs><radialGradient cx="240" cy="180" r="49.58151" gradientUnits="userSpaceOnUse" id="color-1"><stop offset="0" stop-color="#ffffff"/><stop offset="1" stop-color="#ffffff" stop-opacity="0"/></radialGradient><radialGradient cx="240" cy="180" r="40.79183" gradientUnits="userSpaceOnUse" id="color-2"><stop offset="0" stop-color="#ffffff"/><stop offset="1" stop-color="#ffffff" stop-opacity="0"/></radialGradient><radialGradient cx="240" cy="180" r="19.12379" gradientUnits="userSpaceOnUse" id="color-3"><stop offset="0" stop-color="#fffa9c"/><stop offset="1" stop-color="#fffa9c" stop-opacity="0"/></radialGradient></defs><g transform="translate(-190.41849,-130.41849)"><g data-paper-data="{&quot;isPaintingLayer&quot;:true}" fill-rule="nonzero" stroke="#000000" stroke-width="0" stroke-linecap="butt" stroke-linejoin="miter" stroke-miterlimit="10" stroke-dasharray="" stroke-dashoffset="0" style="mix-blend-mode: normal"><path d="M190.41849,180c0,-27.38312 22.19844,-49.58151 49.58151,-49.58151c27.38312,0 49.58151,22.19839 49.58151,49.58151c0,27.38312 -22.19839,49.58151 -49.58151,49.58151c-27.38312,0 -49.58151,-22.19839 -49.58151,-49.58151z" fill="url(#color-1)"/><path d="M199.20817,180c0,-22.52872 18.2631,-40.79183 40.79183,-40.79183c22.52872,0 40.79183,18.2631 40.79183,40.79183c0,22.52872 -18.2631,40.79183 -40.79183,40.79183c-22.52872,0 -40.79183,-18.2631 -40.79183,-40.79183z" fill="url(#color-2)"/><path d="M220.87621,180c0,-10.56176 8.56203,-19.12379 19.12379,-19.12379c10.56176,0 19.12379,8.56203 19.12379,19.12379c0,10.56176 -8.56203,19.12379 -19.12379,19.12379c-10.56176,0 -19.12379,-8.56203 -19.12379,-19.12379z" fill="url(#color-3)"/></g></g></svg>