<svg version="1.1" xmlns="http://www.w3.org/2000/svg" xmlns:xlink="http://www.w3.org/1999/xlink" width="119.28681" height="221.41875" viewBox="0,0,119.28681,221.41875"><g transform="translate(-180.35663,-120.35663)"><g data-paper-data="{&quot;isPaintingLayer&quot;:true}" fill-rule="nonzero" stroke-linejoin="miter" stroke-miterlimit="10" stroke-dasharray="" stroke-dashoffset="0" style="mix-blend-mode: normal"><path d="M182.85663,237.14336v-114.28673h114.28674v114.28674z" fill="#888d8d" stroke="#000000" stroke-width="5" stroke-linecap="butt"/><path d="M182.8567,339.27537v-86.99628h114.28674v86.99629z" fill="#f3fdfd" stroke="#000000" stroke-width="5" stroke-linecap="butt"/><text transform="translate(188.73403,266.86915) scale(0.28175,0.28175)" font-size="40" xml:space="preserve" fill="#1fd529" fill-rule="nonzero" stroke="none" stroke-width="1" stroke-linecap="butt" stroke-linejoin="miter" stroke-miterlimit="10" stroke-dasharray="" stroke-dashoffset="0" font-family="Sans Serif" font-weight="normal" text-anchor="start" style="mix-blend-mode: normal"><tspan x="0" dy="0">+30% knockback</tspan></text><path d="M182.85663,237.14336v-114.28673h114.28674v114.28674z" fill="none" stroke="#000000" stroke-width="5" stroke-linecap="butt"/><text transform="translate(188.73403,279.99252) scale(0.28175,0.28175)" font-size="40" xml:space="preserve" fill="#1fd529" fill-rule="nonzero" stroke="none" stroke-width="1" stroke-linecap="butt" stroke-linejoin="miter" stroke-miterlimit="10" stroke-dasharray="" stroke-dashoffset="0" font-family="Sans Serif" font-weight="normal" text-anchor="start" style="mix-blend-mode: normal"><tspan x="0" dy="0">-10% damage</tspan></text><path d="M222.24732,190.00472c0,0 0.67126,-1.30096 0.67126,-1.97104c0,-0.6361 -0.67126,-1.95281 -0.67126,-1.95281h74.89605v3.92385z" fill="#93aac7" stroke="#000000" stroke-width="1.5" stroke-linecap="butt"/><path d="M256.88032,190.47071l-3.27383,3.96514l-19.25381,1.53166l-14.18515,0.09225l5.33921,-5.13363z" fill="#d6bb5f" stroke="#000000" stroke-width="1.5" stroke-linecap="round"/><path d="M225.22567,186.17366v5.81868l5.99979,0.02956c0,0 0.68364,1.20004 0.68787,1.71663c0.00529,0.6466 -0.65861,1.01792 -0.65861,1.01792l-9.08852,0.09613c0,0 0.57173,-1.01945 0.57585,-1.81654c0.00376,-0.727 -0.5521,-1.93179 -0.5521,-1.93179c0,0 0.58412,-1.48779 0.59536,-2.27554c0.01214,-0.8509 -0.52499,-2.65504 -0.52499,-2.65504z" fill="#c5daf3" stroke="#000000" stroke-width="1.5" stroke-linecap="round"/><path d="M222.44915,186.29472c0,0 0.59613,1.50931 0.58674,3.01846c-0.00524,0.84215 -0.62467,1.68426 -0.61608,2.26401c0.00691,0.46666 0.46902,1.95002 0.47403,2.07027c0.04909,1.17774 -0.30398,2.1458 -0.30398,2.1458l-6.05093,1.54791l-33.62099,10.84588l-0.06131,-14.87064l18.7636,-2.62318l1.3287,1.16261l11.05706,-3.73178l4.36229,-1.82935h4.08086z" fill="#d6bb5f" stroke="#000000" stroke-width="1.5" stroke-linecap="round"/><path d="M222.24732,155.7368c0,0 0.47377,-1.30096 0.47377,-1.97104c0,-0.6361 -0.47377,-1.95281 -0.47377,-1.95281h52.86136v3.92385z" fill="#93aac7" stroke="#000000" stroke-width="1.5" stroke-linecap="butt"/><path d="M256.88032,156.20279l-3.27383,3.96514l-19.25381,1.53166l-14.18515,0.09225l5.33921,-5.13363z" fill="#d6bb5f" stroke="#000000" stroke-width="1.5" stroke-linecap="round"/><path d="M225.22567,151.90575v5.81868l5.99979,0.02956c0,0 0.68364,1.20004 0.68787,1.71663c0.00529,0.6466 -0.65861,1.01792 -0.65861,1.01792l-9.08852,0.09613c0,0 0.57173,-1.01945 0.57585,-1.81654c0.00376,-0.727 -0.5521,-1.93179 -0.5521,-1.93179c0,0 0.58412,-1.48779 0.59536,-2.27554c0.01214,-0.8509 -0.52499,-2.65504 -0.52499,-2.65504z" fill="#c5daf3" stroke="#000000" stroke-width="1.5" stroke-linecap="round"/><path d="M222.44915,152.0268c0,0 0.59613,1.50931 0.58674,3.01846c-0.00524,0.84215 -0.62467,1.68426 -0.61608,2.26401c0.00691,0.46666 0.46902,1.95002 0.47403,2.07027c0.04909,1.17774 -0.30398,2.1458 -0.30398,2.1458l-6.05093,1.54791l-33.62099,10.84588l-0.06131,-14.87064l18.7636,-2.62318l1.3287,1.16261l11.05706,-3.73178l4.36229,-1.82935h4.08086z" fill="#d6bb5f" stroke="#000000" stroke-width="1.5" stroke-linecap="round"/><g data-paper-data="{&quot;index&quot;:null}" fill="none" stroke="#000000" stroke-width="4.5" stroke-linecap="round"><path d="M262.78605,159.33973c0,0 9.79458,4.8241 10.81521,8.05405c0.96956,3.06834 -4.83674,10.86569 -4.83674,10.86569"/><path d="M273.60991,179.66296l-8.0045,2.52936l-2.52937,-8.00451"/></g></g></g></svg>