<svg version="1.1" xmlns="http://www.w3.org/2000/svg" xmlns:xlink="http://www.w3.org/1999/xlink" width="119.28674" height="221.41871" viewBox="0,0,119.28674,221.41871"><g transform="translate(-180.35663,-120.35663)"><g data-paper-data="{&quot;isPaintingLayer&quot;:true}" fill-rule="nonzero" stroke-linejoin="miter" stroke-miterlimit="10" stroke-dasharray="" stroke-dashoffset="0" style="mix-blend-mode: normal"><path d="M182.85663,237.14336v-114.28673h114.28674v114.28674z" fill="#888d8d" stroke="#000000" stroke-width="5" stroke-linecap="butt"/><path d="M236.33833,214.22076c-2.03642,-1.63538 -7.83409,-10.04393 -7.83409,-10.04393l8.0243,-6.21857c0,0 5.14718,7.24141 6.40082,8.41599c1.25363,1.17457 8.56641,4.42963 8.56641,4.42963l-2.52917,8.74654c0,0 -4.30773,-1.17599 -5.05022,-1.52071c-2.56603,-1.00463 -6.44993,-2.61303 -7.57804,-3.80893z" fill="#597b80" stroke="#ffffff" stroke-width="2" stroke-linecap="round"/><path d="M247.57244,165.38534l9.03228,10.58929l-6.39353,5.45345l-9.03228,-10.58929z" fill="#597b80" stroke="#ffffff" stroke-width="2" stroke-linecap="round"/><path d="M188.94181,181.66561l22.79894,-12.06501l3.80419,7.18868l-18.97164,18.27695z" fill="#64898e" stroke="#000000" stroke-width="3" stroke-linecap="round"/><path d="M273.38199,138.60923l16.62202,-8.79624l1.05419,1.99208l-8.8254,4.67033l-4.23999,2.24377l-3.38303,1.88265l-10.91317,7.5656l-18.38624,9.72985l-1.24581,2.07138l1.87373,3.98547l-8.23087,6.23852l-7.90608,4.18383l-2.20773,9.17027l-6.88948,3.88121l2.81367,-11.13841l-7.6135,0.73407l-3.79464,-7.17063l60.54913,-32.04209z" fill="#6a9197" stroke="#000000" stroke-width="3.5" stroke-linecap="round"/><path d="M222.40991,169.16409l10.14081,-5.36643c0,0 2.69021,0.85443 3.13628,1.69737c0.41528,0.78474 -0.54559,3.19819 -0.54559,3.19819l-11.53954,6.10663c0,0 -1.28366,-2.39256 -1.50338,-3.43138c-0.15262,-0.7216 0.31142,-2.20438 0.31142,-2.20438z" fill="#888d8d" stroke="#000000" stroke-width="3" stroke-linecap="round"/><path d="M271.72674,135.90427l3.88604,7.34335l-26.9256,14.2488l-3.79351,-7.1685z" fill="#41595d" stroke="#000000" stroke-width="4" stroke-linecap="round"/><path d="M227.93461,171.82567c0,0 -2.5053,-0.50501 -2.85871,-1.17285c-0.3842,-0.72602 0.63812,-3.02335 0.63812,-3.02335" fill="none" stroke="#000000" stroke-width="1.5" stroke-linecap="round"/><g fill="none" stroke="#000000" stroke-width="4.5" stroke-linecap="round"><path d="M257.08708,185.13447c0,0 4.35379,7.18518 3.6779,9.70254c-0.64208,2.39141 -7.637,5.04318 -7.637,5.04318"/><path d="M255.68893,202.79722l-6.23857,-1.675l1.675,-6.23858"/></g><path d="M218.7448,191.51385l12.20389,-6.9262" fill="none" stroke="#888d8d" stroke-width="5" stroke-linecap="round"/><path d="M229.94627,185.09798l1.8733,-7.70133" fill="none" stroke="#888d8d" stroke-width="5" stroke-linecap="round"/><path d="M235.33991,172.37712l-6.6348,3.5866" fill="none" stroke="#000000" stroke-width="2" stroke-linecap="round"/><path d="M220.47109,178.48222l-1.8733,9.31315" fill="none" stroke="#888d8d" stroke-width="5" stroke-linecap="round"/><path d="M216.91582,176.96075l6.37053,-0.61403" fill="none" stroke="#000000" stroke-width="3.5" stroke-linecap="round"/><path d="M182.85663,339.27533v-86.99628h114.28674v86.99629z" fill="#f3fdfd" stroke="#000000" stroke-width="5" stroke-linecap="butt"/><text transform="translate(188.73394,267.24705) scale(0.28175,0.28175)" font-size="40" xml:space="preserve" fill="#1fd529" fill-rule="nonzero" stroke="none" stroke-width="1" stroke-linecap="butt" stroke-linejoin="miter" stroke-miterlimit="10" stroke-dasharray="" stroke-dashoffset="0" font-family="Sans Serif" font-weight="normal" text-anchor="start" style="mix-blend-mode: normal"><tspan x="0" dy="0">+50% Mag size</tspan></text><text transform="translate(188.73394,282.21999) scale(0.28175,0.28175)" font-size="40" xml:space="preserve" fill="#1fd529" fill-rule="nonzero" stroke="none" stroke-width="1" stroke-linecap="butt" stroke-linejoin="miter" stroke-miterlimit="10" stroke-dasharray="" stroke-dashoffset="0" font-family="Sans Serif" font-weight="normal" text-anchor="start" style="mix-blend-mode: normal"><tspan x="0" dy="0">-20% Reload Speed</tspan></text></g></g></svg>