<svg version="1.1" xmlns="http://www.w3.org/2000/svg" xmlns:xlink="http://www.w3.org/1999/xlink" width="99.41469" height="99.41469" viewBox="0,0,99.41469,99.41469"><g transform="translate(-190.29266,-130.29266)"><g data-paper-data="{&quot;isPaintingLayer&quot;:true}" fill-rule="nonzero" stroke-linejoin="miter" stroke-miterlimit="10" stroke-dasharray="" stroke-dashoffset="0" style="mix-blend-mode: normal"><path d="" fill="#92b7b7" stroke="#000000" stroke-width="2" stroke-linecap="butt"/><path d="" fill="#536565" stroke="#000000" stroke-width="2" stroke-linecap="butt"/><path d="" fill="#536565" stroke="#000000" stroke-width="2" stroke-linecap="butt"/><path d="" fill="#536565" stroke="#000000" stroke-width="2" stroke-linecap="butt"/><path d="M240,228.29313l-48.29313,-48.29313l48.29313,-48.29313l48.29313,48.29313z" fill="#ffffff" stroke="#000000" stroke-width="2" stroke-linecap="butt"/><path d="M218.72319,195.08917c0,-4.90447 0,-18.65879 0,-21.0597c0,-0.70089 1.33678,-1.30266 2.82243,-1.30266c4.81612,0 30.97063,0 37.9943,0c1.10534,0 1.73688,1.83178 1.73688,3.47376c0,3.20669 0,14.52207 0,18.8886c0,1.08163 -0.54885,1.73688 -1.51977,1.73688c-6.86291,0 -34.81381,0 -39.07985,0c-1.0683,0 -1.95399,-0.65188 -1.95399,-1.73688z" fill="#ff0000" stroke="#000000" stroke-width="3.5" stroke-linecap="butt"/><path d="M229.57871,172.50969c0,0 0,-5.70996 0,-7.38175c0,-0.86013 1.2173,-1.95399 2.38821,-1.95399c2.48901,0 11.96265,0 16.28327,0c1.32952,0 2.17111,1.38453 2.17111,2.38821c0,1.71188 0,6.94753 0,6.94753z" fill="none" stroke="#000000" stroke-width="3.5" stroke-linecap="butt"/><path d="M229.14448,196.39183v-22.79658h21.92814v22.79658z" fill="#ffffff" stroke="#000000" stroke-width="3.5" stroke-linecap="butt"/><path d="M240.10856,179.14888v11.68932" fill="none" stroke="#ff0000" stroke-width="3.5" stroke-linecap="round"/><path d="M234.26389,184.99354h11.68932" fill="none" stroke="#ff0000" stroke-width="3.5" stroke-linecap="round"/></g></g></svg>