<svg version="1.1" xmlns="http://www.w3.org/2000/svg" xmlns:xlink="http://www.w3.org/1999/xlink" width="199.33116" height="199.17669" viewBox="0,0,199.33116,199.17669"><g transform="translate(-142.70942,-80.41165)"><g data-paper-data="{&quot;isPaintingLayer&quot;:true}" fill-rule="nonzero" stroke-linejoin="miter" stroke-miterlimit="10" stroke-dasharray="" stroke-dashoffset="0" style="mix-blend-mode: normal"><path d="M147.61389,274.83835v-189.67669h189.67669v189.67669z" fill="#ffffff" stroke="#000000" stroke-width="9.5" stroke-linecap="butt"/><path d="" fill="#92b7b7" stroke="#000000" stroke-width="2" stroke-linecap="butt"/><path d="" fill="#536565" stroke="#000000" stroke-width="2" stroke-linecap="butt"/><path d="" fill="#536565" stroke="#000000" stroke-width="2" stroke-linecap="butt"/><path d="" fill="#536565" stroke="#000000" stroke-width="2" stroke-linecap="butt"/><path d="M142.70942,270.24404v-180.3474h180.14127v180.3474z" fill="#ffffff" stroke="#ffffff" stroke-width="0" stroke-linecap="butt"/><path d="M191.12065,214.66445c0,-11.26707 0,-42.86497 0,-48.38059c0,-1.61016 3.07099,-2.99261 6.48399,-2.99261c11.06411,0 71.14904,0 87.28457,0c2.53931,0 3.99015,4.20816 3.99015,7.98029c0,7.36675 0,33.36165 0,43.39291c0,2.48484 -1.26088,3.99015 -3.49138,3.99015c-15.76621,0 -79.978,0 -89.77841,0c-2.45421,0 -4.48891,-1.49757 -4.48891,-3.99015z" fill="#ff0000" stroke="#000000" stroke-width="7" stroke-linecap="butt"/><path d="M216.05911,162.79246c0,0 0,-13.11753 0,-16.95814c0,-1.97598 2.79651,-4.48891 5.48645,-4.48891c5.71802,0 27.48188,0 37.40767,0c3.05432,0 4.98771,3.18069 4.98771,5.48645c0,3.93271 0,15.96061 0,15.96061z" fill="none" stroke="#000000" stroke-width="7" stroke-linecap="butt"/><path d="M215.06155,217.65706v-52.37074h50.37567v52.37074z" fill="#ffffff" stroke="#000000" stroke-width="7" stroke-linecap="butt"/><path d="M240.24941,178.04472v26.85395" fill="none" stroke="#ff0000" stroke-width="7" stroke-linecap="round"/><path d="M226.82241,191.47169h26.85395" fill="none" stroke="#ff0000" stroke-width="7" stroke-linecap="round"/></g></g></svg>