<svg version="1.1" xmlns="http://www.w3.org/2000/svg" xmlns:xlink="http://www.w3.org/1999/xlink" width="371.47493" height="371.47493" viewBox="0,0,371.47493,371.47493"><g transform="translate(-54.26255,5.73746)"><g data-paper-data="{&quot;isPaintingLayer&quot;:true}" fill-rule="nonzero" stroke-linejoin="miter" stroke-miterlimit="10" stroke-dasharray="" stroke-dashoffset="0" style="mix-blend-mode: normal"><path d="M200.52357,194.6345c0,0 12.62144,13.14582 23.26757,15.94743c10.64613,2.80161 22.57398,3.37203 36.33923,-0.26143c5.28363,-1.39466 10.54166,-6.90073 12.01413,-10.12868c2.86844,-6.28819 13.26652,-8.76431 13.26652,-8.76431" fill="none" stroke="#000000" stroke-width="4" stroke-linecap="round"/><path d="M54.26256,365.73748v-371.47493h371.47493v371.47493z" fill="none" stroke="none" stroke-width="0" stroke-linecap="butt"/><path d="M319.48241,190.74808c-0.22882,4.85285 -4.34834,8.60137 -9.20119,8.37255c-4.85285,-0.22882 -8.60137,-4.34834 -8.37255,-9.20119c0.22882,-4.85285 4.34834,-8.60137 9.20119,-8.37255c4.85285,0.22882 8.60137,4.34834 8.37255,9.20119z" fill="#ffffae" stroke="#000000" stroke-width="2.5" stroke-linecap="butt"/><path d="M210.60689,180.00001c0,-16.23337 13.15974,-29.39312 29.39312,-29.39312c16.23337,0 29.39312,13.15974 29.39312,29.39312c0,16.23337 -13.15974,29.39312 -29.39312,29.39312c-16.23337,0 -29.39312,-13.15974 -29.39312,-29.39312z" fill="#ffffae" stroke="#000000" stroke-width="2.5" stroke-linecap="butt"/><path d="M254.86785,174.21526c0,-2.10985 1.71038,-3.82022 3.82022,-3.82022c2.10985,0 3.82022,1.71038 3.82022,3.82022c0,2.10985 -1.71038,3.82022 -3.82022,3.82022c-2.10985,0 -3.82022,-1.71038 -3.82022,-3.82022z" fill="#000000" stroke="none" stroke-width="0.5" stroke-linecap="butt"/><path d="M255.52837,188.74669c0,-2.10985 1.71038,-3.82022 3.82022,-3.82022c2.10985,0 3.82022,1.71038 3.82022,3.82022c0,2.10985 -1.71038,3.82022 -3.82022,3.82022c-2.10985,0 -3.82022,-1.71038 -3.82022,-3.82022z" fill="#000000" stroke="none" stroke-width="0.5" stroke-linecap="butt"/><path d="M171.12563,179.94376c0,-11.37495 9.22122,-20.59617 20.59617,-20.59617c11.37495,0 20.59617,9.22122 20.59617,20.59617c0,11.37495 -9.22122,20.59617 -20.59617,20.59617c-11.37495,0 -20.59617,-9.22122 -20.59617,-20.59617z" fill="#e12323" stroke="#000000" stroke-width="2" stroke-linecap="butt"/><path d="M180.31523,179.94376c0,-6.29967 5.10689,-11.40656 11.40656,-11.40656c6.29967,0 11.40656,5.1069 11.40656,11.40657c0,6.29967 -5.10689,11.40656 -11.40656,11.40656c-6.29967,0 -11.40656,-5.10689 -11.40656,-11.40656z" fill="#859bb4" stroke="#000000" stroke-width="2" stroke-linecap="butt"/><path d="M283.96354,191.10651l43.45347,-3.41035" fill="none" stroke="#000000" stroke-width="7" stroke-linecap="round"/><path d="M287.17188,192.83093c-0.22882,4.85285 -4.34834,8.60137 -9.20119,8.37255c-4.85285,-0.22882 -8.60137,-4.34834 -8.37255,-9.20119c0.22882,-4.85285 4.34834,-8.60137 9.20119,-8.37255c4.85285,0.22882 8.60137,4.34834 8.37255,9.20119z" fill="#ffffae" stroke="#000000" stroke-width="2.5" stroke-linecap="butt"/></g></g></svg>