<svg version="1.1" xmlns="http://www.w3.org/2000/svg" xmlns:xlink="http://www.w3.org/1999/xlink" width="199.33116" height="199.17669" viewBox="0,0,199.33116,199.17669"><defs><radialGradient cx="264.67784" cy="180" r="19.70269" gradientUnits="userSpaceOnUse" id="color-1"><stop offset="0" stop-color="#ffb900"/><stop offset="1" stop-color="#ffb900" stop-opacity="0"/></radialGradient><radialGradient cx="261.30415" cy="174.76583" r="11.08555" gradientUnits="userSpaceOnUse" id="color-2"><stop offset="0" stop-color="#ffb900"/><stop offset="1" stop-color="#ffb900" stop-opacity="0"/></radialGradient><radialGradient cx="258.08936" cy="187.33673" r="11.08554" gradientUnits="userSpaceOnUse" id="color-3"><stop offset="0" stop-color="#ffb900"/><stop offset="1" stop-color="#ffb900" stop-opacity="0"/></radialGradient></defs><g transform="translate(-142.70942,-80.41164)"><g data-paper-data="{&quot;isPaintingLayer&quot;:true}" fill-rule="nonzero" stroke-linejoin="miter" stroke-miterlimit="10" stroke-dasharray="" stroke-dashoffset="0" style="mix-blend-mode: normal"><path d="M147.61389,274.83833v-189.67669h189.67669v189.67669z" fill="#ffffff" stroke="#000000" stroke-width="9.5" stroke-linecap="butt"/><path d="" fill="#92b7b7" stroke="#000000" stroke-width="2" stroke-linecap="butt"/><path d="" fill="#536565" stroke="#000000" stroke-width="2" stroke-linecap="butt"/><path d="" fill="#536565" stroke="#000000" stroke-width="2" stroke-linecap="butt"/><path d="" fill="#536565" stroke="#000000" stroke-width="2" stroke-linecap="butt"/><path d="M142.70942,270.24406v-180.3474h180.14127v180.3474z" fill="#ffffff" stroke="#ffffff" stroke-width="0" stroke-linecap="butt"/><g stroke="#000000" stroke-width="2" stroke-linecap="round"><path d="M256.4858,172.8303v14.50643h-43.31425v-14.37334z" fill="#ff6b6b"/><path d="M266.82846,172.66328v14.67345h-7.78951v-14.53883z" fill="#fff3f3"/></g><path d="M244.97514,180c0,-10.8815 8.8212,-19.70269 19.70269,-19.70269c10.8815,0 19.70269,8.8212 19.70269,19.70269c0,10.8815 -8.82121,19.70269 -19.70269,19.70269c-10.8815,0 -19.70269,-8.8212 -19.70269,-19.70269z" fill="url(#color-1)" stroke="none" stroke-width="0" stroke-linecap="butt"/><path d="M250.21861,174.76583c0,-6.12238 4.96317,-11.08555 11.08554,-11.08555c6.12238,0 11.08555,4.96317 11.08555,11.08555c0,6.12238 -4.96317,11.08554 -11.08555,11.08554c-6.12238,0 -11.08554,-4.96317 -11.08554,-11.08554z" fill="url(#color-2)" stroke="none" stroke-width="0" stroke-linecap="butt"/><path d="M247.00381,187.33673c0,-6.12238 4.96317,-11.08555 11.08555,-11.08555c6.12238,0 11.08554,4.96317 11.08554,11.08555c0,6.12238 -4.96316,11.08556 -11.08554,11.08556c-6.12238,0 -11.08555,-4.96318 -11.08555,-11.08556z" fill="url(#color-3)" stroke="none" stroke-width="0" stroke-linecap="butt"/></g></g></svg>