<svg version="1.1" xmlns="http://www.w3.org/2000/svg" xmlns:xlink="http://www.w3.org/1999/xlink" width="99.41469" height="99.41469" viewBox="0,0,99.41469,99.41469"><defs><radialGradient cx="257.8933" cy="180" r="14.28594" gradientUnits="userSpaceOnUse" id="color-1"><stop offset="0" stop-color="#ffb900"/><stop offset="1" stop-color="#ffb900" stop-opacity="0"/></radialGradient><radialGradient cx="255.44712" cy="176.20483" r="8.03786" gradientUnits="userSpaceOnUse" id="color-2"><stop offset="0" stop-color="#ffb900"/><stop offset="1" stop-color="#ffb900" stop-opacity="0"/></radialGradient><radialGradient cx="253.11615" cy="185.31968" r="8.03786" gradientUnits="userSpaceOnUse" id="color-3"><stop offset="0" stop-color="#ffb900"/><stop offset="1" stop-color="#ffb900" stop-opacity="0"/></radialGradient></defs><g transform="translate(-190.29266,-130.29266)"><g data-paper-data="{&quot;isPaintingLayer&quot;:true}" fill-rule="nonzero" stroke-linejoin="miter" stroke-miterlimit="10" stroke-dasharray="" stroke-dashoffset="0" style="mix-blend-mode: normal"><path d="" fill="#92b7b7" stroke="#000000" stroke-width="2" stroke-linecap="butt"/><path d="" fill="#536565" stroke="#000000" stroke-width="2" stroke-linecap="butt"/><path d="" fill="#536565" stroke="#000000" stroke-width="2" stroke-linecap="butt"/><path d="" fill="#536565" stroke="#000000" stroke-width="2" stroke-linecap="butt"/><path d="M240,228.29313l-48.29313,-48.29313l48.29313,-48.29313l48.29313,48.29313z" fill="#ffffff" stroke="#000000" stroke-width="2" stroke-linecap="butt"/><g stroke="#000000" stroke-width="2" stroke-linecap="round"><path d="M220.54734,174.89792l0,10.42176h31.40611v-10.51826z" fill="#ff6b6b"/><path d="M253.80467,174.77793v10.54175h5.64799v-10.63936z" fill="#fff3f3"/></g><path d="M243.60735,180c0,-7.88991 6.39604,-14.28594 14.28594,-14.28594c7.88991,0 14.28594,6.39604 14.28594,14.28594c0,7.88991 -6.39604,14.28594 -14.28594,14.28594c-7.88991,0 -14.28594,-6.39604 -14.28594,-14.28594z" fill="url(#color-1)" stroke="none" stroke-width="0" stroke-linecap="butt"/><path d="M247.40926,176.20483c0,-4.43919 3.59867,-8.03786 8.03786,-8.03786c4.43919,0 8.03786,3.59867 8.03786,8.03786c0,4.43919 -3.59867,8.03786 -8.03786,8.03786c-4.43919,0 -8.03786,-3.59867 -8.03786,-8.03786z" fill="url(#color-2)" stroke="none" stroke-width="0" stroke-linecap="butt"/><path d="M245.07829,185.31968c0,-4.43919 3.59867,-8.03786 8.03786,-8.03786c4.43919,0 8.03786,3.59867 8.03786,8.03786c0,4.43919 -3.59867,8.03787 -8.03786,8.03787c-4.43919,0 -8.03786,-3.59868 -8.03786,-8.03787z" fill="url(#color-3)" stroke="none" stroke-width="0" stroke-linecap="butt"/></g></g></svg>