<svg version="1.1" xmlns="http://www.w3.org/2000/svg" xmlns:xlink="http://www.w3.org/1999/xlink" width="371.47493" height="371.47493" viewBox="0,0,371.47493,371.47493"><g transform="translate(-54.26254,5.73746)"><g data-paper-data="{&quot;isPaintingLayer&quot;:true}" fill-rule="nonzero" stroke-linejoin="miter" stroke-miterlimit="10" stroke-dasharray="" stroke-dashoffset="0" style="mix-blend-mode: normal"><path d="M263.64787,186.43035c0,-6.29954 5.10679,-11.40633 11.40633,-11.40633c6.29954,0 11.40633,5.10679 11.40633,11.40633c0,6.29954 -5.10679,11.40633 -11.40633,11.40633c-6.29954,0 -11.40633,-5.10679 -11.40633,-11.40633z" fill="#ffffae" stroke="#000000" stroke-width="2.5" stroke-linecap="butt"/><path d="M272.17767,181.43621v-4.38386h8.76773v4.38386z" fill="#f64c4c" stroke="#000000" stroke-width="2.5" stroke-linecap="butt"/><path d="M276.36123,185.59031v-13.15083c0,0 9.8887,0 13.91532,0c0.40849,0 0.66876,1.11951 1.15489,1.11951c5.06214,0 11.27662,0 11.27662,0l0.09624,10.07218c0,0 -6.07634,0 -11.08414,0c-0.59462,0 -0.56874,1.95914 -1.05865,1.95914c-4.10689,0 -14.30028,0 -14.30028,0z" fill="#e65858" stroke="#000000" stroke-width="2.5" stroke-linecap="butt"/><path d="M54.26255,365.73748v-371.47493h371.47493v371.47493z" fill="none" stroke="none" stroke-width="0" stroke-linecap="butt"/><path d="M294.25248,183.67995h8.64336" fill="none" stroke="#000000" stroke-width="2.5" stroke-linecap="round"/><path d="M294.12811,173.60438h8.70555" fill="none" stroke="#000000" stroke-width="2.5" stroke-linecap="round"/><path d="M302.80429,178.92204h-2.09907" fill="none" stroke="#000000" stroke-width="2.5" stroke-linecap="round"/></g></g></svg>