<svg version="1.1" xmlns="http://www.w3.org/2000/svg" xmlns:xlink="http://www.w3.org/1999/xlink" width="119.28681" height="221.41875" viewBox="0,0,119.28681,221.41875"><g transform="translate(-180.35663,-120.35663)"><g data-paper-data="{&quot;isPaintingLayer&quot;:true}" fill-rule="nonzero" stroke-linejoin="miter" stroke-miterlimit="10" stroke-dasharray="" stroke-dashoffset="0" style="mix-blend-mode: normal"><path d="M182.85663,237.14336v-114.28673h114.28674v114.28674z" fill="#888d8d" stroke="#000000" stroke-width="5" stroke-linecap="butt"/><path d="M182.8567,339.27537v-86.99628h114.28674v86.99629z" fill="#f3fdfd" stroke="#000000" stroke-width="5" stroke-linecap="butt"/><text transform="translate(188.73403,266.86915) scale(0.28175,0.28175)" font-size="40" xml:space="preserve" fill="#1fd529" fill-rule="nonzero" stroke="none" stroke-width="1" stroke-linecap="butt" stroke-linejoin="miter" stroke-miterlimit="10" stroke-dasharray="" stroke-dashoffset="0" font-family="Sans Serif" font-weight="normal" text-anchor="start" style="mix-blend-mode: normal"><tspan x="0" dy="0">+150 HP</tspan></text><path d="M182.85663,237.14336v-114.28673h114.28674v114.28674z" fill="none" stroke="#000000" stroke-width="5" stroke-linecap="butt"/><text transform="translate(188.16129,279.41978) scale(0.28175,0.28175)" font-size="40" xml:space="preserve" fill="#1fd529" fill-rule="nonzero" stroke="none" stroke-width="1" stroke-linecap="butt" stroke-linejoin="miter" stroke-miterlimit="10" stroke-dasharray="" stroke-dashoffset="0" font-family="Sans Serif" font-weight="normal" text-anchor="start" style="mix-blend-mode: normal"><tspan x="0" dy="0">-15% movespeed</tspan></text><g stroke="#000000" stroke-width="2" stroke-linecap="round"><path d="M219.74293,153.15661l-4.33739,28.28163l-9.32362,-1.4299l4.3374,-28.28164z" fill="#d2d84e"/><path d="M220.87872,146.01456l-1.0486,6.83733l-9.36313,-1.43597l1.00094,-6.52653c0,0 1.78551,-1.9707 2.74563,-2.75995c0.75929,-0.62415 1.5298,-1.6981 2.55528,-1.59752c1.02549,0.10058 1.46069,1.33977 2.03407,2.10467c0.74907,0.99927 2.07581,3.37797 2.07581,3.37797z" fill="#d9ab39"/></g><g stroke="#000000" stroke-width="2" stroke-linecap="round"><path d="M204.52086,154.11829l9.6387,26.93992l-8.88129,3.17759l-9.6387,-26.93992z" fill="#d2d84e"/><path d="M202.12235,147.29582l2.33024,6.51296l-8.91893,3.19106l-2.22431,-6.21691c0,0 0.63305,-2.58282 1.10212,-3.73378c0.37095,-0.9102 0.53781,-2.2214 1.48767,-2.62076c0.94986,-0.39936 1.92218,0.4836 2.79039,0.88364c1.13424,0.52262 3.43282,1.98379 3.43282,1.98379z" fill="#d9ab39"/></g><g stroke="#000000" stroke-width="2" stroke-linecap="round"><path d="M212.34002,153.88145l6.23597,27.92448l-9.20587,2.05582l-6.23597,-27.92448z" fill="#d2d84e"/><path d="M210.80291,146.81491l1.5076,6.75098l-9.24489,2.06453l-1.43907,-6.44411c0,0 0.94735,-2.4848 1.55505,-3.56898c0.48058,-0.85739 0.80818,-2.13792 1.80011,-2.41684c0.99193,-0.27893 1.84769,0.7174 2.65982,1.22167c1.06097,0.65877 3.16138,2.39276 3.16138,2.39276z" fill="#d9ab39"/></g><g data-paper-data="{&quot;index&quot;:null}" fill="none" stroke="#000000" stroke-width="4.5" stroke-linecap="round"><path d="M222.87649,206.13978c0,0 -9.61923,-1.40788 -11.10329,-4.26311c-1.56222,-3.00561 1.95244,-13.34258 1.95244,-13.34258"/><path d="M224.01976,199.23832l3.87151,7.44857l-7.44856,3.87151"/></g><g fill="none" stroke="#000000" stroke-linecap="round"><path d="M267.11852,186.36072l-8.49609,37.10221" stroke-width="3"/><path d="M256.22054,222.24259l7.36089,-20.43547l-1.80108,21.03829" stroke-width="3"/><path d="M259.6954,210.86535l-3.92293,9.53654" stroke-width="3"/><path d="M263.76307,211.79681l-0.61795,10.29335" data-paper-data="{&quot;index&quot;:null}" stroke-width="3"/><path d="M267.7056,183.79693l-8.49609,37.10221" stroke-width="1"/><path d="M268.48805,186.70795l-2.79648,-0.64037l2.08444,-3.05443z" stroke-width="1"/></g><g fill="none" stroke="#000000" stroke-linecap="round"><path d="M240.14778,183.2127l2.04947,38.00734" stroke-width="3"/><path d="M239.55217,220.7083l1.44885,-21.67238l4.062,20.72085" stroke-width="3"/><path d="M239.75966,208.81405l-1.14511,10.2481" stroke-width="3"/><path d="M243.92656,208.58936l2.24049,10.06554" data-paper-data="{&quot;index&quot;:null}" stroke-width="3"/><path d="M240.00615,180.58636l2.04948,38.00733" stroke-width="1"/><path d="M241.55998,183.16937l-2.8647,0.15447l1.16273,-3.51034z" stroke-width="1"/></g><g fill="none" stroke="#000000" stroke-linecap="round"><path d="M251.8622,182.22285l-0.59511,38.0579" stroke-width="3"/><path d="M248.66394,219.58654l2.95051,-21.51943l2.61312,20.95293" stroke-width="3"/><path d="M249.69699,207.73543l-1.85409,10.14383" stroke-width="3"/><path d="M253.86944,207.80067l1.53602,10.19684" data-paper-data="{&quot;index&quot;:null}" stroke-width="3"/><path d="M251.90332,179.59302l-0.59511,38.0579" stroke-width="1"/><path d="M253.274,182.2777l-2.86851,-0.04485l1.40371,-3.42111z" stroke-width="1"/></g></g></g></svg>