<svg version="1.1" xmlns="http://www.w3.org/2000/svg" xmlns:xlink="http://www.w3.org/1999/xlink" width="119.28674" height="221.41871" viewBox="0,0,119.28674,221.41871"><g transform="translate(-180.35663,-120.35663)"><g data-paper-data="{&quot;isPaintingLayer&quot;:true}" fill-rule="nonzero" stroke-linejoin="miter" stroke-miterlimit="10" stroke-dasharray="" stroke-dashoffset="0" style="mix-blend-mode: normal"><path d="M182.85663,237.14336v-114.28673h114.28674v114.28674z" fill="#888d8d" stroke="#000000" stroke-width="5" stroke-linecap="butt"/><path d="M182.85663,339.27533v-86.99628h114.28674v86.99629z" fill="#f3fdfd" stroke="#000000" stroke-width="5" stroke-linecap="butt"/><text transform="translate(188.73394,266.86912) scale(0.28175,0.28175)" font-size="40" xml:space="preserve" fill="#1fd529" fill-rule="nonzero" stroke="none" stroke-width="1" stroke-linecap="butt" stroke-linejoin="miter" stroke-miterlimit="10" stroke-dasharray="" stroke-dashoffset="0" font-family="Sans Serif" font-weight="normal" text-anchor="start" style="mix-blend-mode: normal"><tspan x="0" dy="0">+1 Pierce</tspan></text><text transform="translate(188.73394,282.21999) scale(0.28175,0.28175)" font-size="40" xml:space="preserve" fill="#1fd529" fill-rule="nonzero" stroke="none" stroke-width="1" stroke-linecap="butt" stroke-linejoin="miter" stroke-miterlimit="10" stroke-dasharray="" stroke-dashoffset="0" font-family="Sans Serif" font-weight="normal" text-anchor="start" style="mix-blend-mode: normal"><tspan x="0" dy="0">-10% damage</tspan></text><path d="M188.49675,131.15545c4.22422,-4.28811 11.12484,-4.33991 15.41295,-0.11568c4.28811,4.22422 4.33991,11.12484 0.11568,15.41295c-4.22422,4.28811 -11.12484,4.33991 -15.41296,0.11568c-4.28811,-4.22422 -4.33991,-11.12483 -0.11568,-15.41295z" fill="#ffffae" stroke="#000000" stroke-width="1.5" stroke-linecap="butt"/><path d="M201.80381,139.96233c0.71361,-0.7244 1.87936,-0.73316 2.60375,-0.01955c0.7244,0.71361 0.73315,1.87935 0.01954,2.60375c-0.71361,0.7244 -1.87935,0.73315 -2.60375,0.01954c-0.7244,-0.71361 -0.73316,-1.87935 -0.01955,-2.60375z" fill="#000000" stroke="none" stroke-width="0.5" stroke-linecap="butt"/><path d="M210.11804,159.54458c1.5873,-1.61132 4.1803,-1.63077 5.79161,-0.04347c1.61132,1.5873 1.63077,4.1803 0.04346,5.79161c-1.5873,1.61132 -4.1803,1.63077 -5.79161,0.04347c-1.61132,-1.5873 -1.63077,-4.1803 -0.04346,-5.79161z" fill="#ffffae" stroke="#000000" stroke-width="1.5" stroke-linecap="butt"/><path d="M193.54469,143.21815c0,0 0.43164,-1.38517 0.91908,-1.87998c0.53888,-0.54704 0.77595,-1.53202 1.70197,-1.72771c0.92602,-0.19569 0.23549,0.46694 0.75187,1.20915c0.51011,0.7332 1.29434,1.73503 2.39644,2.82071c0.92761,0.91379 3.92004,2.93319 5.64731,4.63472c8.18953,8.06751 23.08852,22.74452 23.08852,22.74452l-3.0945,3.14129c0,0 -25.67845,-25.29587 -29.73096,-29.288c-1.04152,-1.02601 -1.67973,-1.6547 -1.67973,-1.6547z" fill="#93aac7" stroke="#000000" stroke-width="1" stroke-linecap="butt"/><path d="M209.54306,149.51753l-2.99973,-2.64371l1.94563,-1.97505l2.53513,3.43136" fill="#000000" stroke="#000000" stroke-width="1" stroke-linecap="round"/><path d="M209.46677,150.12327l1.78998,-1.81705l1.10603,1.08955l-1.78998,1.81705z" fill="#000000" stroke="#000000" stroke-width="1" stroke-linecap="butt"/><path d="M212.36945,149.65546l3.46903,2.48334l-1.94563,1.97506l-2.68843,-2.95971" data-paper-data="{&quot;index&quot;:null}" fill="#000000" stroke="#000000" stroke-width="1" stroke-linecap="round"/><path d="M212.01501,153.45989l-4.9741,-4.89999" fill="none" stroke="#000000" stroke-width="1" stroke-linecap="round"/><path d="M207.95656,149.64471l-0.52243,0.53034" fill="none" stroke="#000000" stroke-width="1" stroke-linecap="round"/><path d="M210.70181,152.34906l-0.55316,0.56153" fill="none" stroke="#000000" stroke-width="1" stroke-linecap="round"/><path d="M205.3253,148.78848l0.37311,-0.37875l35.31911,34.79289l-0.37311,0.37875z" fill="#000000" stroke="#000000" stroke-width="1.5" stroke-linecap="butt"/><path d="M197.7638,147.35205c1.5873,-1.61132 4.1803,-1.63077 5.79161,-0.04346c1.61132,1.5873 1.63077,4.1803 0.04347,5.79161c-1.5873,1.61132 -4.1803,1.63077 -5.79161,0.04346c-1.61132,-1.5873 -1.63077,-4.1803 -0.04347,-5.79161z" fill="#ffffae" stroke="#000000" stroke-width="1.5" stroke-linecap="butt"/><path d="M241.37799,184.42893l52.43519,52.43519" fill="none" stroke="#ffffff" stroke-width="1" stroke-linecap="round"/><path d="M204.87285,151.21409l1.267,-1.28616" fill="none" stroke="#000000" stroke-width="1.5" stroke-linecap="round"/><g stroke-linecap="butt"><path d="M262.09958,197.44214c-1.11984,1.17673 -2.98157,1.22287 -4.15831,0.10304c-1.17673,-1.11984 -1.22286,-2.98158 -0.10303,-4.15831c1.11984,-1.17673 2.98157,-1.22287 4.15831,-0.10303c1.17673,1.11984 1.22287,2.98158 0.10303,4.15831z" fill="#63e677" stroke="#000000" stroke-width="1.5"/><path d="M255.89364,203.95658c-1.11983,1.17674 -2.98157,1.22287 -4.15832,0.10303c-1.17674,-1.11983 -1.22286,-2.98157 -0.10303,-4.15831c1.11983,-1.17674 2.98157,-1.22287 4.15832,-0.10303c1.17674,1.11983 1.22286,2.98157 0.10303,4.15831z" fill="#63e677" stroke="#000000" stroke-width="1.5"/><path d="M270.19171,211.84961c-3.35396,3.52439 -8.92997,3.66254 -12.45436,0.30858c-3.52439,-3.35396 -3.66254,-8.92997 -0.30858,-12.45436c3.35396,-3.52439 8.92997,-3.66254 12.45436,-0.30858c3.52439,3.35396 3.66254,8.92997 0.30858,12.45436z" fill="#63e677" stroke="#000000" stroke-width="1.5"/><path d="M259.38714,203.9608c-0.43592,0.45807 -1.16062,0.47601 -1.61869,0.04011c-0.45807,-0.43592 -0.47601,-1.16062 -0.04011,-1.61869c0.43592,-0.45807 1.16062,-0.47601 1.61869,-0.04011c0.45807,0.43592 0.47601,1.16062 0.04011,1.61869z" fill="#000000" stroke="none" stroke-width="0.5"/><path d="M262.24606,200.66945c-0.43592,0.45807 -1.16062,0.47602 -1.61869,0.04011c-0.45807,-0.43592 -0.47602,-1.16062 -0.04011,-1.61869c0.43592,-0.45807 1.16063,-0.47602 1.61869,-0.0401c0.45807,0.43592 0.47602,1.16062 0.0401,1.61868z" fill="#000000" stroke="none" stroke-width="0.5"/></g><g stroke-linecap="butt"><path d="M288.05967,209.83577c-1.43284,0.76532 -3.21479,0.2242 -3.98012,-1.20863c-0.76532,-1.43284 -0.2242,-3.2148 1.20864,-3.98012c1.43284,-0.76532 3.21479,-0.2242 3.98012,1.20864c0.76532,1.43284 0.2242,3.2148 -1.20864,3.98012z" fill="#63e677" stroke="#000000" stroke-width="1.5"/><path d="M280.12128,214.07056c-1.43283,0.76533 -3.21479,0.2242 -3.98012,-1.20864c-0.76533,-1.43283 -0.2242,-3.2148 1.20864,-3.98012c1.43283,-0.76533 3.2148,-0.2242 3.98013,1.20864c0.76533,1.43283 0.22419,3.2148 -1.20864,3.98012z" fill="#63e677" stroke="#000000" stroke-width="1.5"/><path d="M291.21553,226.05607c-4.29142,2.29219 -9.62848,0.67148 -11.92067,-3.61994c-2.29219,-4.29142 -0.67148,-9.62848 3.61994,-11.92067c4.29142,-2.29219 9.62848,-0.67148 11.92067,3.61994c2.29219,4.29142 0.67148,9.62848 -3.61994,11.92067z" fill="#63e677" stroke="#000000" stroke-width="1.5"/><path d="M283.43655,215.17216c-0.55776,0.29792 -1.25141,0.08727 -1.54933,-0.47048c-0.29792,-0.55776 -0.08727,-1.25141 0.47048,-1.54932c0.55776,-0.29792 1.25141,-0.08727 1.54932,0.47048c0.29792,0.55776 0.08727,1.25142 -0.47048,1.54933z" fill="#000000" stroke="none" stroke-width="0.5"/><path d="M287.18478,212.94568c-0.55776,0.29792 -1.25141,0.08727 -1.54932,-0.47048c-0.29792,-0.55776 -0.08727,-1.25141 0.47048,-1.54932c0.55776,-0.29792 1.25142,-0.08727 1.54933,0.47048c0.29792,0.55776 0.08727,1.25141 -0.47049,1.54932z" fill="#000000" stroke="none" stroke-width="0.5"/></g><g stroke-linecap="butt"><path d="M269.18624,220.40555c-0.75816,1.43664 -2.53739,1.98666 -3.97403,1.2285c-1.43664,-0.75816 -1.98666,-2.5374 -1.2285,-3.97404c0.75816,-1.43664 2.53739,-1.98665 3.97404,-1.2285c1.43664,0.75816 1.98666,2.5374 1.2285,3.97403z" fill="#63e677" stroke="#000000" stroke-width="1.5"/><path d="M264.98278,228.36059c-0.75816,1.43664 -2.53739,1.98666 -3.97404,1.2285c-1.43664,-0.75816 -1.98666,-2.5374 -1.2285,-3.97404c0.75816,-1.43664 2.5374,-1.98666 3.97404,-1.2285c1.43664,0.75816 1.98665,2.5374 1.22849,3.97404z" fill="#63e677" stroke="#000000" stroke-width="1.5"/><path d="M280.88709,232.07379c-2.27072,4.30281 -7.59964,5.95014 -11.90245,3.67942c-4.30281,-2.27072 -5.95014,-7.59964 -3.67941,-11.90245c2.27072,-4.30281 7.59963,-5.95014 11.90244,-3.67942c4.30281,2.27072 5.95014,7.59963 3.67942,11.90244z" fill="#63e677" stroke="#000000" stroke-width="1.5"/><path d="M268.34613,227.41587c-0.29513,0.55924 -0.98773,0.77333 -1.54696,0.47821c-0.55924,-0.29513 -0.77333,-0.98772 -0.47821,-1.54695c0.29513,-0.55924 0.98772,-0.77334 1.54695,-0.47822c0.55924,0.29513 0.77334,0.98773 0.47822,1.54696z" fill="#000000" stroke="none" stroke-width="0.5"/><path d="M270.2037,223.47178c-0.29513,0.55924 -0.98773,0.77334 -1.54695,0.47821c-0.55924,-0.29513 -0.77334,-0.98773 -0.47821,-1.54695c0.29513,-0.55924 0.98773,-0.77334 1.54696,-0.47821c0.55924,0.29513 0.77333,0.98772 0.47821,1.54696z" fill="#000000" stroke="none" stroke-width="0.5"/></g><path d="M182.85663,237.14336v-114.28673h114.28674v114.28674z" fill="none" stroke="#000000" stroke-width="5" stroke-linecap="butt"/></g></g></svg>