<svg version="1.1" xmlns="http://www.w3.org/2000/svg" xmlns:xlink="http://www.w3.org/1999/xlink" width="480" height="480" viewBox="0,0,480,480"><defs><radialGradient cx="239.99998" cy="179.99998" r="240" gradientUnits="userSpaceOnUse" id="color-1"><stop offset="0" stop-color="#7c00c7" stop-opacity="0"/><stop offset="1" stop-color="#7c00c7"/></radialGradient><radialGradient cx="239.99998" cy="179.99998" r="240" gradientUnits="userSpaceOnUse" id="color-2"><stop offset="0" stop-color="#7c00c7" stop-opacity="0"/><stop offset="1" stop-color="#7c00c7"/></radialGradient></defs><g transform="translate(0,60)"><g data-paper-data="{&quot;isPaintingLayer&quot;:true}" fill-rule="nonzero" stroke="#000000" stroke-width="0" stroke-linecap="butt" stroke-linejoin="miter" stroke-miterlimit="10" stroke-dasharray="" stroke-dashoffset="0" style="mix-blend-mode: normal"><path d="M0,179.99998c0,-132.54833 107.45165,-239.99998 240,-239.99998c132.54833,0 240,107.45165 240,240c0,132.54833 -107.45165,240 -239.99998,240c-132.54833,0 -239.99998,-107.45165 -239.99998,-239.99998z" fill="url(#color-1)"/><path d="M0,179.99998c0,-132.54833 107.45165,-239.99998 240,-239.99998c132.54833,0 240,107.45165 240,240c0,132.54833 -107.45165,240 -239.99998,240c-132.54833,0 -239.99998,-107.45165 -239.99998,-239.99998z" fill="url(#color-2)"/></g></g></svg>