<svg version="1.1" xmlns="http://www.w3.org/2000/svg" xmlns:xlink="http://www.w3.org/1999/xlink" width="424.53105" height="197.22072" viewBox="0,0,424.53105,197.22072"><g transform="translate(-27.73448,-79.42152)"><g data-paper-data="{&quot;isPaintingLayer&quot;:true}" fill="none" fill-rule="nonzero" stroke="#000000" stroke-width="5" stroke-linejoin="miter" stroke-miterlimit="10" stroke-dasharray="" stroke-dashoffset="0" style="mix-blend-mode: normal"><path d="M194.75438,178.00469h-74.05914" stroke-linecap="round"/><path d="M365.051,178.00469h-74.05914" stroke-linecap="round"/><path d="M255.0091,198.6045c0,0 -4.00605,-21.01741 0,-33.43615c4.00605,-12.41874 10.78586,0 10.78586,0" stroke-linecap="round"/><path d="M250.25101,177.14551h15.54395" stroke-linecap="round"/><path d="M238.49991,182.73171c0,-8.54083 -4.70922,-15.46455 -10.51835,-15.46455c-5.80913,0 -10.51837,6.92372 -10.51837,15.46455c0,8.54083 4.70924,15.46455 10.51837,15.46455c5.80913,0 10.51835,-6.92372 10.51835,-15.46455z" stroke-linecap="butt"/><path d="M109.32434,120.1708l11.26674,-33.45878l12.63239,32.09311" stroke-linecap="round"/><path d="M112.39708,108.22123h16.04656" stroke-linecap="round"/><path d="M156.43977,119.48797c0,0 0,-21.96228 0,-27.11013c0,-2.05023 -1.24145,-3.17093 0,-4.30016c1.24145,-1.12923 2.45175,0.28815 4.18657,0.49203c2.84937,0.33487 11.29401,1.32733 11.29401,1.32733c0,0 3.64121,7.05376 2.64912,9.58083c-1.11776,2.84718 -7.20438,6.35346 -7.20438,6.35346h-10.58391h10.24249l9.90107,13.65665" stroke-linecap="round"/><path d="M205.26228,108.22123c0,-6.22245 -4.28,-11.26674 -9.55965,-11.26674c-5.27965,0 -9.55966,5.04429 -9.55966,11.26674c0,6.22245 4.28001,11.26674 9.55966,11.26674c5.27965,0 9.55965,-5.04429 9.55965,-11.26674z" stroke-linecap="butt"/><path d="M234.96548,96.95449v27.31329c0,0 -3.29664,5.17938 -4.83634,6.4822c-1.40733,1.19081 -4.04047,1.02896 -4.04047,1.02896c0,0 -2.4385,-0.39017 -3.76837,-0.60294c-1.49573,-0.23932 -4.76705,-0.76273 -4.76705,-0.76273" stroke-linecap="round"/><path d="M215.84618,108.22123c0,5.46821 4.05072,9.90107 9.04753,9.90107c4.99681,0 9.04752,-4.43286 9.04752,-9.90107c0,-5.46821 -4.05071,-9.90107 -9.04752,-9.90107c-4.99681,0 -9.04753,4.43286 -9.04753,9.90107z" stroke-linecap="butt"/><path d="M247.93929,97.97874v18.77789c0,0 2.64658,2.73134 5.12125,2.73134c3.3104,0 12.97381,-2.73134 12.97381,-2.73134v-19.1193v22.87488" stroke-linecap="round"/><path d="M276.95967,106.51414h17.0708c0,0 -0.90826,-5.00526 -2.21921,-6.3162c-1.59277,-1.59277 -6.65762,-2.56061 -6.65762,-2.56061c0,0 -4.06956,1.67964 -5.63337,3.24345c-1.6207,1.6207 -3.92628,6.3162 -3.92628,6.3162c0,0 2.07776,7.54042 4.09699,9.55965c1.96234,1.96234 7.85257,2.38992 7.85257,2.38992l6.82833,-1.70708" stroke-linecap="round"/><path d="M304.63213,121.02505v-34.82442" stroke-linecap="round"/><path d="M357.3706,106.68557h17.0708c0,0 -0.90826,-5.00525 -2.21921,-6.31618c-1.59277,-1.59277 -6.65762,-2.56061 -6.65762,-2.56061c0,0 -4.06956,1.67964 -5.63337,3.24345c-1.6207,1.6207 -3.92628,6.3162 -3.92628,6.3162c0,0 2.07776,7.54042 4.09699,9.55965c1.96234,1.96234 7.85257,2.3899 7.85257,2.3899l6.82833,-1.70706" stroke-linecap="round"/><g stroke-linecap="round"><path d="M332.25241,85.85776v33.80018"/><path d="M331.91099,110.43972l14.16877,-14.16877"/><path d="M337.03224,105.31848l11.26673,15.3637"/></g><path d="M318.09124,121.75848v-24.64548" stroke-linecap="round"/><path d="M317.72677,87.49789h1.02552" stroke-linecap="round"/><path d="M30.23448,231.6979c0,0 6.7566,22.72673 8.14982,27.41302c0.48046,1.6161 -0.12379,3.32039 1.23657,3.26014c1.36036,-0.06025 0.18434,-1.30471 0.89432,-3.35452c2.25122,-6.49962 7.09938,-20.49071 8.37926,-24.13342c0.60598,-1.7247 -0.08039,-2.9724 1.23614,-3.18522c1.31653,-0.21282 0.47292,1.39986 0.95635,2.83079c1.18254,3.50032 6.24299,18.4792 8.4124,24.90068c0.6119,1.81125 -0.08945,3.48476 0.99381,2.94169c1.08327,-0.54307 0.65804,-2.11123 1.27074,-4.07696c1.60107,-5.13674 8.67731,-27.83971 8.67731,-27.83971" stroke-linecap="round"/><path d="M96.83017,249.89892c0,-6.59127 -4.28,-11.93454 -9.55965,-11.93454c-5.27965,0 -9.55966,5.34327 -9.55966,11.93454c0,6.59127 4.28001,11.93454 9.55966,11.93454c5.27965,0 9.55965,-5.34327 9.55965,-11.93454z" stroke-linecap="butt"/><path d="M108.33641,239.60487v22.36309" stroke-linecap="round"/><path d="M108.88185,247.24105c0,0 3.29724,-3.79444 5.13283,-5.24359c1.58059,-1.24783 5.23056,-2.93803 5.23056,-2.93803" stroke-linecap="round"/><path d="M141.60834,240.42303c0,0 -5.18484,-0.81816 -7.36346,-0.81816c-1.86239,0 -4.90897,0.81816 -4.90897,0.81816c0,0 -1.09089,2.06489 -1.09089,2.99993c0,1.24673 1.09089,3.81809 1.09089,3.81809c0,0 1.5087,1.02639 3.11226,1.99599c1.06359,0.64311 3.73527,1.35524 5.60915,2.45999c1.90605,1.12372 3.00558,2.63476 3.00558,2.63476c0,0 0.83701,2.80459 0.68382,3.8386c-0.19855,1.34017 -3.68374,3.79758 -3.68374,3.79758c0,0 -3.0409,0.38108 -4.65213,0.29398c-1.7421,-0.09416 -5.71125,-0.83941 -5.71125,-0.83941" stroke-linecap="round"/><path d="M228.8594,248.90861h17.0708c0,0 -0.90826,-5.00525 -2.21921,-6.31618c-1.59277,-1.59277 -6.65762,-2.56061 -6.65762,-2.56061c0,0 -4.06956,1.67964 -5.63337,3.24345c-1.6207,1.6207 -3.92628,6.3162 -3.92628,6.3162c0,0 2.07776,7.54042 4.09699,9.55965c1.96234,1.96234 7.85257,2.3899 7.85257,2.3899l6.82833,-1.70706" stroke-linecap="round"/><path d="M152.0452,248.90861h17.0708c0,0 -0.90826,-5.00525 -2.21921,-6.31618c-1.59277,-1.59277 -6.65762,-2.56061 -6.65762,-2.56061c0,0 -4.06956,1.67964 -5.63337,3.24345c-1.6207,1.6207 -3.92628,6.3162 -3.92628,6.3162c0,0 2.07776,7.54042 4.09699,9.55965c1.96234,1.96234 7.85257,2.3899 7.85257,2.3899l6.82833,-1.70706" stroke-linecap="round"/><path d="M269.72893,240.42303c0,0 -5.18484,-0.81816 -7.36346,-0.81816c-1.86239,0 -4.90897,0.81816 -4.90897,0.81816c0,0 -1.09089,2.06489 -1.09089,2.99993c0,1.24673 1.09089,3.81809 1.09089,3.81809c0,0 1.5087,1.02639 3.11226,1.99599c1.06359,0.64311 3.73527,1.35524 5.60915,2.45999c1.90605,1.12372 3.00558,2.63476 3.00558,2.63476c0,0 0.83701,2.80459 0.68382,3.8386c-0.19855,1.34017 -3.68374,3.79758 -3.68374,3.79758c0,0 -3.0409,0.38108 -4.65213,0.29398c-1.7421,-0.09416 -5.71125,-0.83941 -5.71125,-0.83941" stroke-linecap="round"/><path d="M326.00226,264.15691v-24.64548" stroke-linecap="round"/><path d="M325.63779,229.89632h1.02552" stroke-linecap="round"/><path d="M389.29044,264.15691v-24.64548" stroke-linecap="round"/><path d="M388.92598,229.89632h1.02552" stroke-linecap="round"/><path d="M293.73937,239.79062c0,0 -3.36098,-0.58713 -5.04883,-0.35433c-1.69773,0.23417 -5.10809,1.75527 -5.10809,1.75527c0,0 -2.3788,3.87309 -3.16655,5.69097c-0.72468,1.67235 -1.38654,5.51666 -1.38654,5.51666c0,0 0.85171,3.90435 1.85896,5.41522c1.08795,1.63193 4.44533,4.04121 4.44533,4.04121c0,0 3.80256,0.48738 5.48346,0.23835c1.43077,-0.21197 3.97298,-1.6393 3.97298,-1.6393" stroke-linecap="round"/><path d="M304.63213,239.6592v22.87488" stroke-linecap="round"/><path d="M305.34649,247.8532c0,0 4.00752,-5.22484 5.98161,-6.70541c1.57846,-1.18384 4.94371,-1.48858 4.94371,-1.48858" stroke-linecap="round"/><path d="M339.14669,274.14224v-34.48304" stroke-linecap="round"/><path d="M340.17094,251.09665c0,5.75105 4.12715,10.41319 9.21824,10.41319c5.0911,0 9.21823,-4.66214 9.21823,-10.41319c0,-5.75105 -4.12713,-10.4132 -9.21823,-10.4132c-5.0911,0 -9.21824,4.66215 -9.21824,10.4132z" stroke-linecap="butt"/><path d="M371.92265,234.19654v30.38604" stroke-linecap="round"/><path d="M365.09432,240.00062h12.97381" stroke-linecap="round"/><path d="M420.40373,250.77327c0,6.03388 -4.35643,10.92532 -9.73036,10.92532c-5.37392,0 -9.73036,-4.89144 -9.73036,-10.92532c0,-6.03388 4.35643,-10.92532 9.73036,-10.92532c5.37392,0 9.73036,4.89144 9.73036,10.92532z" stroke-linecap="butt"/><path d="M432.3533,239.6592v22.53347" stroke-linecap="round"/><path d="M449.76552,262.19268l-0.68283,-20.14356c0,0 -2.35731,-2.10168 -3.64528,-2.45295c-1.211,-0.33027 -3.86587,0.40445 -3.86587,0.40445c0,0 -4.16473,0.88741 -5.66751,1.6388c-1.10273,0.55137 -2.52648,2.45819 -2.52648,2.45819" stroke-linecap="round"/><path d="M194.52679,231.30266v30.91944c0,0 5.52319,0.37349 8.3172,0.01681c2.83792,-0.36229 8.58064,-2.17398 8.58064,-2.17398c0,0 3.80688,-2.36017 4.88165,-4.57294c0.94611,-1.94787 1.23033,-8.01055 1.23033,-8.01055c0,0 -0.10295,-5.59249 -1.05828,-7.86141c-0.96211,-2.28499 -4.69417,-5.80068 -4.69417,-5.80068c0,0 -4.3528,-1.45871 -7.07719,-1.85601c-3.00122,-0.43768 -10.18018,-0.66069 -10.18018,-0.66069z" stroke-linecap="round"/></g></g></svg>