<svg version="1.1" xmlns="http://www.w3.org/2000/svg" xmlns:xlink="http://www.w3.org/1999/xlink" width="99.41469" height="99.41469" viewBox="0,0,99.41469,99.41469"><g transform="translate(-190.29266,-130.29266)"><g data-paper-data="{&quot;isPaintingLayer&quot;:true}" fill-rule="nonzero" stroke="#000000" stroke-linejoin="miter" stroke-miterlimit="10" stroke-dasharray="" stroke-dashoffset="0" style="mix-blend-mode: normal"><path d="" fill="#92b7b7" stroke-width="2" stroke-linecap="butt"/><path d="" fill="#536565" stroke-width="2" stroke-linecap="butt"/><path d="" fill="#536565" stroke-width="2" stroke-linecap="butt"/><path d="" fill="#536565" stroke-width="2" stroke-linecap="butt"/><path d="M240,228.29313l-48.29313,-48.29313l48.29313,-48.29313l48.29313,48.29313z" fill="#ffffff" stroke-width="2" stroke-linecap="butt"/><path d="M229.46982,165.89049l7.38833,4.04752l-6.42463,4.49725z" fill="#c7ffff" stroke-width="1" stroke-linecap="round"/><path d="M235.2902,175.34379l7.42536,4.04197l5.5811,-4.57303z" fill="#c7ffff" stroke-width="1" stroke-linecap="round"/><path d="M227.41394,177.19785l-3.27657,6.16765l-3.08383,-3.72629z" fill="#c7ffff" stroke-width="1" stroke-linecap="round"/><path d="M230.74946,177.53306l4.82905,1.98843l-2.46187,4.07155z" fill="#c7ffff" stroke-width="1" stroke-linecap="round"/><path d="M242.53682,167.33461l8.08637,-2.36231l-1.36287,7.72294z" fill="#c7ffff" stroke-width="1" stroke-linecap="round"/><path d="M249.0786,176.78385l2.04431,6.67807l-4.81548,-0.45429z" fill="#c7ffff" stroke-width="1" stroke-linecap="round"/><path d="M251.6742,174.66231l4.82069,-2.00862l1.13822,4.61983z" fill="#c7ffff" stroke-width="1" stroke-linecap="round"/><path d="M241.92671,204.268l4.04197,-7.42536l-4.57303,-5.58111z" fill="#c7ffff" stroke-width="1" stroke-linecap="round"/><path d="M233.91753,197.02138l-2.36231,-8.08637l7.72294,1.36287z" fill="#c7ffff" stroke-width="1" stroke-linecap="round"/><path d="M243.36677,190.4796l6.67806,-2.04431l-0.45429,4.81548z" fill="#c7ffff" stroke-width="1" stroke-linecap="round"/><path d="M241.24523,187.884l-2.00862,-4.82069l4.61983,-1.13822z" fill="#c7ffff" stroke-width="1" stroke-linecap="round"/></g></g></svg>