<svg version="1.1" xmlns="http://www.w3.org/2000/svg" xmlns:xlink="http://www.w3.org/1999/xlink" width="119.28681" height="221.41875" viewBox="0,0,119.28681,221.41875"><g transform="translate(-180.35663,-120.35663)"><g data-paper-data="{&quot;isPaintingLayer&quot;:true}" fill-rule="nonzero" stroke-linejoin="miter" stroke-miterlimit="10" stroke-dasharray="" stroke-dashoffset="0" style="mix-blend-mode: normal"><path d="M182.85663,237.14336v-114.28673h114.28674v114.28674z" fill="#888d8d" stroke="#000000" stroke-width="5" stroke-linecap="butt"/><path d="M182.8567,339.27537v-86.99628h114.28674v86.99629z" fill="#f3fdfd" stroke="#000000" stroke-width="5" stroke-linecap="butt"/><text transform="translate(188.73403,266.86915) scale(0.28175,0.28175)" font-size="40" xml:space="preserve" fill="#1fd529" fill-rule="nonzero" stroke="none" stroke-width="1" stroke-linecap="butt" stroke-linejoin="miter" stroke-miterlimit="10" stroke-dasharray="" stroke-dashoffset="0" font-family="Sans Serif" font-weight="normal" text-anchor="start" style="mix-blend-mode: normal"><tspan x="0" dy="0">+40% damage</tspan></text><path d="M182.85663,237.14336v-114.28673h114.28674v114.28674z" fill="none" stroke="#000000" stroke-width="5" stroke-linecap="butt"/><text transform="translate(188.16129,279.41978) scale(0.28175,0.28175)" font-size="40" xml:space="preserve" fill="#1fd529" fill-rule="nonzero" stroke="none" stroke-width="1" stroke-linecap="butt" stroke-linejoin="miter" stroke-miterlimit="10" stroke-dasharray="" stroke-dashoffset="0" font-family="Sans Serif" font-weight="normal" text-anchor="start" style="mix-blend-mode: normal"><tspan x="0" dy="0">-30 max HP</tspan></text><path d="M235.66033,200.77854v-38.47755h8.27998v38.47755z" fill="#e4de30" stroke="#000000" stroke-width="2.5" stroke-linecap="butt"/><path d="M206.83131,162.30099c0,0 6.93652,-7.79292 14.61173,-7.79292c6.5131,0 13.42183,7.79292 18.50819,7.79292c5.18585,0 13.78176,-7.79292 20.45642,-7.79292c7.69112,0 13.15055,7.79292 13.15055,7.79292" fill="none" stroke="#000000" stroke-width="2.5" stroke-linecap="round"/><path d="M196.37,182.72762l10.54994,-19.50465l11.0422,19.49944" fill="none" stroke="#000000" stroke-width="2.5" stroke-linecap="round"/><path d="M195.50971,183.35718c1.06347,-0.93307 2.38183,0 5.47063,0c4.46316,0 10.40239,0 12.76481,0c1.9583,0 3.94183,-1.65175 4.37651,0c0.43467,1.65175 -1.36103,2.81987 -2.73532,4.19415c-1.02265,1.02265 -2.92775,2.92775 -4.55886,4.55886c-1.58883,1.58883 -2.03691,2.16815 -3.64709,2.18825c-1.61018,0.02011 -2.49271,-0.92368 -3.76233,-2.11395c-0.41326,-0.38743 -4.62386,-4.33487 -5.99305,-5.61849c-1.49323,-1.3999 -2.97876,-2.27576 -1.91529,-3.20883z" fill="#e4de30" stroke="#000000" stroke-width="2.5" stroke-linecap="round"/><path d="M263.03283,182.72762l10.54994,-19.50464l11.04221,19.49943" fill="none" stroke="#000000" stroke-width="2.5" stroke-linecap="round"/><path d="M262.17255,183.35718c1.06347,-0.93307 2.38183,0 5.47063,0c4.46316,0 10.40239,0 12.76481,0c1.9583,0 3.94184,-1.65175 4.37651,0c0.43467,1.65175 -1.36103,2.81987 -2.73532,4.19415c-1.02265,1.02265 -2.92776,2.92775 -4.55886,4.55886c-1.58883,1.58883 -2.0369,2.16814 -3.64708,2.18825c-1.61018,0.02011 -2.49272,-0.92367 -3.76234,-2.11395c-0.41325,-0.38743 -4.62386,-4.33487 -5.99306,-5.61849c-1.49323,-1.3999 -2.97875,-2.27576 -1.91528,-3.20882z" fill="#e4de30" stroke="#000000" stroke-width="2.5" stroke-linecap="round"/><path d="M225.55935,205.49193v-5.72107h27.8591v5.72107z" fill="#e4de30" stroke="#000000" stroke-width="2.5" stroke-linecap="butt"/><path d="M267.19454,181.54968l2.62881,-2.62881" fill="none" stroke="#000000" stroke-width="1.5" stroke-linecap="round"/><path d="M206.87937,181.89956c0,0 -3.21339,-3.21339 -3.95758,-3.95758c-0.29238,-0.29238 -0.61088,-0.61088 -0.61088,-0.61088c0,0 0.3079,-0.56994 0.80362,-1.23004c0.58768,-0.78255 1.43932,-1.69182 2.35482,-1.92841c0.77431,-0.2001 1.2299,0.17516 1.49623,0.63997c0.15621,0.27262 -0.2726,1.71152 -0.14026,1.78628c0.13384,0.07561 0.82878,-1.21571 0.97559,-1.44275c0.35389,-0.54727 0.87472,-1.13179 1.4473,-1.0399c0.68101,0.1093 1.6002,1.20194 2.15792,1.94984c0.29809,0.39974 0.67997,0.34685 0.60572,0.701c-0.07425,0.35415 -0.56901,0.57926 -0.95738,0.97636c-0.86351,0.88291 -4.17509,4.15612 -4.17509,4.15612z" fill="#ff0000" stroke="#000000" stroke-width="1.5" stroke-linecap="round"/><path d="M267.19454,181.54968l2.62881,-2.62881" fill="none" stroke="#eba544" stroke-width="0.5" stroke-linecap="round"/><path d="M268.73106,177.25903l2.73614,2.73614l1.48703,-1.48703l-2.73614,-2.73614z" fill="#eba544" stroke="#000000" stroke-width="1" stroke-linecap="round"/><path d="M271.01924,176.30486l4.4611,-4.4611h1.606v1.36807l-4.63708,4.81429z" fill="#b5efe6" stroke="#000000" stroke-width="1" stroke-linecap="round"/></g></g></svg>