<svg version="1.1" xmlns="http://www.w3.org/2000/svg" xmlns:xlink="http://www.w3.org/1999/xlink" width="396.53523" height="399.3997" viewBox="0,0,396.53523,399.3997"><g transform="translate(-41.73238,19.69985)"><g data-paper-data="{&quot;isPaintingLayer&quot;:true}" fill-rule="nonzero" stroke="#000000" stroke-width="2" stroke-linecap="butt" stroke-linejoin="miter" stroke-miterlimit="10" stroke-dasharray="" stroke-dashoffset="0" style="mix-blend-mode: normal"><path d="M42.73239,79.77359v-98.36595h98.36595v98.36595z" fill="#96d897"/><path d="M140.70596,79.72279v-98.36595h98.36595v98.36595z" fill="#96d897"/><path d="M42.85985,179.32113v-98.36595h98.36595v98.36595z" fill="#96d897"/><path d="M140.83343,179.27032v-98.36595h98.36595v98.36595z" fill="#96d897"/><path d="M239.6186,79.71691v-98.36595h98.36595v98.36595z" fill="#96d897"/><path d="M338.7742,79.6661v-98.36595h98.36595v98.36595z" fill="#96d897"/><path d="M239.74605,179.26445v-98.36595h98.36595v98.36595z" fill="#96d897"/><path d="M338.90167,179.21364v-98.36595h98.36595v98.36595z" fill="#96d897"/><path d="M42.73238,279.15232v-98.36595h98.36595v98.36595z" fill="#96d897"/><path d="M140.70596,279.10151v-98.36595h98.36595v98.36595z" fill="#96d897"/><path d="M42.85984,378.69985v-98.36595h98.36595v98.36595z" fill="#96d897"/><path d="M140.83342,378.64904v-98.36595h98.36595v98.36595z" fill="#96d897"/><path d="M239.61859,279.09564v-98.36595h98.36595v98.36595z" fill="#96d897"/><path d="M338.7742,279.04484v-98.36595h98.36595v98.36595z" fill="#96d897"/><path d="M239.74605,378.64317v-98.36595h98.36595v98.36595z" fill="#96d897"/><path d="M338.90166,378.59237v-98.36595h98.36595v98.36595z" fill="#96d897"/></g></g></svg>