<svg version="1.1" xmlns="http://www.w3.org/2000/svg" xmlns:xlink="http://www.w3.org/1999/xlink" width="119.28674" height="221.41871" viewBox="0,0,119.28674,221.41871"><g transform="translate(-180.35663,-120.35663)"><g data-paper-data="{&quot;isPaintingLayer&quot;:true}" fill-rule="nonzero" stroke-linejoin="miter" stroke-miterlimit="10" stroke-dasharray="" stroke-dashoffset="0" style="mix-blend-mode: normal"><path d="M182.85664,239.59115v-114.28673h114.28674v114.28674z" fill="#888d8d" stroke="#000000" stroke-width="5" stroke-linecap="butt"/><path d="M182.85664,339.27533v-86.99628h114.28674v86.99629z" fill="#f3fdfd" stroke="#000000" stroke-width="5" stroke-linecap="butt"/><text transform="translate(188.73395,266.86912) scale(0.28175,0.28175)" font-size="40" xml:space="preserve" fill="#1fd529" fill-rule="nonzero" stroke="none" stroke-width="1" stroke-linecap="butt" stroke-linejoin="miter" stroke-miterlimit="10" stroke-dasharray="" stroke-dashoffset="0" font-family="Sans Serif" font-weight="normal" text-anchor="start" style="mix-blend-mode: normal"><tspan x="0" dy="0">+25% RPM</tspan></text><g stroke="#000000" stroke-width="2" stroke-linecap="round"><path d="M200.44444,186.00748l-4.93161,2.00394l-6.04901,-15.24575l5.0463,-2.05055z" fill="#ffffff"/><path d="M197.06604,188.0175l2.19364,-0.89137" fill="none"/><path d="M198.18444,188.07421l1.78276,4.38729" fill="none"/><path d="M188.97689,164.25048l2.97975,7.33304" fill="none"/><path d="M186.72057,165.16733l4.51264,-1.8337" fill="none"/></g><path d="M183.51592,192.8927c3.37574,-0.43961 7.1264,-0.88895 10.16429,-0.91175c28.34241,-0.21273 79.90502,-0.59973 79.90502,-0.59973l0.08157,10.87144c0,0 -62.03285,0.46558 -90.62307,0.68016c-2.06208,0.01548 -1.70787,-1.71671 -1.58317,-4.00036c0.14214,-2.60315 0.31517,-5.81314 2.05536,-6.03976z" fill="#93aac7" stroke="#000000" stroke-width="1" stroke-linecap="butt"/><path d="M205.38012,192.11634l-0.00983,-1.31079l93.1598,-0.91741l0.00983,1.31078z" fill="#000000" stroke="#000000" stroke-width="1.5" stroke-linecap="butt"/><path d="M182.85664,237.14336v-114.28673h114.28674v114.28674z" fill="none" stroke="#000000" stroke-width="5" stroke-linecap="butt"/><path d="M204.70364,192.93334h-11.4395" fill="none" stroke="#000000" stroke-width="1.5" stroke-linecap="round"/><path d="M196.384,198.13312v-5.40777" fill="none" stroke="#000000" stroke-width="1.5" stroke-linecap="round"/><path d="M195.34404,198.4451c0,-0.40204 0.32593,-0.72797 0.72797,-0.72797c0.40204,0 0.72797,0.32593 0.72797,0.72797c0,0.40204 -0.32593,0.72797 -0.72797,0.72797c-0.40204,0 -0.72797,-0.32593 -0.72797,-0.72797z" fill="#000000" stroke="#000000" stroke-width="1.5" stroke-linecap="butt"/><path d="M223.30706,183.00598l-16.3351,1.03051l-0.08516,-11.34852l17.27018,2.59416" fill="#000000" stroke="#000000" stroke-width="1" stroke-linecap="round"/><path d="M223.91906,185.18568l-0.07836,-10.44065l6.35517,-0.04771l0.07835,10.44065z" fill="#000000" stroke="#000000" stroke-width="1" stroke-linecap="butt"/><path d="M229.63081,175.4297l17.22931,-2.85311l0.08518,11.34855l-16.3487,-0.78522" data-paper-data="{&quot;index&quot;:null}" fill="#000000" stroke="#000000" stroke-width="1" stroke-linecap="round"/><path d="M242.34264,185.61536l-28.58084,0.21452" fill="none" stroke="#000000" stroke-width="1" stroke-linecap="round"/><path d="M235.35044,189.64064l-0.02423,-3.22651" fill="none" stroke="#000000" stroke-width="2" stroke-linecap="round"/><path d="M217.00463,186.52066l0.02423,3.2265" fill="none" stroke="#000000" stroke-width="2" stroke-linecap="round"/></g></g></svg>