<svg version="1.1" xmlns="http://www.w3.org/2000/svg" xmlns:xlink="http://www.w3.org/1999/xlink" width="199.33116" height="199.17669" viewBox="0,0,199.33116,199.17669"><g transform="translate(-142.70942,-80.41166)"><g data-paper-data="{&quot;isPaintingLayer&quot;:true}" fill-rule="nonzero" stroke-linejoin="miter" stroke-miterlimit="10" stroke-dasharray="" stroke-dashoffset="0" style="mix-blend-mode: normal"><path d="M147.61389,274.83835v-189.67669h189.67669v189.67669z" fill="#ffffff" stroke="#000000" stroke-width="9.5" stroke-linecap="butt"/><path d="" fill="#92b7b7" stroke="#000000" stroke-width="2" stroke-linecap="butt"/><path d="" fill="#536565" stroke="#000000" stroke-width="2" stroke-linecap="butt"/><path d="" fill="#536565" stroke="#000000" stroke-width="2" stroke-linecap="butt"/><path d="" fill="#536565" stroke="#000000" stroke-width="2" stroke-linecap="butt"/><path d="M142.70942,270.24406v-180.3474h180.14127v180.3474z" fill="#ffffff" stroke="#ffffff" stroke-width="0" stroke-linecap="butt"/><path d="M227.36571,225.80103c0,0 -12.57413,-25.91411 -12.34159,-41.72627c0.23252,-15.81214 13.51695,-38.2001 13.51695,-38.2001h25.27084c0,0 11.04918,24.63962 11.16619,40.55089c0.117,15.91127 -10.5785,39.37549 -10.5785,39.37549h-27.03393z" fill="#16c53a" stroke="#000000" stroke-width="3" stroke-linecap="round"/><path d="M252.87812,145.06297h-24.24655v-10.86399h24.24655z" fill="#92b7b7" stroke="#000000" stroke-width="3" stroke-linecap="butt"/><path d="M264.29994,184.26156h-48.49312" fill="none" stroke="#000000" stroke-width="3" stroke-linecap="round"/><path d="M262.27939,196.38483c0,0 -17.18996,0.80822 -25.0014,0.80822c-6.88994,0 -19.45063,-0.80822 -19.45063,-0.80822" fill="none" stroke="#000000" stroke-width="3" stroke-linecap="round"/><path d="M258.23828,207.29579c0,0 -12.59633,1.61643 -18.18491,1.61643c-5.72326,0 -18.18491,-1.61643 -18.18491,-1.61643" fill="none" stroke="#000000" stroke-width="3" stroke-linecap="round"/><path d="M257.78079,216.59029c0,0 -12.19221,1.61643 -17.7808,1.61643c-5.72326,0 -16.56848,-1.61643 -16.56848,-1.61643" fill="none" stroke="#000000" stroke-width="3" stroke-linecap="round"/><path d="M218.38015,175.37115c0,0 12.56069,-0.80823 19.45063,-0.80823c7.81142,0 25.00139,0.80823 25.00139,0.80823" data-paper-data="{&quot;index&quot;:null}" fill="none" stroke="#000000" stroke-width="3" stroke-linecap="round"/><path d="M222.42124,164.46019c0,0 12.46165,-1.61643 18.18493,-1.61643c5.58859,0 18.18492,1.61643 18.18492,1.61643" data-paper-data="{&quot;index&quot;:null}" fill="none" stroke="#000000" stroke-width="3" stroke-linecap="round"/><path d="M223.58018,155.56979c0,0 10.84521,-1.61643 16.56848,-1.61643c5.58859,0 17.7808,1.61643 17.7808,1.61643" data-paper-data="{&quot;index&quot;:null}" fill="none" stroke="#000000" stroke-width="3" stroke-linecap="round"/><path d="M239.99999,225.03643v-78.39719" fill="none" stroke="#000000" stroke-width="3" stroke-linecap="round"/><path d="M227.9301,224.26838c0,0 -3.63698,-24.4493 -3.63698,-37.58216c0,-12.99816 3.63698,-40.81503 3.63698,-40.81503" fill="none" stroke="#000000" stroke-width="3" stroke-linecap="round"/><path d="M251.36844,145.87117c0,0 3.63697,27.81689 3.63697,40.81505c0,13.13286 -3.63697,37.58216 -3.63697,37.58216" data-paper-data="{&quot;index&quot;:null}" fill="none" stroke="#000000" stroke-width="3" stroke-linecap="round"/></g></g></svg>