<svg version="1.1" xmlns="http://www.w3.org/2000/svg" xmlns:xlink="http://www.w3.org/1999/xlink" width="99.41469" height="99.41469" viewBox="0,0,99.41469,99.41469"><g transform="translate(-190.29266,-130.29266)"><g data-paper-data="{&quot;isPaintingLayer&quot;:true}" fill-rule="nonzero" stroke="#000000" stroke-width="2" stroke-linejoin="miter" stroke-miterlimit="10" stroke-dasharray="" stroke-dashoffset="0" style="mix-blend-mode: normal"><path d="" fill="#92b7b7" stroke-linecap="butt"/><path d="" fill="#536565" stroke-linecap="butt"/><path d="" fill="#536565" stroke-linecap="butt"/><path d="" fill="#536565" stroke-linecap="butt"/><path d="M240,228.29313l-48.29313,-48.29313l48.29313,-48.29313l48.29313,48.29313z" fill="#ffffff" stroke-linecap="butt"/><path d="M233.97132,201.85479c0,0 -5.99997,-12.36539 -5.88901,-19.91045c0.11095,-7.54505 6.44986,-18.22787 6.44986,-18.22787h12.05844c0,0 5.27232,11.75724 5.32815,19.34959c0.05583,7.59235 -5.04772,18.78873 -5.04772,18.78873h-12.89973z" fill="#16c53a" stroke-linecap="round"/><path d="M246.14503,163.32916h-11.56968v-5.18395h11.56968z" fill="#92b7b7" stroke-linecap="butt"/><path d="M251.59516,182.03348l-23.13937,0" fill="none" stroke-linecap="round"/><path d="M250.63102,187.81832c0,0 -8.2025,0.38566 -11.92987,0.38566c-3.28766,0 -9.28122,-0.38566 -9.28122,-0.38566" fill="none" stroke-linecap="round"/><path d="M248.70273,193.02468c0,0 -6.01057,0.77131 -8.67726,0.77131c-2.73096,0 -8.67726,-0.77131 -8.67726,-0.77131" fill="none" stroke-linecap="round"/><path d="M248.48443,197.45972c0,0 -5.81773,0.77131 -8.48443,0.77131c-2.73096,0 -7.90595,-0.77131 -7.90595,-0.77131" fill="none" stroke-linecap="round"/><path d="M229.6837,177.79126c0,0 5.99356,-0.38566 9.28122,-0.38566c3.72736,0 11.92987,0.38566 11.92987,0.38566" data-paper-data="{&quot;index&quot;:null}" fill="none" stroke-linecap="round"/><path d="M231.61198,172.5849c0,0 5.9463,-0.77131 8.67727,-0.77131c2.6667,0 8.67726,0.77131 8.67726,0.77131" data-paper-data="{&quot;index&quot;:null}" fill="none" stroke-linecap="round"/><path d="M232.16499,168.34268c0,0 5.17499,-0.77131 7.90595,-0.77131c2.6667,0 8.48443,0.77131 8.48443,0.77131" data-paper-data="{&quot;index&quot;:null}" fill="none" stroke-linecap="round"/><path d="M240,201.48995l0,-37.40864" fill="none" stroke-linecap="round"/><path d="M234.24063,201.12346c0,0 -1.73545,-11.66643 -1.73545,-17.93301c0,-6.20231 1.73545,-19.47563 1.73545,-19.47563" fill="none" stroke-linecap="round"/><path d="M245.42466,163.71481c0,0 1.73545,13.27333 1.73545,19.47564c0,6.26658 -1.73545,17.93301 -1.73545,17.93301" data-paper-data="{&quot;index&quot;:null}" fill="none" stroke-linecap="round"/></g></g></svg>