<svg version="1.1" xmlns="http://www.w3.org/2000/svg" xmlns:xlink="http://www.w3.org/1999/xlink" width="45.70958" height="25.83691" viewBox="0,0,45.70958,25.83691"><g transform="translate(-217.14521,-167.08231)"><g data-paper-data="{&quot;isPaintingLayer&quot;:true}" fill-rule="nonzero" stroke="#000000" stroke-width="2" stroke-linejoin="miter" stroke-miterlimit="10" stroke-dasharray="" stroke-dashoffset="0" style="mix-blend-mode: normal"><g><path d="M218.14521,173.97131v12.89973c0,0 11.19638,5.10355 18.78873,5.04772c7.59235,-0.05583 19.34959,-5.32815 19.34959,-5.32815v-12.05844c0,0 -10.68282,-6.33891 -18.22787,-6.44986c-7.54506,-0.11096 -19.91045,5.88901 -19.91045,5.88901z" fill="#16c53a" stroke-linecap="round"/><path d="M256.67084,186.14503v-11.56968h5.18395v11.56968z" fill="#92b7b7" stroke-linecap="butt"/><path d="M237.96652,168.45579v23.13937" fill="none" stroke-linecap="round"/><path d="M232.18168,169.41993c0,0 -0.38566,5.99356 -0.38566,9.28122c0,3.72737 0.38566,11.92987 0.38566,11.92987" fill="none" stroke-linecap="round"/><path d="M226.97532,171.34821c0,0 -0.77131,5.9463 -0.77131,8.67726c0,2.66669 0.77131,8.67726 0.77131,8.67726" fill="none" stroke-linecap="round"/><path d="M222.54028,172.09405c0,0 -0.77131,5.17499 -0.77131,7.90595c0,2.6667 0.77131,8.48443 0.77131,8.48443" fill="none" stroke-linecap="round"/><path d="M242.20874,169.6837c0,0 0.38566,5.99356 0.38566,9.28122c0,3.72736 -0.38566,11.92987 -0.38566,11.92987" data-paper-data="{&quot;index&quot;:null}" fill="none" stroke-linecap="round"/><path d="M247.4151,171.61198c0,0 0.77131,5.9463 0.77131,8.67727c0,2.6667 -0.77131,8.67726 -0.77131,8.67726" data-paper-data="{&quot;index&quot;:null}" fill="none" stroke-linecap="round"/><path d="M251.65732,172.16499c0,0 0.77131,5.17499 0.77131,7.90595c0,2.6667 -0.77131,8.48443 -0.77131,8.48443" data-paper-data="{&quot;index&quot;:null}" fill="none" stroke-linecap="round"/><path d="M218.51005,180h37.40864" fill="none" stroke-linecap="round"/><path d="M218.87654,174.24063c0,0 11.66643,-1.73545 17.93301,-1.73545c6.20231,0 19.47563,1.73545 19.47563,1.73545" fill="none" stroke-linecap="round"/><path d="M256.28519,185.42466c0,0 -13.27333,1.73545 -19.47564,1.73545c-6.26658,0 -17.93301,-1.73545 -17.93301,-1.73545" data-paper-data="{&quot;index&quot;:null}" fill="none" stroke-linecap="round"/></g></g></g></svg>