<svg version="1.1" xmlns="http://www.w3.org/2000/svg" xmlns:xlink="http://www.w3.org/1999/xlink" width="119.28674" height="221.41871" viewBox="0,0,119.28674,221.41871"><g transform="translate(-180.35663,-120.35663)"><g data-paper-data="{&quot;isPaintingLayer&quot;:true}" fill-rule="nonzero" stroke-linejoin="miter" stroke-miterlimit="10" stroke-dasharray="" stroke-dashoffset="0" style="mix-blend-mode: normal"><path d="M182.85663,237.14336v-114.28673h114.28674v114.28674z" fill="#888d8d" stroke="#000000" stroke-width="5" stroke-linecap="butt"/><g stroke="#000000" stroke-width="2" stroke-linecap="round"><path d="M219.74293,153.15661l-4.33739,28.28163l-9.32362,-1.4299l4.3374,-28.28164z" fill="#d2d84e"/><path d="M220.87872,146.01456l-1.0486,6.83733l-9.36313,-1.43597l1.00094,-6.52653c0,0 1.78551,-1.9707 2.74563,-2.75995c0.75929,-0.62415 1.5298,-1.6981 2.55528,-1.59752c1.02549,0.10058 1.46069,1.33977 2.03407,2.10467c0.74907,0.99927 2.07581,3.37797 2.07581,3.37797z" fill="#d9ab39"/></g><path d="M182.85663,339.27533v-86.99628h114.28674v86.99629z" fill="#f3fdfd" stroke="#000000" stroke-width="5" stroke-linecap="butt"/><text transform="translate(188.73394,267.24705) scale(0.28175,0.28175)" font-size="40" xml:space="preserve" fill="#1fd529" fill-rule="nonzero" stroke="none" stroke-width="1" stroke-linecap="butt" stroke-linejoin="miter" stroke-miterlimit="10" stroke-dasharray="" stroke-dashoffset="0" font-family="Sans Serif" font-weight="normal" text-anchor="start" style="mix-blend-mode: normal"><tspan x="0" dy="0">+35% damage</tspan></text><text transform="translate(188.73394,282.21999) scale(0.28175,0.28175)" font-size="40" xml:space="preserve" fill="#1fd529" fill-rule="nonzero" stroke="none" stroke-width="1" stroke-linecap="butt" stroke-linejoin="miter" stroke-miterlimit="10" stroke-dasharray="" stroke-dashoffset="0" font-family="Sans Serif" font-weight="normal" text-anchor="start" style="mix-blend-mode: normal"><tspan x="0" dy="0">-10% RPM</tspan></text><g stroke="#000000" stroke-width="2" stroke-linecap="round"><path d="M204.52086,154.11829l9.6387,26.93992l-8.88129,3.17759l-9.6387,-26.93992z" fill="#d2d84e"/><path d="M202.12235,147.29582l2.33024,6.51296l-8.91893,3.19106l-2.22431,-6.21691c0,0 0.63305,-2.58282 1.10212,-3.73378c0.37095,-0.9102 0.53781,-2.2214 1.48767,-2.62076c0.94986,-0.39936 1.92218,0.4836 2.79039,0.88364c1.13424,0.52262 3.43282,1.98379 3.43282,1.98379z" fill="#d9ab39"/></g><g stroke="#000000" stroke-width="2" stroke-linecap="round"><path d="M212.34002,153.88145l6.23597,27.92448l-9.20587,2.05582l-6.23597,-27.92448z" fill="#d2d84e"/><path d="M210.80291,146.81491l1.5076,6.75098l-9.24489,2.06453l-1.43907,-6.44411c0,0 0.94735,-2.4848 1.55505,-3.56898c0.48058,-0.85739 0.80818,-2.13792 1.80011,-2.41684c0.99193,-0.27893 1.84769,0.7174 2.65982,1.22167c1.06097,0.65877 3.16138,2.39276 3.16138,2.39276z" fill="#d9ab39"/></g><g stroke="#000000" stroke-width="2" stroke-linecap="round"><path d="M261.18832,171.24377l-1.68856,6.84156l2.29022,3.79116l-11.81994,47.89089l-14.06319,-3.47093l11.63232,-47.13072l4.50201,-2.71963l1.73547,-7.03159z" fill="#d2d84e"/><path d="M263.4906,146.74321l1.72835,7.87587l-4.05178,16.41663l-7.31826,-1.80622l4.05178,-16.41663z" fill="#d9ab39"/></g><g stroke="#000000" stroke-width="2" stroke-linecap="round"><path d="M274.19505,171.94972l-1.10867,6.95909l2.60019,3.58567l-7.7607,48.71364l-14.3048,-2.27894l7.63752,-47.94041l4.25799,-3.08773l1.13947,-7.15239z" fill="#d2d84e"/><path d="M274.43387,147.34238l2.38296,7.70311l-2.66031,16.69867l-7.44399,-1.18592l2.66031,-16.69867z" fill="#d9ab39"/></g><g data-paper-data="{&quot;index&quot;:null}" fill="none" stroke="#000000" stroke-width="4.5" stroke-linecap="round"><path d="M222.87649,206.13978c0,0 -9.61923,-1.40788 -11.10329,-4.26311c-1.56222,-3.00561 1.95244,-13.34258 1.95244,-13.34258"/><path d="M224.01976,199.23832l3.87151,7.44857l-7.44856,3.87151"/></g></g></g></svg>