<svg version="1.1" xmlns="http://www.w3.org/2000/svg" xmlns:xlink="http://www.w3.org/1999/xlink" width="371.47493" height="371.47493" viewBox="0,0,371.47493,371.47493"><g transform="translate(-54.26255,5.73746)"><g data-paper-data="{&quot;isPaintingLayer&quot;:true}" fill-rule="nonzero" stroke-linejoin="miter" stroke-miterlimit="10" stroke-dasharray="" stroke-dashoffset="0" style="mix-blend-mode: normal"><path d="M264.18548,187.9823c0,-6.29954 5.10679,-11.40633 11.40633,-11.40633c6.29954,0 11.40633,5.10679 11.40633,11.40633c0,6.29954 -5.10679,11.40633 -11.40633,11.40633c-6.29954,0 -11.40633,-5.10679 -11.40633,-11.40633z" fill="#ffffae" stroke="#000000" stroke-width="2.5" stroke-linecap="butt"/><path d="M309.06383,171.22237c0,-6.29954 5.10679,-11.40633 11.40633,-11.40633c6.29954,0 11.40633,5.10679 11.40633,11.40633c0,6.29954 -5.10679,11.40633 -11.40633,11.40633c-6.29954,0 -11.40633,-5.10679 -11.40633,-11.40633z" fill="#ffffae" stroke="#000000" stroke-width="2.5" stroke-linecap="butt"/><path d="M239.05634,181.17795c-1.12472,-6.06907 5.43667,-2.18777 12.97586,-2.2121c9.77076,-0.03153 21.32017,-2.80651 21.32017,-2.80651c0,0 0.72374,0 1.74774,0c7.42836,0 91.97332,0 91.97332,0v9.43097c0,0 -84.54496,0 -91.97332,0c-0.53699,0 -13.72393,0.21188 -22.70272,0.69314c-8.14306,0.43647 -12.1129,1.5217 -13.34105,-5.1055z" fill="#93aac7" stroke="#000000" stroke-width="2.5" stroke-linecap="butt"/><path d="M292.53819,182.02255v-1.94553h125.77001v1.94553z" fill="#93aac7" stroke="#000000" stroke-width="2.5" stroke-linecap="butt"/><path d="M54.26255,365.73747v-371.47493h371.47493v371.47493z" fill="none" stroke="none" stroke-width="0" stroke-linecap="butt"/><path d="M210.60688,180c0,-16.23337 13.15974,-29.39312 29.39312,-29.39312c16.23337,0 29.39312,13.15974 29.39312,29.39312c0,16.23337 -13.15974,29.39312 -29.39312,29.39312c-16.23337,0 -29.39312,-13.15974 -29.39312,-29.39312z" fill="#ffffae" stroke="#000000" stroke-width="2.5" stroke-linecap="butt"/><path d="M254.86784,174.21525c0,-2.10985 1.71038,-3.82022 3.82022,-3.82022c2.10985,0 3.82022,1.71038 3.82022,3.82022c0,2.10985 -1.71038,3.82022 -3.82022,3.82022c-2.10985,0 -3.82022,-1.71038 -3.82022,-3.82022z" fill="#000000" stroke="none" stroke-width="0.5" stroke-linecap="butt"/><path d="M255.52836,188.74668c0,-2.10985 1.71038,-3.82022 3.82022,-3.82022c2.10985,0 3.82022,1.71038 3.82022,3.82022c0,2.10985 -1.71038,3.82022 -3.82022,3.82022c-2.10985,0 -3.82022,-1.71038 -3.82022,-3.82022z" fill="#000000" stroke="none" stroke-width="0.5" stroke-linecap="butt"/><path d="M290.78883,181.26852h-9.22177" fill="none" stroke="#000000" stroke-width="3" stroke-linecap="round"/><path d="M283.36643,182.39313v5.39811" fill="none" stroke="#000000" stroke-width="4" stroke-linecap="round"/><path d="M282.46674,188.91585c0,-0.24844 0.2014,-0.44984 0.44984,-0.44984c0.24844,0 0.44984,0.2014 0.44984,0.44984c0,0.24844 -0.2014,0.44984 -0.44984,0.44984c-0.24844,0 -0.44984,-0.2014 -0.44984,-0.44984z" fill="none" stroke="#000000" stroke-width="4" stroke-linecap="butt"/><path d="M283.36643,182.39313v5.39811" fill="none" stroke="#c6a32b" stroke-width="1.5" stroke-linecap="round"/><path d="M282.46674,188.91584c0,-0.24844 0.2014,-0.44984 0.44984,-0.44984c0.24844,0 0.44984,0.2014 0.44984,0.44984c0,0.24844 -0.2014,0.44984 -0.44984,0.44984c-0.24844,0 -0.44984,-0.2014 -0.44984,-0.44984z" fill="none" stroke="#c6a32b" stroke-width="1.5" stroke-linecap="butt"/></g></g></svg>