<svg version="1.1" xmlns="http://www.w3.org/2000/svg" xmlns:xlink="http://www.w3.org/1999/xlink" width="99.06258" height="99.06258" viewBox="0,0,99.06258,99.06258"><g transform="translate(-190.46871,-130.46871)"><g data-paper-data="{&quot;isPaintingLayer&quot;:true}" fill-rule="nonzero" stroke-linecap="butt" stroke-linejoin="miter" stroke-miterlimit="10" stroke-dasharray="" stroke-dashoffset="0" style="mix-blend-mode: normal"><path d="M191.46871,228.53129v-97.06258h97.06258v97.06258z" fill="#e4c093" stroke="#000000" stroke-width="2"/><g><path d="M242.04069,177.88937c2.51516,-3.60713 7.47826,-4.49235 11.08539,-1.97719c3.60713,2.51516 4.49235,7.47826 1.97719,11.08538c-2.51516,3.60713 -7.47826,4.49235 -11.08538,1.97719c-3.60713,-2.51516 -4.49235,-7.47826 -1.97719,-11.08539z" fill="#ffffae" stroke="#000000" stroke-width="2.5"/><path d="M208.75459,160.77122c6.48134,-9.29525 19.2708,-11.57638 28.56606,-5.09504c9.29525,6.48134 11.57638,19.2708 5.09504,28.56606c-6.48134,9.29525 -19.2708,11.57638 -28.56606,5.09504c-9.29525,-6.48134 -11.57638,-19.2708 -5.09504,-28.56606z" fill="#ffffae" stroke="#000000" stroke-width="2.5"/><path d="M236.40811,175.1305c0.84237,-1.20811 2.50463,-1.50458 3.71273,-0.6622c1.20811,0.84237 1.50458,2.50463 0.6622,3.71273c-0.84237,1.20811 -2.50463,1.50458 -3.71273,0.6622c-1.20811,-0.84237 -1.50458,-2.50463 -0.6622,-3.71273z" fill="#000000" stroke="none" stroke-width="0.5"/><path d="M230.9845,183.71495c0.84237,-1.20811 2.50463,-1.50458 3.71273,-0.6622c1.20811,0.84237 1.50458,2.50463 0.6622,3.71273c-0.84237,1.20811 -2.50463,1.50458 -3.71273,0.6622c-1.20811,-0.84237 -1.50458,-2.50463 -0.6622,-3.71273z" fill="#000000" stroke="none" stroke-width="0.5"/><path d="M244.17365,190.22533l5.2506,-7.53018l25.51043,17.78777l-5.2506,7.53018z" fill="#93aac7" stroke="#000000" stroke-width="2.5"/></g></g></g></svg>