<svg version="1.1" xmlns="http://www.w3.org/2000/svg" xmlns:xlink="http://www.w3.org/1999/xlink" width="52.76682" height="22.60324" viewBox="0,0,52.76682,22.60324"><g transform="translate(-213.36659,-168.68893)"><g data-paper-data="{&quot;isPaintingLayer&quot;:true}" fill-rule="nonzero" stroke-linejoin="miter" stroke-miterlimit="10" stroke-dasharray="" stroke-dashoffset="0" style="mix-blend-mode: normal"><path d="M214.61659,169.93893h39.2v20h-39.2z" fill="#ff0000" stroke="#000000" stroke-width="2.5" stroke-linecap="butt"/><path d="M226.14003,179.93893l8.07656,-8.07656l8.07656,8.07656l-8.07656,8.07656z" fill="#ffffff" stroke="#000000" stroke-width="2.5" stroke-linecap="butt"/><path d="M235.38269,179.9247l1.606,1.606l-1.82013,1.82013" data-paper-data="{&quot;index&quot;:null}" fill="none" stroke="#ff4c00" stroke-width="1.5" stroke-linecap="round"/><path d="M233.78832,175.12996l1.60599,1.606l-1.82013,1.82013" data-paper-data="{&quot;index&quot;:null}" fill="none" stroke="#ff6300" stroke-width="1.5" stroke-linecap="round"/><path d="M233.28416,178.21164l1.60599,1.606l-1.82013,1.82013" data-paper-data="{&quot;index&quot;:null}" fill="none" stroke="#ffac00" stroke-width="1.5" stroke-linecap="round"/><path d="M234.98842,176.49857l1.82013,1.82013l-1.606,1.606" fill="none" stroke="#ff7b00" stroke-width="1.5" stroke-linecap="round"/><path d="M232.15996,179.9247l1.82013,1.82013l-1.60599,1.606" fill="none" stroke="#ff6300" stroke-width="1.5" stroke-linecap="round"/><path d="M231.24989,178.21164l1.82013,1.82013l-1.606,1.606" fill="none" stroke="#ffac00" stroke-width="1.5" stroke-linecap="round"/><path d="M254.23883,169.45783l6.4759,0v21.08434h-6.4759z" fill="#a9dada" stroke="#000000" stroke-width="1.5" stroke-linecap="butt"/><path d="M260.71474,173.50877h4.66867v13.55422h-4.66867z" fill="#a9dada" stroke="#000000" stroke-width="1.5" stroke-linecap="butt"/></g></g></svg>