<svg version="1.1" xmlns="http://www.w3.org/2000/svg" xmlns:xlink="http://www.w3.org/1999/xlink" width="371.47493" height="371.47493" viewBox="0,0,371.47493,371.47493"><g transform="translate(-54.26256,5.73746)"><g data-paper-data="{&quot;isPaintingLayer&quot;:true}" fill-rule="nonzero" stroke-linejoin="miter" stroke-miterlimit="10" stroke-dasharray="" stroke-dashoffset="0" style="mix-blend-mode: normal"><path d="M269.21491,226.42091c-6.00417,-1.90635 -9.3261,-8.3191 -7.41975,-14.32327c1.90635,-6.00417 8.3191,-9.3261 14.32327,-7.41975c6.00417,1.90635 9.3261,8.3191 7.41975,14.32327c-1.90635,6.00417 -8.3191,9.3261 -14.32327,7.41975z" fill="#ffffae" stroke="#000000" stroke-width="2.5" stroke-linecap="butt"/><path d="M54.26257,365.73748v-371.47493h371.47493v371.47493z" fill="none" stroke="none" stroke-width="0" stroke-linecap="butt"/><path d="M290.05091,203.47354c0,-6.29954 5.10679,-11.40633 11.40633,-11.40633c6.29954,0 11.40633,5.10679 11.40633,11.40633c0,6.29954 -5.10679,11.40633 -11.40633,11.40633c-6.29954,0 -11.40633,-5.10679 -11.40633,-11.40633z" fill="#ffffae" stroke="#000000" stroke-width="2.5" stroke-linecap="butt"/><path d="M316.60988,205.26465l5.69097,-0.00668l12.23306,-4.57511l37.88804,8.95764l-37.99584,6.42685l-11.71711,-3.09876l-6.10877,-0.08448z" fill="#44b74d" stroke="#000000" stroke-width="2.5" stroke-linecap="round"/><path d="M181.3238,195.35458c0.6557,-0.51525 0.80669,0.3658 1.67301,0.75861c3.01344,1.3664 20.24356,9.17914 20.24356,9.17914l-0.22066,9.46043c0,0 -18.02701,7.84225 -21.00901,9.13952c-0.80662,0.3509 -1.30105,1.02667 -1.53724,0.66875c-0.23617,-0.35792 0.49738,-0.84626 0.93206,-1.58587c1.01224,-1.72224 5.05396,-8.59894 5.05396,-8.59894l0.52373,-7.95721c0,0 -3.98115,-7.78335 -4.90297,-9.58553c-0.3621,-0.70787 -1.41213,-0.96362 -0.75643,-1.47887z" fill="#6a7c91" stroke="#000000" stroke-width="2.5" stroke-linecap="round"/><path d="M204.46724,215.38513l0.03799,-10.82063c0,0 11.37094,-0.19025 29.38292,-0.34513c7.73201,-0.06649 14.37473,-0.75408 17.56817,-0.78968c5.74113,-0.06402 13.26159,-0.14787 13.26159,-0.14787l-0.24721,12.07588c0,0 -7.14454,0.082 -12.8012,0.14507c-3.29513,0.03674 -10.10139,-0.52773 -18.20742,-0.45815c-17.98477,0.15439 -28.99485,0.34052 -28.99485,0.34052z" fill="#ebbaae" stroke="#000000" stroke-width="2.5" stroke-linecap="butt"/><path d="M265.39511,215.5494l0.03393,-12.07586c0,0 4.99358,1.1772 9.88055,1.11617c9.41409,-0.11756 41.32358,0.6522 41.32358,0.6522l-0.03393,7.76421c0,0 -32.3455,1.4553 -41.70872,1.57222c-4.75367,0.05936 -9.49541,0.97106 -9.49541,0.97106z" fill="#6a7c91" stroke="#000000" stroke-width="2.5" stroke-linecap="butt"/></g></g></svg>