<svg version="1.1" xmlns="http://www.w3.org/2000/svg" xmlns:xlink="http://www.w3.org/1999/xlink" width="119.28674" height="221.41871" viewBox="0,0,119.28674,221.41871"><g transform="translate(-180.35663,-120.35663)"><g data-paper-data="{&quot;isPaintingLayer&quot;:true}" fill-rule="nonzero" stroke-linejoin="miter" stroke-miterlimit="10" stroke-dasharray="" stroke-dashoffset="0" style="mix-blend-mode: normal"><path d="M182.85663,237.14336v-114.28673h114.28674v114.28674z" fill="#f3fdfd" stroke="#000000" stroke-width="5" stroke-linecap="butt"/><path d="M182.85663,339.27533v-86.99628h114.28674v86.99629z" fill="#f3fdfd" stroke="#000000" stroke-width="5" stroke-linecap="butt"/><text transform="translate(188.73394,267.24705) scale(0.28175,0.28175)" font-size="40" xml:space="preserve" fill="#1fd529" fill-rule="nonzero" stroke="none" stroke-width="1" stroke-linecap="butt" stroke-linejoin="miter" stroke-miterlimit="10" stroke-dasharray="" stroke-dashoffset="0" font-family="Sans Serif" font-weight="normal" text-anchor="start" style="mix-blend-mode: normal"><tspan x="0" dy="0">+50 Max HP</tspan></text><g><path d="M184.64914,206.80075c0,-9.68275 -4.6612,-18.84894 -0.7155,-27.02096c10.05804,-20.83143 31.3839,-35.20276 56.06636,-35.20276c25.29868,0 47.07108,15.09788 56.79851,36.77497c3.4861,7.76861 -0.87491,15.80949 -0.87491,24.87601c0,8.7847 4.47968,17.71696 1.19549,25.29464c-1.16642,2.69129 -0.22652,3.56574 -1.74624,6.04381c-0.53544,0.87309 -9.2061,-1.11297 -17.07007,-0.43536c-11.58587,0.99831 -28.57573,-2.37604 -44.6663,-1.721c-9.55011,0.38878 -19.92891,0.7135 -27.52755,1.42518c-4.44894,0.41668 -7.19203,2.09523 -10.25572,1.00002c-2.96868,-1.06124 -8.50803,2.19053 -9.47801,0.54708c-1.0933,-1.85238 -2.09335,-3.76637 -2.99369,-5.73547c-3.5993,-7.87185 1.26763,-16.62474 1.26763,-25.84615z" fill="#ffffae" stroke="#000000" stroke-width="2.5" stroke-linecap="butt"/><path d="M268.31248,199.72598c0,-4.46643 3.62078,-8.08721 8.08721,-8.08721c4.46643,0 8.08722,3.62078 8.08722,8.08721c0,4.46643 -3.62079,8.08722 -8.08722,8.08722c-4.46643,0 -8.08721,-3.62079 -8.08721,-8.08722z" fill="#000000" stroke="none" stroke-width="0.5" stroke-linecap="butt"/><path d="M198.52285,199.72598c0,-4.46643 3.62079,-8.08721 8.08722,-8.08721c4.46643,0 8.08721,3.62078 8.08721,8.08721c0,4.46643 -3.62078,8.08722 -8.08721,8.08722c-4.46643,0 -8.08722,-3.62079 -8.08722,-8.08722z" fill="#000000" stroke="none" stroke-width="0.5" stroke-linecap="butt"/><path d="M213.88261,177.5364h-14.54507" fill="none" stroke="#000000" stroke-width="5" stroke-linecap="round"/><path d="M283.67222,176.27162h-14.54507" fill="none" stroke="#000000" stroke-width="5" stroke-linecap="round"/><path d="M205.46039,233.77296h70.19572" fill="none" stroke="#000000" stroke-width="5" stroke-linecap="round"/></g><path d="M182.85663,237.14336v-114.28673h114.28674v114.28674z" fill="none" stroke="#000000" stroke-width="5" stroke-linecap="butt"/></g></g></svg>